<svg width="281" height="117" viewBox="0 0 281 117" fill="none" xmlns="http://www.w3.org/2000/svg">
<g clip-path="url(#clip0_2371_2218)">
<path d="M115.36 39.7621C113.884 28.8154 121.562 18.7449 132.508 17.2689L193.055 9.10525C198.528 8.36727 203.564 12.206 204.302 17.6793L210.863 66.3435C211.601 71.8168 207.762 76.852 202.289 77.59L141.742 85.7537C130.795 87.2297 120.725 79.5522 119.249 68.6055L115.36 39.7621Z" fill="#3DC5FF"/>
<path d="M233.033 0.767291L241.35 75.4002L179.359 53.2866L233.033 0.767291Z" fill="#3DC5FF"/>
<path d="M14.0833 45.901C14.0833 45.901 14.0833 46.8177 14.0833 48.651C14.0833 51.5399 14.8472 53.9983 16.375 56.026C17.9028 58.0538 19.75 59.0399 21.9167 58.9844C23.1945 59.1233 24.4861 58.9983 25.7917 58.6094C28.4306 57.6927 29.75 55.6927 29.75 52.6094C29.75 52.6094 29.75 47.9149 29.75 38.526C29.25 36.9427 27.8056 35.7066 25.4167 34.8177C23.0278 33.901 20.5417 34.0538 17.9584 35.276C15.375 36.4705 14.0833 40.0121 14.0833 45.901ZM8.00001 60.276C4.44445 56.526 2.66667 51.9983 2.66667 46.6927C2.66667 41.3594 4.44445 36.8177 8.00001 33.0677C11.5556 29.3177 15.8611 27.4427 20.9167 27.4427C25.1667 27.4427 28.1111 29.3177 29.75 33.0677C29.75 31.8455 30.2084 30.776 31.125 29.8593C31.9306 29.0538 32.9445 28.651 34.1667 28.651H37.375C38.5973 28.651 39.6389 29.0538 40.5 29.8593C41.3612 30.776 41.7917 31.8455 41.7917 33.0677V63.4844C41.7917 64.2066 41.5417 64.7899 41.0417 65.2344C40.5695 65.6788 40 65.901 39.3334 65.901H34.3334C33.6111 65.901 32.7778 65.401 31.8334 64.401C30.8889 63.401 30.0417 62.8455 29.2917 62.7344C28.5417 62.6233 27.8334 62.7899 27.1667 63.2344C24.4167 65.0122 22.3334 65.901 20.9167 65.901C15.8611 65.901 11.5556 64.026 8.00001 60.276Z" fill="#FCBA00"/>
<path d="M65.3239 63.1068C65.3318 68.9957 63.88 73.8171 60.9683 77.571C57.5575 81.8812 52.9346 83.4568 47.0997 82.298C46.5996 82.2154 45.9743 81.994 45.2238 81.6339C43.4448 80.7752 42.5541 79.3736 42.5514 77.4291C42.5498 76.1791 42.9511 75.1091 43.7555 74.2192C44.5876 73.3292 45.587 72.8834 46.7537 72.8818C47.9203 72.8802 49.0033 72.6149 50.0026 72.0858C52.4455 70.9436 53.6502 68.2336 53.6167 63.9559L53.5794 36.2892C53.5773 34.6781 54.1449 33.3023 55.2822 32.1619C56.364 31.0493 57.7244 30.492 59.3633 30.4897L59.53 30.4895C61.1689 30.4873 62.5307 31.041 63.6155 32.1507C64.7282 33.2881 65.2856 34.6623 65.2878 36.2734L65.3239 63.1068ZM63.4391 24.8592C62.2186 26.1664 60.7056 26.8213 58.9 26.8237C57.1778 26.826 55.6769 26.1891 54.3975 24.9131C53.118 23.637 52.477 22.124 52.4747 20.374C52.4723 18.5962 53.0814 17.0815 54.3019 15.8299C55.5224 14.5504 57.0493 13.9095 58.8826 13.907C60.6882 13.9046 62.203 14.5414 63.4269 15.8176C64.6508 17.0937 65.264 18.6068 65.2663 20.3568C65.2408 22.0235 64.6317 23.5243 63.4391 24.8592Z" fill="#FCBA00"/>
<path d="M113.57 47.1328C113.57 47.1328 113.598 52.1606 113.654 62.2161C113.654 63.7995 113.07 65.1745 111.904 66.3411C111.098 67.1189 109.695 67.4939 107.695 67.4661H107.654C105.681 67.4661 104.306 67.0911 103.529 66.3411C102.362 65.23 101.779 63.855 101.779 62.2161V46.4245C101.779 42.4522 100.57 39.8689 98.1537 38.6745C95.7092 37.48 93.0842 37.73 90.2787 39.4245C87.4731 41.1189 86.1398 42.8133 86.2787 44.5078V62.2161C86.2787 63.855 85.7231 65.23 84.612 66.3411C83.8342 67.1189 82.4592 67.4939 80.487 67.4661C80.487 67.4661 80.4175 67.4661 80.2787 67.4661C78.3064 67.4661 76.9314 67.0911 76.1537 66.3411C74.987 65.1745 74.4037 63.7995 74.4037 62.2161V32.5911C74.4037 31.5078 74.8064 30.5911 75.612 29.8411C76.4175 29.0911 77.3064 28.7161 78.2787 28.7161H82.612C83.6953 28.7161 84.5981 29.1189 85.3203 29.9244C86.0426 30.7022 86.4037 31.5633 86.4037 32.5078V32.5911C90.4037 30.23 93.3759 28.8828 95.3203 28.5494C101.987 27.4106 107.098 29.1328 110.654 33.7161C112.57 36.2439 113.543 40.7161 113.57 47.1328Z" fill="#FCBA00"/>
<path d="M259.667 33.3372C261.639 33.3372 263.583 34.1844 265.5 35.8789C266.722 36.9622 267.569 38.7261 268.042 41.1705H249.792C250.708 37.9483 252.069 35.8372 253.875 34.8372C255.681 33.8372 257.611 33.3372 259.667 33.3372ZM241.208 45.0872V45.1289C241.208 47.4622 242.319 48.6289 244.542 48.6289H267.75C266.944 51.1567 266.125 52.8233 265.292 53.6289C262.208 56.4622 258.097 56.7261 252.958 54.4206L248.667 52.5039C246.806 51.6706 245.375 51.9622 244.375 53.3789C243.375 54.7956 243.042 56.2539 243.375 57.7539L243.458 57.7956C243.736 59.0456 245.014 60.2956 247.292 61.5456C250.597 63.3789 255.153 64.2678 260.958 64.2122C265.125 64.2122 269.153 62.3511 273.042 58.6289C276.903 54.9067 278.833 50.3928 278.833 45.0872C278.833 39.7539 276.972 35.1983 273.25 31.4205C269.5 27.6705 265.083 25.8372 260 25.9205C254.917 26.0039 250.514 27.8233 246.792 31.3789C243.069 34.9344 241.208 39.5039 241.208 45.0872Z" fill="#FFBF2E"/>
<path d="M132.301 66.4258C126.611 65.3093 121.324 60.89 119.039 55.3407C117.918 52.616 117.643 51.0323 117.665 47.4224C117.682 44.7372 117.774 43.7856 118.15 42.3997C119.116 38.8354 120.832 36.0088 123.677 33.2916C126.63 30.4711 129.777 28.9993 133.817 28.5491C138.483 28.0292 141.707 29.386 143.778 32.7405L144.573 34.0295L144.695 33.2785C144.864 32.2427 145.492 31.2399 146.465 30.4535L147.286 29.7896H150.559H153.832L154.654 30.4432C155.106 30.8026 155.692 31.5203 155.956 32.038L156.437 32.9793V48.9744C156.437 66.3389 156.469 65.8552 155.267 66.4029C154.913 66.5642 153.536 66.6583 151.522 66.6583H148.337L147.031 65.5363C145.222 63.982 144.109 63.4019 143.239 63.5596C142.857 63.6287 141.747 64.1624 140.771 64.7454C138.289 66.2289 136.94 66.6635 134.909 66.6349C133.995 66.6236 132.822 66.5279 132.301 66.4258ZM141.366 59.1952C142.814 58.482 143.623 57.6091 144.201 56.1353C144.506 55.3565 144.569 54.0813 144.634 47.388C144.707 39.8652 144.693 39.5187 144.278 38.7054C143.066 36.3307 138.937 34.6413 135.701 35.1962C131.698 35.8828 129.882 37.8565 129.088 42.3855C128.734 44.4021 128.804 51.3671 129.193 52.8811C129.673 54.7502 130.467 56.2461 131.691 57.5852C133.487 59.5506 134.865 60.0728 137.917 59.945C139.735 59.8686 140.205 59.7666 141.366 59.1952Z" fill="#F7F7F7"/>
<path d="M161.306 67.022C161.012 66.7907 160.66 66.3332 160.524 66.005C160.341 65.5626 160.292 59.2186 160.335 41.4722L160.393 17.5361L160.986 16.5276C161.605 15.4741 162.875 14.465 164.112 14.0434C165.144 13.6915 167.759 13.7369 168.861 14.1254C169.963 14.5142 171.042 15.4907 171.686 16.6811C172.128 17.4996 172.151 17.8338 172.215 24.5357C172.251 28.3855 172.313 31.5354 172.351 31.5354C172.389 31.5354 173.033 31.2489 173.78 30.8991C176.908 29.4357 181.479 28.8918 184.758 29.5928C190.883 30.9021 196.338 35.9575 198.337 42.1767C200.597 49.2107 198.96 56.5857 193.973 61.8359C191.339 64.6087 188.737 66.1691 185.297 67.0391C183.756 67.4287 183.072 67.4794 180.496 67.3944C177.954 67.3105 177.228 67.2054 175.781 66.7136C174.841 66.3938 173.67 65.8982 173.18 65.6123L172.288 65.0925L172.042 65.8366C171.907 66.2459 171.55 66.7746 171.249 67.0116C170.74 67.412 170.389 67.4424 166.27 67.4424C162.189 67.4424 161.798 67.4082 161.306 67.022ZM182.677 60.6091C183.981 60.0425 185.728 58.2721 186.633 56.6002C187.763 54.5108 188.071 52.6694 188.071 47.9927C188.071 43.1841 187.734 41.2889 186.518 39.2621C185.684 37.8735 184.928 37.2616 183.151 36.5398C181.216 35.7534 179.304 35.6398 177.455 36.2015C175.593 36.7671 173.511 38.1007 172.791 39.1894L172.236 40.0271L172.299 48.5518L172.362 57.0764L172.984 58.1994C173.709 59.5073 174.708 60.3362 176.207 60.8736C177.747 61.4256 181.114 61.2881 182.677 60.6091Z" fill="#F7F7F7"/>
<path d="M214.157 64.6835C209.394 63.6507 203.794 59.0696 201.367 54.2221C198.949 49.3904 198.884 42.977 201.203 37.9525C203.692 32.5598 208.723 28.4362 214.186 27.3108C216.074 26.9217 219.46 26.8673 221.316 27.1959C227.247 28.2464 232.402 32.0774 235.084 37.4274C236.677 40.6057 237.45 46.479 236.486 48.0737C235.658 49.4415 235.955 49.413 222.605 49.413C213.07 49.413 210.508 49.4696 210.508 49.6801C210.508 50.0301 211.269 52.0251 211.798 53.061C212.416 54.2731 213.648 55.3759 215.206 56.1121C216.339 56.6471 216.936 56.7831 218.475 56.8567C221.001 56.9773 222.616 56.5623 226.851 54.7042C230.53 53.0901 231.511 52.8411 232.529 53.2628C233.697 53.7466 234.873 55.9106 234.873 57.5752C234.873 60.8552 229.651 63.9167 222.584 64.7793C219.992 65.0957 215.84 65.0486 214.157 64.6835ZM228.368 41.5585C228.081 40.3554 226.758 37.8687 225.922 36.9625C223.729 34.5831 218.815 33.5129 215.792 34.7561C214.153 35.4302 212.387 36.8197 211.607 38.0494C211.117 38.8215 210.081 41.5467 210.081 42.0619C210.081 42.1084 214.227 42.1462 219.294 42.1462H228.508L228.368 41.5585Z" fill="#F7F7F7"/>
<path d="M180.638 110.724C180.773 111.703 180.537 112.603 179.927 113.425C179.332 114.245 178.538 114.723 177.545 114.861C176.566 114.997 175.665 114.753 174.841 114.129C174.046 113.502 173.58 112.699 173.445 111.72C173.307 110.727 173.545 109.834 174.158 109.04C174.771 108.247 175.567 107.782 176.546 107.647C177.539 107.509 178.431 107.74 179.223 108.339C180.029 108.936 180.5 109.731 180.638 110.724ZM189.269 110.244C189.393 111.138 189.192 111.932 188.666 112.627C188.141 113.321 187.424 113.731 186.516 113.857L186.452 113.866C185.601 113.984 184.821 113.781 184.112 113.257C183.401 112.72 182.985 112.011 182.863 111.131L180.045 90.7865C179.924 89.9069 180.126 89.1198 180.651 88.4252C181.163 87.7326 181.865 87.3244 182.759 87.2007L182.823 87.1918C183.717 87.068 184.518 87.2679 185.227 87.7915C185.935 88.3152 186.344 89.0178 186.451 89.8993L189.269 110.244ZM195.496 112.613C194.617 112.735 193.823 112.534 193.114 112.011C192.417 111.471 192.008 110.761 191.886 109.882L190.147 97.3258C190.026 96.4461 190.234 95.651 190.771 94.9403C191.323 94.2276 192.025 93.8123 192.876 93.6944L192.919 93.6885C193.77 93.5706 194.551 93.7806 195.262 94.3184C195.972 94.8562 196.389 95.5649 196.511 96.4445L198.249 109C198.371 109.88 198.163 110.675 197.626 111.386C197.088 112.097 196.392 112.504 195.539 112.608L195.496 112.613ZM195.115 88.244C195.242 89.1662 195.024 89.9917 194.46 90.7206C193.91 91.4474 193.188 91.8727 192.294 91.9965C191.386 92.1223 190.576 91.9092 189.863 91.3572C189.15 90.8052 188.723 90.0691 188.581 89.1489C188.454 88.2267 188.666 87.4092 189.218 86.6966C189.753 85.9717 190.476 85.5535 191.386 85.4419C192.266 85.3201 193.074 85.519 193.811 86.0387C194.551 86.5725 194.985 87.3077 195.115 88.244ZM213.701 90.2681C213.701 90.2681 213.729 90.2642 213.786 90.2563C214.822 90.1129 215.695 90.4185 216.407 91.173C217.101 91.9011 217.339 92.7863 217.122 93.8286L214.592 106.412C214.381 107.497 213.859 108.429 213.027 109.21C212.195 109.99 211.225 110.45 210.117 110.589L210.032 110.6C208.897 110.758 207.828 110.559 206.826 110.003C205.821 109.434 205.093 108.667 204.642 107.703L199.224 96.3072C198.773 95.3432 198.776 94.4246 199.233 93.5515C199.687 92.65 200.43 92.1205 201.464 91.9628L201.847 91.9098C202.471 91.8233 203.095 91.9394 203.717 92.2581C204.342 92.5909 204.773 93.0445 205.012 93.6187C207.071 98.4667 208.54 102.182 209.418 104.764L209.546 104.746C209.712 102.395 210.251 98.4023 211.162 92.767C211.262 92.1314 211.554 91.5776 212.038 91.1057C212.551 90.6298 213.105 90.3507 213.701 90.2681ZM229.165 91.8353C228.158 91.9748 227.225 92.545 226.366 93.546C225.818 94.1858 225.51 95.1466 225.442 96.4285L234.763 95.1376C234.067 93.5567 233.223 92.5747 232.23 92.1917C231.237 91.8087 230.215 91.6899 229.165 91.8353ZM239.424 96.5309L239.427 96.5522C239.592 97.7439 239.107 98.4184 237.972 98.5756L226.119 100.217C226.709 101.451 227.245 102.245 227.728 102.597C229.503 103.826 231.622 103.67 234.083 102.129L236.14 100.847C237.031 100.289 237.782 100.337 238.393 100.99C239.004 101.643 239.278 102.364 239.214 103.154L239.174 103.181C239.121 103.839 238.556 104.568 237.481 105.367C235.923 106.538 233.659 107.314 230.69 107.696C228.562 107.991 226.373 107.325 224.123 105.699C221.888 104.071 220.583 101.902 220.207 99.1923C219.83 96.4683 220.458 94.0099 222.092 91.8171C223.742 89.6366 225.868 88.3878 228.471 88.0708C231.073 87.7538 233.45 88.3716 235.603 89.9243C237.756 91.477 239.029 93.6792 239.424 96.5309Z" fill="#FFBF2E"/>
</g>
<defs>
<clipPath id="clip0_2371_2218">
<rect width="281" height="117" fill="white"/>
</clipPath>
</defs>
</svg>
