<?xml version="1.0" encoding="UTF-8" standalone="no"?>
<svg
   width="277"
   height="86"
   viewBox="0 0 277 86"
   fill="none"
   version="1.1"
   id="svg9"
   sodipodi:docname="logo.svg"
   inkscape:version="1.3 (0e150ed6c4, 2023-07-21)"
   xmlns:inkscape="http://www.inkscape.org/namespaces/inkscape"
   xmlns:sodipodi="http://sodipodi.sourceforge.net/DTD/sodipodi-0.dtd"
   xmlns="http://www.w3.org/2000/svg"
   xmlns:svg="http://www.w3.org/2000/svg">
  <defs
     id="defs9" />
  <sodipodi:namedview
     id="namedview9"
     pagecolor="#ffffff"
     bordercolor="#000000"
     borderopacity="0.25"
     inkscape:showpageshadow="2"
     inkscape:pageopacity="0.0"
     inkscape:pagecheckerboard="0"
     inkscape:deskcolor="#d1d1d1"
     inkscape:zoom="3.3668207"
     inkscape:cx="130.24157"
     inkscape:cy="10.69258"
     inkscape:window-width="1920"
     inkscape:window-height="1080"
     inkscape:window-x="0"
     inkscape:window-y="0"
     inkscape:window-maximized="1"
     inkscape:current-layer="svg9" />
  <path
     d="m 113.16129,39.415954 c -1.476,-10.9467 6.202,-21.0172 17.148,-22.4932 l 60.547,-8.1637002 c 5.473,-0.7379 10.509,3.1008002 11.247,8.5741002 l 6.561,48.6642 c 0.738,5.4733 -3.101,10.5085 -8.574,11.2465 l -60.547,8.1637 c -10.947,1.476 -21.017,-6.2015 -22.493,-17.1482 z"
     fill="#3dc5ff"
     id="path1" />
  <path
     d="m 230.83429,0.42115379 8.317,74.63290021 -61.991,-22.1136 z"
     fill="#3dc5ff"
     id="path2" />
  <path
     d="m 11.884594,45.554854 c 0,0 0,0.9167 0,2.75 0,2.8889 0.7639,5.3473 2.2917,7.375 1.5278,2.0278 3.375,3.0139 5.5417,2.9584 1.2778,0.1389 2.5694,0.0139 3.875,-0.375 2.6389,-0.9167 3.9583,-2.9167 3.9583,-6 0,0 0,-4.6945 0,-14.0834 -0.5,-1.5833 -1.9444,-2.8194 -4.3333,-3.7083 -2.3889,-0.9167 -4.875,-0.7639 -7.4583,0.4583 -2.5834,1.1945 -3.8751,4.7361 -3.8751,10.625 z m -6.0833004,14.375 c -3.55555,-3.75 -5.33332999,-8.2777 -5.33332999,-13.5833 0,-5.3333 1.77777999,-9.875 5.33332999,-13.625 3.5556001,-3.75 7.8611004,-5.625 12.9167004,-5.625 4.25,0 7.1944,1.875 8.8333,5.625 0,-1.2222 0.4584,-2.2917 1.375,-3.2084 0.8056,-0.8055 1.8195,-1.2083 3.0417,-1.2083 h 3.2083 c 1.2223,0 2.2639,0.4028 3.125,1.2083 0.8612,0.9167 1.2917,1.9862 1.2917,3.2084 v 30.4167 c 0,0.7222 -0.25,1.3055 -0.75,1.75 -0.4722,0.4444 -1.0417,0.6666 -1.7083,0.6666 h -5 c -0.7223,0 -1.5556,-0.5 -2.5,-1.5 -0.9445,-1 -1.7917,-1.5555 -2.5417,-1.6666 -0.75,-0.1111 -1.4583,0.0555 -2.125,0.5 -2.75,1.7778 -4.8333,2.6666 -6.25,2.6666 -5.0556,0 -9.3611003,-1.875 -12.9167004,-5.625 z"
     fill="#fcba00"
     id="path3" />
  <path
     d="m 63.125194,62.760654 c 0.0079,5.8889 -1.4439,10.7103 -4.3556,14.4642 -3.4108,4.3102 -8.0337,5.8858 -13.8686,4.727 -0.5001,-0.0826 -1.1254,-0.304 -1.8759,-0.6641 -1.779,-0.8587 -2.6697,-2.2603 -2.6724,-4.2048 -0.0016,-1.25 0.3997,-2.32 1.2041,-3.2099 0.8321,-0.89 1.8315,-1.3358 2.9982,-1.3374 1.1666,-0.0016 2.2496,-0.2669 3.2489,-0.796 2.4429,-1.1422 3.6476,-3.8522 3.6141,-8.1299 l -0.0373,-27.6667 c -0.0021,-1.6111 0.5655,-2.9869 1.7028,-4.1273 1.0818,-1.1126 2.4422,-1.6699 4.0811,-1.6722 l 0.1667,-2e-4 c 1.6389,-0.0022 3.0007,0.5515 4.0855,1.6612 1.1127,1.1374 1.6701,2.5116 1.6723,4.1227 z m -1.8848,-38.2476 c -1.2205,1.3072 -2.7335,1.9621 -4.5391,1.9645 -1.7222,0.0023 -3.2231,-0.6346 -4.5025,-1.9106 -1.2795,-1.2761 -1.9205,-2.7891 -1.9228,-4.5391 -0.0024,-1.7778 0.6067,-3.2925 1.8272,-4.5441 1.2205,-1.2795 2.7474,-1.9204 4.5807,-1.9229 1.8056,-0.0024 3.3204,0.6344 4.5443,1.9106 1.2239,1.2761 1.8371,2.7892 1.8394,4.5392 -0.0255,1.6667 -0.6346,3.1675 -1.8272,4.5024 z"
     fill="#fcba00"
     id="path4" />
  <path
     d="m 111.37129,46.786654 c 0,0 0.028,5.0278 0.084,15.0833 0,1.5834 -0.584,2.9584 -1.75,4.125 -0.806,0.7778 -2.209,1.1528 -4.209,1.125 h -0.041 c -1.973,0 -3.348,-0.375 -4.125,-1.125 -1.167,-1.1111 -1.749999,-2.4861 -1.749999,-4.125 v -15.7916 c 0,-3.9723 -1.209,-6.5556 -3.624997,-7.75 -2.4448,-1.1945 -5.0698,-0.9445 -7.8753,0.75 -2.8056,1.6944 -4.1389,3.3888 -4,5.0833 v 17.7083 c 0,1.6389 -0.5556,3.0139 -1.6667,4.125 -0.7778,0.7778 -2.1528,1.1528 -4.125,1.125 0,0 -0.0695,0 -0.2083,0 -1.9723,0 -3.3473,-0.375 -4.125,-1.125 -1.1667,-1.1666 -1.75,-2.5416 -1.75,-4.125 v -29.625 c 0,-1.0833 0.4027,-2 1.2083,-2.75 0.8055,-0.75 1.6944,-1.125 2.6667,-1.125 h 4.3333 c 1.0833,0 1.9861,0.4028 2.7083,1.2083 0.7223,0.7778 1.0834,1.6389 1.0834,2.5834 v 0.0833 c 4,-2.3611 6.9722,-3.7083 8.9166,-4.0417 6.666697,-1.1388 11.777696,0.5834 15.333696,5.1667 1.916,2.5278 2.889,7 2.916,13.4167 z"
     fill="#fcba00"
     id="path5" />
  <path
     d="m 257.46829,32.991054 c 1.972,0 3.916,0.8472 5.833,2.5417 1.222,1.0833 2.069,2.8472 2.542,5.2916 h -18.25 c 0.916,-3.2222 2.277,-5.3333 4.083,-6.3333 1.806,-1 3.736,-1.5 5.792,-1.5 z m -18.459,11.75 v 0.0417 c 0,2.3333 1.111,3.5 3.334,3.5 h 23.208 c -0.806,2.5278 -1.625,4.1944 -2.458,5 -3.084,2.8333 -7.195,3.0972 -12.334,0.7917 l -4.291,-1.9167 c -1.861,-0.8333 -3.292,-0.5417 -4.292,0.875 -1,1.4167 -1.333,2.875 -1,4.375 l 0.083,0.0417 c 0.278,1.25 1.556,2.5 3.834,3.75 3.305,1.8333 7.861,2.7222 13.666,2.6666 4.167,0 8.195,-1.8611 12.084,-5.5833 3.861,-3.7222 5.791,-8.2361 5.791,-13.5417 0,-5.3333 -1.861,-9.8889 -5.583,-13.6667 -3.75,-3.75 -8.167,-5.5833 -13.25,-5.5 -5.083,0.0834 -9.486,1.9028 -13.208,5.4584 -3.723,3.5555 -5.584,8.125 -5.584,13.7083 z"
     fill="#ffbf2e"
     id="path6" />
  <path
     d="m 130.10229,66.079654 c -5.69,-1.1165 -10.977,-5.5358 -13.262,-11.0851 -1.121,-2.7247 -1.396,-4.3084 -1.374,-7.9183 0.017,-2.6852 0.109,-3.6368 0.485,-5.0227 0.966,-3.5643 2.682,-6.3909 5.527,-9.1081 2.953,-2.8205 6.1,-4.2923 10.14,-4.7425 4.666,-0.5199 7.89,0.8369 9.961,4.1914 l 0.795,1.289 0.122,-0.751 c 0.169,-1.0358 0.797,-2.0386 1.77,-2.825 l 0.821,-0.6639 h 3.273 3.273 l 0.822,0.6536 c 0.452,0.3594 1.038,1.0771 1.302,1.5948 l 0.481,0.9413 v 15.9951 c 0,17.3645 0.032,16.8808 -1.17,17.4285 -0.354,0.1613 -1.731,0.2554 -3.745,0.2554 h -3.185 l -1.306,-1.122 c -1.809,-1.5543 -2.922,-2.1344 -3.792,-1.9767 -0.382,0.0691 -1.492,0.6028 -2.468,1.1858 -2.482,1.4835 -3.831,1.9181 -5.862,1.8895 -0.914,-0.0113 -2.087,-0.107 -2.608,-0.2091 z m 9.065,-7.2306 c 1.448,-0.7132 2.257,-1.5861 2.835,-3.0599 0.305,-0.7788 0.368,-2.054 0.433,-8.7473 0.073,-7.5228 0.059,-7.8693 -0.356,-8.6826 -1.212,-2.3747 -5.341,-4.0641 -8.577,-3.5092 -4.003,0.6866 -5.819,2.6603 -6.613,7.1893 -0.354,2.0166 -0.284,8.9816 0.105,10.4956 0.48,1.8691 1.274,3.365 2.498,4.7041 1.796,1.9654 3.174,2.4876 6.226,2.3598 1.818,-0.0764 2.288,-0.1784 3.449,-0.7498 z"
     fill="#f7f7f7"
     id="path7" />
  <path
     d="m 159.10729,66.675854 c -0.294,-0.2313 -0.646,-0.6888 -0.782,-1.017 -0.183,-0.4424 -0.232,-6.7864 -0.189,-24.5328 l 0.058,-23.9361 0.593,-1.0085 c 0.619,-1.0535 1.889,-2.0626 3.126,-2.4842 1.032,-0.3519 3.647,-0.3065 4.749,0.082 1.102,0.3888 2.181,1.3653 2.825,2.5557 0.442,0.8185 0.465,1.1527 0.529,7.8546 0.036,3.8498 0.098,6.9997 0.136,6.9997 0.038,0 0.682,-0.2865 1.429,-0.6363 3.128,-1.4634 7.699,-2.0073 10.978,-1.3063 6.125,1.3093 11.58,6.3647 13.579,12.5839 2.26,7.034 0.623,14.409 -4.364,19.6592 -2.634,2.7728 -5.236,4.3332 -8.676,5.2032 -1.541,0.3896 -2.225,0.4403 -4.801,0.3553 -2.542,-0.0839 -3.268,-0.189 -4.715,-0.6808 -0.94,-0.3198 -2.111,-0.8154 -2.601,-1.1013 l -0.892,-0.5198 -0.246,0.7441 c -0.135,0.4093 -0.492,0.938 -0.793,1.175 -0.509,0.4004 -0.86,0.4308 -4.979,0.4308 -4.081,0 -4.472,-0.0342 -4.964,-0.4204 z m 21.371,-6.4129 c 1.304,-0.5666 3.051,-2.337 3.956,-4.0089 1.13,-2.0894 1.438,-3.9308 1.438,-8.6075 0,-4.8086 -0.337,-6.7038 -1.553,-8.7306 -0.834,-1.3886 -1.59,-2.0005 -3.367,-2.7223 -1.935,-0.7864 -3.847,-0.9 -5.696,-0.3383 -1.862,0.5656 -3.944,1.8992 -4.664,2.9879 l -0.555,0.8377 0.063,8.5247 0.063,8.5246 0.622,1.123 c 0.725,1.3079 1.724,2.1368 3.223,2.6742 1.54,0.552 4.907,0.4145 6.47,-0.2645 z"
     fill="#f7f7f7"
     id="path8" />
  <path
     d="m 211.95829,64.337354 c -4.763,-1.0328 -10.363,-5.6139 -12.79,-10.4614 -2.418,-4.8317 -2.483,-11.2451 -0.164,-16.2696 2.489,-5.3927 7.52,-9.5163 12.983,-10.6417 1.888,-0.3891 5.274,-0.4435 7.13,-0.1149 5.931,1.0505 11.086,4.8815 13.768,10.2315 1.593,3.1783 2.366,9.0516 1.402,10.6463 -0.828,1.3678 -0.531,1.3393 -13.881,1.3393 -9.535,0 -12.097,0.0566 -12.097,0.2671 0,0.35 0.761,2.345 1.29,3.3809 0.618,1.2121 1.85,2.3149 3.408,3.0511 1.133,0.535 1.73,0.671 3.269,0.7446 2.526,0.1206 4.141,-0.2944 8.376,-2.1525 3.679,-1.6141 4.66,-1.8631 5.678,-1.4414 1.168,0.4838 2.344,2.6478 2.344,4.3124 0,3.28 -5.222,6.3415 -12.289,7.2041 -2.592,0.3164 -6.744,0.2693 -8.427,-0.0958 z m 14.211,-23.125 c -0.287,-1.2031 -1.61,-3.6898 -2.446,-4.596 -2.193,-2.3794 -7.107,-3.4496 -10.13,-2.2064 -1.639,0.6741 -3.405,2.0636 -4.185,3.2933 -0.49,0.7721 -1.526,3.4973 -1.526,4.0125 0,0.0465 4.146,0.0843 9.213,0.0843 h 9.214 z"
     fill="#f7f7f7"
     id="path9" />
</svg>
