<?xml version="1.0" encoding="UTF-8" standalone="no"?>
<!-- Created with Inkscape (http://www.inkscape.org/) -->

<svg
   width="210mm"
   height="93mm"
   viewBox="0 0 210 93"
   version="1.1"
   id="svg1"
   sodipodi:docname="logo.svg"
   inkscape:version="1.3 (0e150ed6c4, 2023-07-21)"
   xmlns:inkscape="http://www.inkscape.org/namespaces/inkscape"
   xmlns:sodipodi="http://sodipodi.sourceforge.net/DTD/sodipodi-0.dtd"
   xmlns="http://www.w3.org/2000/svg"
   xmlns:svg="http://www.w3.org/2000/svg">
  <sodipodi:namedview
     id="namedview1"
     pagecolor="#ffffff"
     bordercolor="#000000"
     borderopacity="0.25"
     inkscape:showpageshadow="2"
     inkscape:pageopacity="0.0"
     inkscape:pagecheckerboard="0"
     inkscape:deskcolor="#d1d1d1"
     inkscape:document-units="mm"
     inkscape:zoom="0.51134961"
     inkscape:cx="826.24489"
     inkscape:cy="406.76671"
     inkscape:window-width="1920"
     inkscape:window-height="1080"
     inkscape:window-x="0"
     inkscape:window-y="0"
     inkscape:window-maximized="1"
     inkscape:current-layer="layer2"
     showguides="true">
    <sodipodi:guide
       position="-137.63403,-167.81531"
       orientation="1,0"
       id="guide1"
       inkscape:locked="false" />
  </sodipodi:namedview>
  <defs
     id="defs1" />
  <g
     inkscape:label="Layer 1"
     inkscape:groupmode="layer"
     id="layer1">
    <path
       stroke="#000000"
       stroke-width="1.12525"
       stroke-linejoin="round"
       stroke-linecap="butt"
       d="m 5.4213408,17.918223 v 0 c 0,-6.41688 5.2018952,-11.6187599 11.6187532,-11.6187599 h 21.592464 v 0 H 88.449383 193.06988 c 3.08151,0 6.03677,1.22412 8.2157,3.40306 2.17895,2.1789299 3.40306,5.1341999 3.40306,8.2156999 v 29.04689 0 17.42813 0 c 0,6.41689 -5.20188,11.61877 -11.61876,11.61877 H 88.449383 l -50.806525,14.29733 0.9897,-14.29733 H 17.040094 c -6.416858,0 -11.6187532,-5.20188 -11.6187532,-11.61877 v 0 -17.42813 0 z"
       fill-rule="evenodd"
       id="path4"
       style="fill:#ffffff;fill-opacity:1" />
  </g>
  <g
     inkscape:groupmode="layer"
     id="layer2"
     inkscape:label="Layer 2">
    <path
       fill="#ff9900"
       d="m 82.560661,53.150213 6.197686,-30.98842 h 6.048235 l 6.197688,30.98842 h -5.24825 l -1.221961,-7.15591 h -5.388908 l -1.265912,7.15591 z m 7.155915,-10.75145 h 4.210908 l -2.109849,-13.01074 z m 14.116184,17.02826 q -0.68569,0 -1.41535,-0.1142 -0.72965,-0.11441 -1.33623,-0.30769 v -3.70981 q 0.26373,0.0351 0.57142,0.0703 0.30768,0.044 0.53625,0.044 0.6857,0 1.12525,-0.27252 0.43955,-0.26373 0.65053,-0.76481 0.211,-0.49229 0.211,-1.22197 v -22.10945 h 5.16913 v 22.72482 q 0,2.60216 -1.44174,4.13181 -1.43295,1.52963 -4.07025,1.52963 z m 0.3077,-31.91148 v -4.3252 h 5.23945 v 4.3252 z m 9.17783,25.63467 v -22.10946 h 5.20431 v 2.21535 q 1.18677,-1.15164 2.50544,-1.8549 1.31866,-0.71211 2.84829,-0.71211 1.3802,0 2.1802,0.67693 0.80875,0.66811 1.18678,1.77579 0.38681,1.10767 0.38681,2.40875 v 17.59965 h -5.2043 v -16.56232 q 0,-1.00219 -0.30769,-1.52965 -0.30768,-0.53626 -1.18678,-0.53626 -0.53625,0 -1.16922,0.30771 -0.62416,0.29889 -1.23953,0.75601 v 17.56451 z m 21.80928,0.34284 q -1.49449,0 -2.58456,-0.78238 -1.09009,-0.78242 -1.66152,-1.98678 -0.57142,-1.20438 -0.57142,-2.50544 0,-2.0659 0.76483,-3.48126 0.76482,-1.41537 2.03952,-2.37357 1.2835,-0.95822 2.87467,-1.66151 1.59118,-0.71209 3.27027,-1.28349 v -1.91647 q 0,-0.95822 -0.13185,-1.60874 -0.13183,-0.65055 -0.51866,-0.99341 -0.37802,-0.34284 -1.10768,-0.34284 -0.68569,0 -1.09009,0.30767 -0.40439,0.30771 -0.5802,0.86155 -0.16693,0.55383 -0.16693,1.27471 l -0.0791,1.345 -4.96694,-0.1933 q 0.14948,-3.82408 1.90767,-5.64384 1.75819,-1.81974 5.39768,-1.81974 3.32302,0 4.85266,1.83733 1.53843,1.83733 1.53843,4.97572 v 10.21519 q 0,1.22196 0.0527,2.22413 0.0615,0.99341 0.1495,1.79338 0.0967,0.79997 0.17584,1.41535 h -4.70319 q -0.11419,-0.7648 -0.27251,-1.7406 -0.14949,-0.97583 -0.22857,-1.43296 -0.37802,1.33624 -1.45052,2.42632 -1.07251,1.09009 -2.90984,1.09009 z m 1.91643,-3.85925 q 0.49231,0 0.91427,-0.24616 0.42198,-0.25494 0.76484,-0.59778 0.34284,-0.34286 0.53625,-0.61538 v -6.15374 q -0.87911,0.4923 -1.62634,0.99341 -0.74725,0.49229 -1.28349,1.09008 -0.53626,0.589 -0.84394,1.28349 -0.2989,0.6857 -0.2989,1.59998 0,1.23075 0.47472,1.94281 0.48349,0.70329 1.36259,0.70329 z m 20.58094,3.85925 q -1.22195,0 -2.29448,-0.5714 -1.07251,-0.57141 -1.98678,-1.41537 v 1.64393 h -5.20431 v -30.98842 h 5.20431 v 10.55804 q 0.94945,-0.91428 2.07469,-1.46809 1.13404,-0.56265 2.43511,-0.56265 1.49449,0 2.44393,0.69452 0.95822,0.68569 1.49447,1.81974 0.53626,1.12526 0.74725,2.40873 0.21094,1.2747 0.21094,2.46148 v 7.49878 q 0,2.18018 -0.51868,3.98234 -0.50989,1.79337 -1.64393,2.86587 -1.12524,1.0725 -2.96257,1.0725 z m -1.98678,-3.6307 q 0.83515,0 1.23953,-0.55381 0.40439,-0.55384 0.53625,-1.49448 0.13184,-0.94067 0.13184,-2.04831 v -7.92074 q 0,-1.02854 -0.1582,-1.84611 -0.14949,-0.82636 -0.55384,-1.32746 -0.3956,-0.50108 -1.23954,-0.50108 -0.60659,0 -1.1868,0.29009 -0.57141,0.29011 -1.06372,0.63296 v 13.96017 q 0.49231,0.35165 1.08131,0.58022 0.5978,0.22855 1.21317,0.22855 z m 17.40543,3.6307 q -2.48787,0 -4.06145,-0.93183 -1.56483,-0.94064 -2.31206,-2.76039 -0.74724,-1.81976 -0.74724,-4.37794 v -6.65482 q 0,-2.64611 0.74724,-4.43946 0.74723,-1.80219 2.32962,-2.71644 1.59119,-0.92308 4.04389,-0.92308 2.6373,0 4.10542,1.00219 1.47689,0.99341 2.10986,2.89224 0.63293,1.89009 0.63293,4.60652 v 3.1296 h -8.79983 v 4.36917 q 0,1.06371 0.21095,1.75819 0.21094,0.6857 0.66813,0.9934 0.45713,0.30768 1.10766,0.30768 0.6945,0 1.10767,-0.32526 0.42197,-0.32527 0.61538,-0.95823 0.19329,-0.63297 0.19329,-1.5912 v -1.83731 h 4.86146 v 1.49449 q 0,3.36695 -1.68788,5.16912 -1.6791,1.79336 -5.12518,1.79336 z m -1.95162,-13.73159 h 3.90324 v -2.10984 q 0,-1.14286 -0.1933,-1.84613 -0.19351,-0.71208 -0.61539,-1.03735 -0.41317,-0.32525 -1.17799,-0.32525 -0.69449,0 -1.11645,0.34284 -0.42198,0.34285 -0.61538,1.15163 -0.18458,0.79997 -0.18458,2.29446 z m 19.01496,13.73159 q -2.48786,0 -4.06145,-0.93183 -1.56481,-0.94064 -2.31205,-2.76039 -0.74723,-1.81976 -0.74723,-4.37794 v -6.65482 q 0,-2.64611 0.74723,-4.43946 0.74724,-1.80219 2.32963,-2.71644 1.59117,-0.92308 4.04387,-0.92308 2.63733,0 4.10541,1.00219 1.47689,0.99341 2.10986,2.89224 0.63297,1.89009 0.63297,4.60652 v 3.1296 h -8.79985 v 4.36917 q 0,1.06371 0.21094,1.75819 0.21097,0.6857 0.66812,0.9934 0.45713,0.30768 1.10768,0.30768 0.69449,0 1.10768,-0.32526 0.42194,-0.32527 0.61537,-0.95823 0.19351,-0.63297 0.19351,-1.5912 v -1.83731 h 4.86143 v 1.49449 q 0,3.36695 -1.68787,5.16912 -1.67908,1.79336 -5.12518,1.79336 z m -1.95161,-13.73159 h 3.90324 v -2.10984 q 0,-1.14286 -0.1935,-1.84613 -0.19352,-0.71208 -0.6154,-1.03735 -0.41319,-0.32525 -1.17798,-0.32525 -0.6945,0 -1.11648,0.34284 -0.42198,0.34285 -0.61537,1.15163 -0.18459,0.79997 -0.18459,2.29446 z"
       fill-rule="nonzero"
       id="path10"
       style="stroke-width:0.562626" />
    <path
       stroke="#000000"
       stroke-width="1.12525"
       stroke-linejoin="round"
       stroke-linecap="butt"
       d="m 15.64214,28.459103 v 0 c 0,-2.68489 2.176522,-4.86141 4.861426,-4.86141 h 30.98118 c 1.289331,0 2.525858,0.51218 3.437556,1.42388 0.911699,0.91168 1.423878,2.14822 1.423878,3.43753 v 19.44513 c 0,2.68489 -2.176539,4.86142 -4.861434,4.86142 h -30.98118 c -2.684904,0 -4.861426,-2.17653 -4.861426,-4.86142 z"
       fill-rule="evenodd"
       id="path6"
       style="fill:#ffffff;fill-opacity:1" />
    <path
       stroke="#000000"
       stroke-width="1.12525"
       stroke-linejoin="round"
       stroke-linecap="butt"
       d="m 70.137714,47.787403 -13.627101,-3.40677 v -11.59809 l 13.627101,-3.40676 z"
       fill-rule="evenodd"
       id="path8"
       style="fill:#4285f4;fill-opacity:0.862168" />
  </g>
</svg>
