<?xml version="1.0" standalone="no"?>
<!DOCTYPE svg PUBLIC "-//W3C//DTD SVG 20010904//EN"
 "http://www.w3.org/TR/2001/REC-SVG-20010904/DTD/svg10.dtd">
<svg version="1.0" xmlns="http://www.w3.org/2000/svg"
 width="1080.000000pt" height="1080.000000pt" viewBox="0 0 1080.000000 1080.000000"
 preserveAspectRatio="xMidYMid meet">
<metadata>
Created by potrace 1.14, written by Peter Selinger 2001-2017
</metadata>
<g transform="translate(0.000000,1080.000000) scale(0.100000,-0.100000)"
fill="#000000" stroke="none">
<path d="M9625 8629 c12 -18 -6 -31 -23 -17 -15 11 -15 11 -5 -3 7 -9 10 -18
7 -22 -9 -8 32 -27 41 -19 5 4 5 1 1 -6 -5 -7 -11 -11 -14 -8 -3 3 -14 -2 -25
-11 -10 -10 -21 -17 -23 -15 -10 6 -25 1 -20 -7 3 -5 -1 -14 -10 -21 -8 -7
-13 -19 -10 -27 8 -21 -2 -15 -15 8 -9 17 -8 20 3 14 11 -7 11 -6 0 6 -11 12
-15 11 -23 -4 -6 -9 -14 -15 -20 -12 -5 4 -5 -6 1 -22 l10 -28 -20 25 -20 25
9 -27 c12 -31 -2 -47 -41 -50 -23 -2 -25 -5 -17 -26 7 -17 6 -21 -3 -16 -8 5
-9 2 -4 -12 4 -10 4 -15 0 -11 -4 4 -13 2 -20 -4 -8 -6 -20 -9 -28 -6 -19 7
-50 -28 -40 -45 6 -10 5 -11 -7 -1 -12 9 -14 6 -14 -20 0 -28 -3 -32 -30 -34
-20 -1 -25 1 -16 6 8 5 21 7 30 4 13 -4 13 -3 2 5 -8 6 -21 8 -29 4 -11 -4
-13 -1 -7 9 5 8 5 11 -1 6 -5 -5 -10 -13 -10 -18 -1 -5 -2 -14 -3 -20 0 -5 -7
-7 -13 -4 -7 4 -2 -4 12 -16 16 -14 19 -20 8 -16 -12 4 -15 2 -11 -9 3 -7 0
-14 -7 -14 -6 0 -8 5 -5 10 3 6 1 10 -5 10 -6 0 -8 5 -4 12 4 6 3 8 -4 5 -12
-8 -11 -25 2 -46 6 -9 5 -12 -2 -7 -6 3 -15 -2 -21 -11 -6 -10 -11 -12 -11 -5
0 10 -4 10 -20 0 -10 -7 -17 -14 -15 -17 10 -10 -31 -29 -54 -24 -14 2 -23 3
-21 1 3 -2 14 -10 24 -18 13 -10 17 -11 12 -2 -4 7 -4 12 1 11 4 -1 10 0 13 1
19 7 39 7 34 -1 -3 -5 -9 -7 -14 -4 -5 3 -16 -5 -24 -17 -9 -12 -16 -17 -16
-10 0 10 -4 10 -19 0 -11 -7 -17 -16 -15 -20 5 -7 -11 -12 -29 -9 -5 1 -6 -3
-3 -8 4 -5 15 -8 25 -6 19 4 23 -17 6 -32 -4 -4 -5 -3 -1 4 13 22 -13 23 -30
1 -10 -15 -14 -17 -11 -6 4 10 2 20 -3 23 -5 3 -7 14 -5 25 2 12 0 18 -4 15
-5 -3 -7 -20 -4 -39 4 -28 1 -34 -17 -39 -12 -3 -19 -10 -15 -16 3 -6 -1 -11
-9 -11 -9 0 -16 -4 -16 -9 0 -4 -11 -7 -25 -6 -14 2 -27 -1 -30 -5 -3 -5 6 -7
19 -4 19 3 28 -2 36 -18 10 -21 10 -22 -3 -5 -9 11 -18 14 -21 8 -4 -5 -2 -12
3 -16 10 -5 7 -43 -4 -54 -4 -3 -4 7 -1 22 5 30 -8 44 -27 29 -7 -6 -16 -10
-20 -10 -5 0 -12 -4 -15 -8 -4 -4 -2 -4 4 -1 7 4 15 0 18 -9 4 -10 2 -13 -6
-8 -7 5 -9 2 -5 -9 4 -11 2 -14 -8 -10 -8 3 -13 9 -10 13 3 5 1 12 -5 15 -6 4
-10 3 -9 -2 4 -21 -2 -34 -13 -27 -6 4 -8 3 -4 -4 7 -12 -33 -44 -46 -36 -5 3
-7 0 -6 -8 2 -7 -4 -12 -12 -10 -12 3 -13 1 -2 -10 8 -8 15 -9 20 -3 4 6 14
15 22 22 13 10 16 8 17 -10 2 -14 -1 -17 -6 -9 -6 10 -10 10 -20 -2 -9 -11 -9
-15 1 -18 8 -3 6 -7 -6 -11 -9 -4 -15 -3 -12 2 3 5 -3 11 -15 14 -16 4 -18 3
-9 -8 9 -10 9 -19 0 -32 -10 -16 -11 -16 -6 -1 3 10 1 20 -5 23 -5 4 -9 3 -8
-2 3 -19 -2 -25 -15 -14 -11 9 -13 5 -10 -24 2 -35 2 -35 -15 -13 -13 15 -20
18 -25 9 -4 -7 -2 -10 4 -9 15 4 22 -29 9 -38 -5 -3 -7 -10 -4 -15 4 -5 1 -9
-5 -9 -7 0 -10 6 -7 14 3 8 -2 16 -14 19 -14 4 -18 2 -11 -6 11 -16 10 -37 -3
-36 -5 0 -9 7 -7 15 2 8 -1 14 -6 14 -12 0 -12 -32 0 -47 7 -8 3 -10 -11 -6
-13 3 -18 11 -14 21 4 15 3 15 -6 2 -8 -12 -6 -19 9 -31 17 -15 17 -18 4 -23
-8 -3 -13 -2 -10 3 6 10 -24 25 -32 16 -3 -3 -1 -5 5 -5 20 0 9 -32 -16 -48
-14 -9 -30 -22 -34 -29 -4 -7 -13 -13 -19 -13 -9 0 -9 3 0 12 7 7 12 17 12 23
0 5 -5 2 -11 -8 -6 -9 -14 -15 -19 -12 -5 3 -12 0 -16 -6 -4 -7 -3 -9 3 -6 6
4 13 0 16 -7 4 -10 0 -14 -13 -11 -23 4 -36 -10 -19 -21 8 -5 9 -3 4 7 -8 12
-6 12 8 0 9 -7 17 -19 16 -25 0 -7 -2 -6 -6 2 -2 6 -9 9 -14 6 -7 -4 -6 -10 0
-17 7 -9 -1 -12 -30 -13 -29 -1 -39 3 -35 12 3 7 1 16 -3 18 -5 3 -8 -7 -7
-22 0 -17 -4 -26 -13 -24 -7 1 -10 -2 -6 -8 3 -5 -1 -13 -9 -16 -11 -4 -14
-15 -12 -30 3 -14 1 -22 -4 -19 -5 3 -11 1 -15 -5 -3 -5 -1 -10 6 -10 7 0 10
-3 6 -6 -3 -3 -11 -3 -17 1 -8 5 -6 12 5 25 11 12 13 20 6 25 -6 3 -12 4 -12
1 -3 -14 -7 -27 -9 -33 -4 -12 -8 -26 -9 -40 0 -7 -6 -13 -12 -13 -8 0 -8 4 0
13 8 10 7 14 -4 14 -8 0 -12 -3 -10 -7 8 -12 -12 -31 -39 -36 -20 -3 -25 -1
-20 7 5 8 3 9 -5 4 -9 -5 -9 -11 -3 -17 6 -6 8 -17 5 -25 -5 -12 -7 -12 -14
-1 -6 9 -8 6 -7 -8 2 -15 7 -20 19 -17 10 3 15 11 12 19 -3 8 0 14 7 14 6 0 8
5 4 12 -4 7 -3 8 5 4 8 -6 9 -12 2 -20 -6 -7 -8 -16 -4 -20 4 -4 -3 -9 -15
-13 -12 -3 -19 -10 -16 -17 3 -6 -3 -1 -14 12 -26 28 -27 28 -42 -8 -11 -26
-15 -29 -29 -18 -14 11 -14 11 -3 -3 10 -13 9 -23 -3 -50 -9 -23 -14 -28 -15
-15 0 20 0 20 -15 0 -13 -18 -14 -18 -9 6 4 22 3 22 -5 5 -6 -14 -4 -26 7 -40
10 -12 11 -15 2 -7 -19 17 -35 15 -21 -2 17 -20 -3 -30 -30 -15 -17 9 -20 8
-14 -2 6 -9 2 -11 -12 -7 -12 3 -20 0 -20 -8 0 -17 3 -17 27 -4 13 7 21 7 25
0 4 -6 3 -10 -2 -9 -4 1 -15 1 -23 0 -13 -1 -13 -2 0 -12 12 -8 10 -10 -10 -5
-30 6 -70 -18 -45 -27 25 -10 6 -35 -25 -33 -26 2 -29 -1 -24 -21 4 -14 2 -23
-6 -23 -6 0 -8 5 -4 12 4 6 3 8 -4 4 -5 -3 -13 0 -15 6 -4 9 -6 9 -6 1 -1 -6
6 -18 14 -27 14 -13 13 -15 -4 -13 -11 0 -18 4 -15 8 2 4 -1 11 -7 15 -7 4 -9
3 -5 -4 3 -6 2 -13 -4 -17 -9 -6 -14 8 -11 28 1 5 -3 6 -9 2 -7 -4 -7 -12 0
-26 6 -11 15 -17 21 -14 5 4 9 1 9 -4 0 -15 -23 -14 -40 2 -8 6 -6 2 4 -10 12
-14 15 -23 7 -23 -7 0 -10 -4 -7 -9 3 -5 -1 -11 -9 -15 -8 -3 -17 0 -21 6 -4
6 -3 8 3 5 6 -4 13 0 17 8 3 8 0 17 -7 21 -7 4 -9 4 -5 -1 4 -4 -3 -16 -15
-27 -12 -11 -16 -17 -9 -13 6 3 12 2 12 -3 0 -6 -8 -13 -17 -17 -17 -7 -16 -8
2 -15 16 -7 16 -9 3 -9 -9 -1 -25 -16 -37 -33 -11 -18 -21 -27 -21 -20 0 18 4
27 12 25 3 -1 9 4 11 12 4 9 -1 13 -13 12 -10 -1 -18 -6 -17 -12 1 -5 -6 -9
-15 -9 -10 1 -16 -2 -15 -6 2 -9 -42 -50 -55 -50 -4 0 -8 -7 -8 -17 0 -22 -13
-8 -17 18 -2 13 1 18 9 13 7 -5 8 -3 3 6 -6 10 -11 10 -20 -3 -7 -9 -15 -14
-19 -10 -3 3 0 13 8 22 9 11 11 23 5 36 l-9 20 3 -20 c2 -24 -16 -33 -19 -9
-4 23 -21 39 -21 19 0 -8 5 -15 10 -15 6 0 7 -3 4 -6 -4 -4 -13 -1 -22 6 -12
10 -13 16 -3 27 9 11 9 16 -2 23 -8 5 -19 6 -25 3 -5 -4 0 5 12 18 16 17 19
29 13 39 -13 20 -12 30 1 30 5 0 8 -4 5 -8 -3 -5 2 -9 11 -9 14 0 13 3 -3 16
-23 19 -53 57 -39 49 6 -3 18 4 27 16 13 18 13 23 3 23 -8 0 -11 -5 -8 -11 4
-6 -3 -2 -15 8 -25 21 -31 36 -7 16 13 -11 15 -4 15 54 0 42 4 65 10 61 6 -3
10 -1 10 4 0 6 -4 11 -9 11 -14 0 -32 -26 -23 -35 4 -5 1 -5 -6 -1 -9 6 -10
11 -3 20 6 7 8 15 5 19 -3 3 4 8 15 12 12 3 21 11 21 18 0 8 -3 8 -12 -1 -16
-16 -39 -15 -36 1 2 6 -3 11 -11 9 -12 -3 -12 -1 0 14 12 16 12 17 -3 12 -11
-5 -15 -2 -13 10 1 9 -2 23 -8 30 -6 8 -6 12 2 12 10 0 15 -13 12 -32 0 -5 6
-8 15 -8 10 0 14 -5 10 -16 -4 -10 -2 -13 6 -8 7 4 8 3 4 -4 -4 -7 -2 -12 3
-12 6 0 11 5 11 11 0 5 5 7 12 3 7 -4 8 -3 4 5 -4 6 -12 9 -17 6 -5 -4 -9 -2
-9 4 0 5 5 13 10 16 6 3 10 12 10 18 0 8 -3 8 -8 2 -10 -14 -32 -17 -32 -5 0
6 7 13 16 17 13 5 13 7 2 14 -7 5 -17 9 -23 9 -5 0 -3 -5 5 -10 23 -15 6 -12
-26 5 -21 11 -24 15 -11 15 10 0 16 4 12 9 -3 5 -1 12 4 16 6 3 8 -4 6 -15 -2
-11 0 -18 6 -15 5 4 7 11 4 16 -4 5 2 9 12 10 14 0 15 2 3 7 -8 4 -16 15 -18
26 -2 10 1 16 5 13 5 -3 9 5 9 19 0 13 -4 24 -8 24 -4 0 -8 -5 -8 -11 0 -5 -5
-7 -10 -4 -8 5 -8 11 -1 19 6 7 7 16 3 20 -10 11 -9 30 3 39 5 5 0 5 -12 2
-21 -6 -28 2 -24 28 0 4 -4 7 -11 7 -6 0 -8 3 -5 7 4 3 0 17 -8 30 -15 23 -15
23 3 12 10 -6 19 -18 20 -25 1 -8 3 -21 4 -29 1 -8 5 -15 10 -15 14 0 4 49
-14 69 -9 11 -23 23 -33 28 -9 5 -18 18 -19 29 -2 10 -10 18 -17 16 -8 -2 -3
9 11 24 14 15 19 24 13 20 -16 -9 -17 6 -2 21 10 10 0 12 -29 4 -1 -1 2 -11 8
-23 11 -22 10 -22 -4 -4 -11 13 -16 15 -16 6 0 -7 -3 -11 -6 -8 -3 3 0 15 7
26 17 28 -6 78 -28 61 -10 -9 -13 -8 -15 2 0 8 -2 19 -2 24 -1 6 -5 16 -10 23
-4 7 -2 20 6 30 12 15 11 16 -4 3 -14 -10 -18 -11 -18 -1 0 9 -7 7 -22 -6
l-22 -19 18 30 c19 29 19 30 0 14 -20 -17 -49 -15 -38 3 4 6 9 6 14 -2 5 -8 7
-4 7 12 -1 14 -7 24 -12 21 -11 -4 -57 42 -49 49 2 3 -3 5 -11 5 -8 0 -11 -5
-8 -10 4 -7 -1 -8 -12 -3 -15 5 -16 4 -5 -9 10 -11 15 -13 20 -4 5 7 10 8 14
1 3 -6 3 -12 -1 -15 -5 -2 -1 -2 7 0 12 3 12 2 3 -8 -10 -10 -16 -9 -31 4 -10
9 -21 15 -23 12 -3 -2 -6 7 -7 21 -1 14 2 23 7 20 11 -7 8 21 -4 31 -4 4 -5 3
-2 -3 4 -7 0 -17 -8 -24 -8 -7 -13 -16 -10 -19 2 -4 -2 -8 -10 -8 -8 0 -15 4
-15 9 0 4 4 8 9 8 5 0 14 14 20 30 12 36 5 41 -9 5 -6 -16 -15 -23 -25 -19 -8
3 -12 11 -9 16 4 6 10 5 16 -3 8 -11 9 -11 5 1 -5 17 -37 14 -50 -3 -6 -8 -7
-5 -3 6 5 15 2 17 -14 12 -12 -4 -20 -2 -20 5 0 6 4 8 10 5 6 -3 7 1 3 10 -5
13 -7 14 -14 3 -8 -12 -13 -4 -10 16 1 5 -4 4 -13 -3 -15 -13 -28 -2 -33 28
-3 22 -20 34 -28 20 -5 -7 -4 -10 2 -6 6 4 14 0 17 -8 7 -19 -22 -17 -42 3 -8
7 -18 10 -23 6 -6 -3 -15 -2 -22 3 -16 13 -57 10 -84 -5 -13 -7 -23 -10 -23
-6 0 3 -8 0 -17 -7 -16 -11 -16 -11 -5 1 7 8 17 15 22 15 14 0 7 19 -8 21 -6
1 -9 -3 -5 -9 4 -6 0 -8 -9 -5 -8 4 -21 2 -29 -4 -11 -8 -9 -8 6 -4 19 6 19 6
1 -9 -22 -17 -38 -11 -29 10 4 11 1 13 -11 9 -9 -3 -14 -10 -11 -14 3 -5 0
-12 -6 -16 -8 -4 -9 -3 -5 4 7 12 1 14 -42 16 -12 1 -26 7 -30 13 -6 9 -14 3
-26 -18 -13 -22 -21 -28 -29 -20 -13 13 -31 15 -23 3 2 -4 -4 -9 -15 -10 -45
-4 -50 -6 -45 -19 4 -10 1 -11 -13 -4 -12 7 -22 6 -29 -1 -9 -9 -16 -7 -30 5
-11 10 -26 14 -40 10 -22 -5 -22 -6 -5 -27 12 -14 13 -17 2 -9 -12 10 -18 10
-29 0 -12 -10 -12 -9 -1 6 10 12 10 17 2 17 -7 0 -9 5 -6 10 3 6 1 10 -5 10
-7 0 -10 -6 -7 -14 3 -8 -1 -22 -9 -33 -14 -17 -14 -16 -4 5 7 14 7 22 1 22
-6 0 -8 8 -5 18 5 13 4 14 -4 3 -6 -8 -8 -20 -5 -28 3 -9 0 -11 -10 -7 -9 3
-14 14 -12 24 3 13 -1 17 -12 13 -11 -4 -11 -8 -3 -13 16 -10 1 -18 -27 -15
-14 1 -19 -3 -16 -12 3 -7 10 -10 17 -6 17 11 35 12 41 3 3 -5 -3 -7 -15 -5
-11 2 -22 -1 -26 -6 -4 -6 -11 -6 -19 1 -10 8 -16 7 -24 -7 -6 -10 -11 -13
-11 -7 0 5 5 15 12 22 9 9 9 12 -1 12 -11 0 -11 3 0 18 12 15 12 16 -2 5 -9
-7 -20 -9 -25 -5 -4 4 -3 0 4 -10 9 -11 10 -18 2 -23 -5 -3 -10 -2 -10 2 0 5
-9 14 -20 21 -15 9 -19 9 -18 0 4 -15 -22 -18 -42 -4 -10 8 -9 1 4 -19 15 -23
16 -27 3 -17 -9 8 -22 10 -28 6 -7 -4 -9 -3 -6 3 3 5 -1 10 -9 10 -8 0 -13 -6
-10 -12 2 -6 -2 -12 -10 -12 -10 0 -12 7 -8 21 6 19 6 19 -10 3 -23 -22 -32
-22 -15 1 7 9 9 14 4 9 -4 -4 -18 1 -29 10 l-21 18 20 -24 c11 -13 19 -26 18
-30 -1 -3 8 -12 20 -19 22 -13 11 -12 -27 4 -15 6 -17 4 -11 -6 5 -8 4 -11 -3
-6 -6 3 -9 15 -7 26 2 12 0 18 -6 15 -5 -4 -9 0 -9 7 0 9 -3 9 -10 -2 -5 -8
-10 -19 -10 -25 0 -5 4 -4 9 4 6 9 11 10 15 2 4 -6 2 -11 -4 -11 -6 0 -8 -5
-4 -12 5 -9 2 -9 -9 1 -14 11 -20 11 -32 1 -12 -10 -13 -16 -3 -29 12 -14 11
-14 -4 -2 -10 7 -15 17 -12 22 3 5 -2 9 -11 9 -9 0 -13 -4 -10 -10 4 -6 -1 -7
-11 -3 -12 4 -15 3 -10 -5 4 -7 2 -12 -3 -12 -6 0 -11 4 -11 9 0 5 -11 8 -25
5 -20 -3 -23 -1 -18 12 4 12 3 15 -5 10 -13 -8 -16 -32 -4 -39 4 -2 1 -2 -7 0
-8 2 -11 -2 -7 -12 8 -22 -2 -18 -15 6 -6 12 -7 19 -2 16 5 -4 10 -1 10 6 0 7
4 21 7 32 4 11 0 7 -9 -8 -14 -24 -21 -28 -43 -23 -26 5 -26 5 -4 -6 12 -6 22
-16 22 -21 0 -6 -3 -7 -7 -4 -3 4 -13 1 -22 -6 -14 -10 -14 -10 -3 4 11 14 9
17 -10 22 -13 2 -31 8 -40 12 -13 5 -18 2 -18 -10 0 -12 5 -15 19 -10 11 3 22
2 25 -3 3 -5 -19 -9 -49 -9 -43 0 -52 3 -44 13 7 8 6 14 -2 20 -8 4 -9 3 -5
-4 4 -7 1 -12 -9 -12 -12 0 -15 -6 -10 -22 4 -16 4 -19 -3 -9 -6 7 -15 10 -22
6 -7 -4 -4 5 5 21 10 17 11 22 2 12 -17 -21 -24 -22 -30 -5 -2 6 -2 1 0 -13 3
-21 1 -23 -9 -10 -7 8 -19 16 -27 18 -12 3 -12 0 -2 -12 8 -10 9 -16 1 -21 -6
-3 -7 -11 -4 -17 4 -7 2 -8 -5 -4 -9 6 -9 11 -1 21 8 9 6 14 -6 19 -23 9 -31
7 -14 -4 9 -6 10 -10 3 -10 -7 0 -17 8 -22 18 -6 9 -11 12 -11 5 0 -6 -11 -10
-25 -9 -13 2 -22 -1 -19 -5 3 -5 -2 -9 -10 -9 -8 0 -18 -5 -22 -12 -5 -8 -2
-9 9 -5 9 3 19 1 23 -6 4 -7 4 -9 -1 -5 -4 4 -22 0 -39 -8 -24 -11 -27 -12
-14 -1 10 8 15 17 11 21 -3 3 -15 -1 -25 -11 -10 -9 -18 -12 -18 -7 0 5 -5 2
-10 -6 -8 -13 -11 -13 -27 2 -16 17 -16 17 5 13 22 -4 30 9 12 20 -5 3 -10 1
-10 -5 0 -6 -4 -9 -9 -5 -5 3 -12 1 -16 -5 -4 -6 -11 -8 -16 -4 -6 3 -3 12 8
20 17 13 17 14 -1 7 -14 -5 -17 -3 -11 7 5 8 4 11 -3 7 -5 -4 -9 -13 -8 -20 3
-21 17 -38 27 -32 5 4 9 1 9 -4 0 -14 -3 -14 -34 0 -14 7 -24 15 -21 18 2 4
-5 7 -15 7 -10 0 -16 -6 -13 -13 3 -7 8 -11 11 -10 8 2 12 -7 12 -25 0 -7 -5
-5 -11 5 -8 13 -15 15 -28 7 -10 -5 -22 -6 -26 -2 -5 4 -5 -1 -2 -11 4 -11 3
-16 -4 -12 -6 4 -8 12 -6 19 3 6 -4 12 -14 12 -14 0 -16 -3 -6 -15 10 -12 9
-13 -11 -2 -12 7 -20 17 -16 23 4 7 3 8 -4 4 -7 -4 -12 -2 -12 5 0 7 -3 9 -7
6 -4 -4 4 -22 17 -40 18 -25 19 -29 4 -16 -23 19 -42 19 -54 -1 -5 -8 -10 -10
-10 -4 0 16 25 35 35 26 5 -4 5 -1 1 6 -4 7 -12 9 -18 6 -6 -4 -15 0 -20 7 -8
11 -9 10 -4 -3 3 -10 1 -18 -5 -18 -6 0 -7 -5 -3 -12 4 -7 3 -8 -5 -4 -6 4 -9
11 -6 16 3 4 -3 14 -13 21 -16 13 -16 12 -3 -4 14 -17 13 -18 -5 -15 -10 1
-25 10 -32 18 -11 13 -11 12 -3 -7 15 -30 13 -42 -3 -20 -14 18 -14 17 -21 -2
-7 -23 -13 -25 -35 -11 -10 6 -11 10 -2 10 6 0 12 5 12 11 0 5 -4 8 -9 4 -5
-3 -11 0 -14 7 -2 7 -3 5 -2 -4 4 -22 -19 -53 -33 -44 -5 3 -12 0 -15 -6 -3
-7 -4 -3 -4 10 1 21 17 33 17 12 0 -20 16 -9 17 12 1 13 -1 18 -5 13 -4 -6
-16 -10 -28 -9 -16 1 -20 -4 -18 -22 1 -13 -2 -24 -7 -24 -6 0 -9 6 -8 13 4
33 -1 41 -16 21 -14 -19 -14 -19 -15 1 -1 19 -1 19 -11 2 -8 -14 -14 -16 -25
-6 -10 8 -14 8 -14 0 0 -6 5 -11 11 -11 5 0 7 -6 3 -12 -6 -10 -4 -10 7 -2 13
11 54 16 44 6 -3 -3 1 -12 8 -21 11 -14 10 -14 -6 -2 -13 11 -21 11 -29 3 -9
-9 -17 -7 -32 6 -11 9 -16 12 -13 5 4 -6 2 -15 -4 -19 -8 -4 -9 -3 -5 4 4 7 2
12 -4 12 -6 0 -8 5 -3 13 10 16 14 41 5 32 -4 -4 -7 -12 -7 -18 -1 -7 -7 -11
-15 -9 -11 3 -11 0 -1 -12 7 -9 10 -23 7 -32 -5 -13 -9 -14 -21 -4 -8 7 -15
17 -15 23 0 6 7 2 15 -9 13 -17 14 -17 15 -1 0 18 -8 20 -50 18 -14 -1 -33 -2
-42 -2 -10 0 -18 -4 -18 -8 0 -10 32 -10 45 0 6 5 16 0 23 -12 7 -11 8 -19 2
-19 -5 0 -10 5 -10 10 0 6 -5 10 -11 10 -5 0 -8 -4 -5 -8 3 -5 -1 -9 -9 -9 -8
0 -15 5 -15 10 0 5 -8 3 -17 -4 -9 -8 -14 -9 -10 -3 11 19 -20 24 -85 15 -4
-1 -5 -9 -1 -18 7 -19 5 -18 -17 11 -8 11 -10 17 -3 13 6 -4 14 -3 17 2 4 5
-2 8 -11 7 -10 -2 -18 -8 -18 -14 0 -6 -3 -14 -7 -18 -8 -7 -12 9 -9 31 1 6
-7 1 -16 -10 -17 -19 -59 -23 -48 -5 3 5 1 11 -4 14 -5 3 -7 -7 -6 -23 2 -27
0 -28 -32 -25 -27 2 -32 0 -24 -10 8 -9 7 -13 -4 -13 -8 0 -12 4 -9 9 3 4 0 8
-5 8 -6 0 -11 4 -11 8 0 9 8 11 54 14 16 1 22 7 19 16 -3 7 -9 10 -12 5 -7
-10 -22 -10 -38 0 -9 6 -11 3 -7 -8 4 -9 3 -15 -2 -14 -21 4 -35 -2 -29 -11 3
-5 1 -10 -5 -10 -6 0 -8 -5 -5 -10 4 -6 11 -7 17 -4 7 4 8 2 4 -5 -4 -6 -13
-8 -19 -4 -23 14 -39 12 -33 -5 6 -16 5 -16 -7 0 -11 14 -17 15 -38 4 -21 -11
-28 -10 -53 7 l-28 20 11 -21 c8 -15 8 -22 1 -22 -5 0 -10 5 -10 10 0 6 -5 10
-11 10 -6 0 -7 -6 -2 -12 4 -8 -2 -7 -17 3 -26 15 -60 15 -60 -2 0 -10 22 -8
31 4 3 4 12 0 20 -9 10 -13 10 -16 1 -10 -7 4 -19 3 -27 -4 -10 -8 -15 -8 -20
1 -6 8 -10 7 -17 -2 -8 -11 -11 -11 -15 -1 -4 10 -8 10 -21 0 -14 -10 -15 -10
-4 2 16 18 16 38 0 22 -15 -15 -78 -16 -78 -1 0 8 -4 8 -14 0 -8 -6 -18 -11
-22 -10 -20 3 -34 -2 -34 -12 0 -8 5 -8 15 1 12 10 15 10 15 0 0 -10 3 -10 15
0 20 17 38 1 24 -20 -9 -13 -10 -12 -5 3 7 23 -3 22 -33 -5 -16 -15 -20 -16
-11 -5 12 16 12 18 -1 16 -7 -2 -24 2 -36 9 -14 8 -24 9 -28 2 -4 -6 -11 -7
-17 -4 -6 4 -5 10 3 16 11 8 11 9 -1 5 -8 -2 -16 -9 -16 -15 -1 -7 -2 -16 -3
-22 0 -5 -6 -10 -12 -10 -6 0 -8 8 -5 18 3 9 1 24 -5 32 -8 12 -9 10 -4 -7 4
-15 2 -21 -9 -19 -9 1 -19 5 -22 9 -4 4 -14 -2 -21 -13 -8 -11 -19 -17 -25
-14 -6 4 -5 10 3 15 10 6 10 9 2 9 -6 0 -15 -5 -18 -10 -4 -6 -11 -8 -16 -4
-5 3 -8 0 -7 -7 2 -6 -3 -14 -11 -17 -9 -3 -11 0 -6 9 5 7 -6 3 -24 -10 -30
-22 -31 -24 -14 -38 16 -13 16 -13 -5 -3 -12 6 -20 15 -17 21 4 5 1 9 -4 9 -6
0 -11 -6 -11 -14 0 -8 -4 -18 -10 -21 -5 -3 -9 2 -7 12 1 10 -1 18 -4 18 -3 0
-14 7 -25 15 -18 14 -18 14 -5 -2 7 -10 18 -15 24 -11 6 3 7 1 3 -5 -5 -9 -13
-9 -26 -2 -13 7 -21 7 -26 -2 -4 -6 -3 -8 4 -4 6 3 13 2 16 -3 8 -13 -22 -7
-36 7 -15 15 -28 15 -28 1 0 -5 4 -8 9 -5 5 3 11 0 14 -7 3 -7 -3 -13 -13 -13
-10 0 -17 3 -14 7 5 9 -25 21 -37 13 -5 -3 -9 1 -9 8 0 8 -3 9 -8 2 -11 -15
-68 -12 -64 4 1 8 -2 11 -8 7 -8 -5 -7 -12 2 -23 11 -13 10 -15 -5 -9 -11 4
-16 3 -12 -3 3 -6 1 -10 -4 -10 -6 0 -11 8 -11 17 0 12 -3 14 -11 6 -8 -8 -8
-17 0 -31 8 -14 8 -23 1 -27 -6 -4 -10 -3 -9 2 6 32 -24 41 -41 12 -7 -10 -9
-7 -8 11 1 14 6 32 12 40 10 13 9 13 -6 1 -10 -7 -18 -20 -18 -28 0 -10 -5
-11 -19 -4 -15 9 -22 6 -34 -12 -14 -21 -13 -25 1 -35 10 -7 1 -5 -18 5 -19 9
-38 17 -42 18 -3 0 -10 3 -14 8 -11 10 14 9 36 -3 29 -16 36 8 9 36 -12 13
-27 24 -32 24 -5 0 2 -9 17 -21 30 -24 35 -45 6 -27 -16 10 -24 10 -40 0 -25
-16 -30 -15 -30 2 0 8 -4 18 -10 21 -6 4 -7 -2 -1 -17 5 -13 16 -22 25 -22 9
1 16 -2 16 -7 0 -5 -10 -9 -21 -9 -12 0 -27 -6 -33 -13 -6 -7 -10 -10 -9 -8 2
2 -2 10 -9 18 -8 11 -7 12 5 7 11 -4 15 0 14 13 0 11 -7 20 -13 20 -7 0 -12
-5 -11 -11 1 -6 -4 -10 -11 -8 -8 1 -11 -2 -7 -8 3 -5 1 -10 -4 -10 -6 0 -11
6 -11 13 0 8 -3 8 -8 2 -10 -15 -38 -12 -34 4 1 7 -2 10 -8 6 -6 -4 -3 -16 8
-33 10 -15 12 -23 4 -18 -7 4 -19 2 -27 -4 -11 -9 -15 -9 -15 -1 0 6 5 11 10
11 6 0 10 4 10 10 0 5 -7 6 -17 3 -12 -5 -14 -3 -8 7 5 9 4 11 -4 6 -6 -4 -9
-12 -6 -17 4 -5 2 -9 -3 -9 -17 0 -22 13 -9 29 10 14 10 14 -5 3 -9 -8 -15
-19 -12 -27 3 -7 0 -16 -7 -21 -8 -4 -10 -3 -5 4 10 16 -27 10 -48 -7 -11 -10
-16 -10 -16 -2 0 7 -5 9 -12 5 -7 -4 -8 -3 -4 4 4 6 13 9 20 6 8 -3 17 0 21 5
3 6 10 9 15 6 5 -3 11 -2 14 3 2 4 -6 8 -19 8 -13 0 -21 -4 -19 -8 3 -4 0 -8
-5 -8 -6 0 -11 6 -11 13 0 8 -3 8 -9 -2 -5 -8 -16 -11 -26 -7 -15 5 -16 4 -5
-9 11 -13 10 -14 -6 -8 -17 6 -18 5 -4 -13 14 -17 14 -18 -2 -6 -9 7 -15 22
-13 33 2 11 0 17 -5 14 -4 -3 -10 -2 -13 2 -2 5 -2 2 0 -6 2 -8 -2 -11 -10 -8
-8 3 -20 1 -28 -4 -12 -7 -12 -9 1 -10 8 -1 19 -1 24 0 10 2 26 -19 26 -34 0
-5 -5 -3 -10 5 -5 8 -10 11 -10 6 0 -5 -6 -3 -13 3 -8 6 -22 12 -33 14 -10 1
-25 6 -32 10 -14 10 -52 0 -52 -13 0 -5 -11 -7 -25 -4 -14 2 -25 0 -25 -6 0
-6 -4 -9 -9 -5 -16 9 -24 -15 -11 -30 8 -9 8 -15 2 -15 -6 0 -12 6 -15 13 -3
8 -9 7 -19 -6 -13 -18 -14 -17 -14 2 0 11 4 18 7 15 4 -2 10 0 13 5 4 5 2 12
-4 16 -6 4 -8 10 -5 15 3 5 1 11 -4 15 -6 3 -8 -3 -6 -15 4 -23 -14 -38 -25
-20 -5 9 -9 8 -13 -3 -3 -9 -16 -14 -31 -13 -14 2 -23 -1 -20 -5 3 -5 17 -7
30 -5 20 4 23 2 15 -8 -6 -7 -7 -16 -3 -20 4 -4 -8 0 -26 11 -32 18 -33 18
-49 -2 -12 -16 -14 -16 -10 -3 3 10 2 20 -3 23 -6 4 -10 -1 -10 -10 0 -9 -5
-13 -10 -10 -6 4 -8 10 -5 15 3 4 -3 7 -12 5 -10 -2 -21 -4 -25 -4 -4 -1 -5
-9 -2 -18 4 -11 3 -14 -3 -7 -4 6 -16 10 -25 8 -10 -1 -20 2 -23 6 -3 5 -13 6
-22 3 -9 -4 -14 -2 -10 3 3 6 -5 10 -18 10 -13 0 -21 -4 -19 -8 3 -4 -2 -8
-10 -8 -9 0 -16 5 -16 12 0 6 -3 8 -6 5 -4 -4 1 -18 10 -31 10 -16 12 -27 6
-31 -6 -4 -10 -3 -9 2 3 20 -2 27 -12 13 -8 -13 -9 -13 -7 2 2 9 -1 17 -6 16
-5 0 -13 6 -17 14 -7 11 -9 11 -9 -1 0 -11 -3 -11 -17 0 -16 12 -17 12 -6 -1
9 -12 8 -20 -6 -39 l-18 -24 0 26 c0 16 4 24 10 20 6 -4 7 -1 2 7 -6 10 -12 7
-26 -11 -15 -19 -21 -21 -28 -11 -7 11 -9 11 -14 -2 -4 -9 -14 -13 -27 -11
-11 2 -19 1 -16 -3 2 -4 -2 -13 -10 -20 -8 -7 -14 -9 -14 -4 0 5 -12 14 -27
20 -27 11 -27 11 -6 -4 12 -9 19 -22 16 -30 -4 -10 -9 -9 -24 9 -10 12 -18 17
-19 12 0 -6 5 -16 12 -23 8 -8 4 -10 -18 -7 -27 5 -28 4 -10 -10 11 -8 15 -15
9 -15 -7 0 -15 5 -18 10 -7 12 -25 4 -25 -11 0 -6 6 -7 13 -3 6 4 9 3 4 -1
-11 -13 -47 -16 -47 -5 0 6 -7 10 -16 10 -13 0 -14 -3 -5 -13 9 -11 3 -13 -33
-7 -34 5 -43 4 -39 -7 3 -7 9 -10 14 -7 5 3 6 -2 3 -11 -6 -14 -8 -14 -21 2
-8 10 -12 12 -8 6 4 -8 0 -13 -11 -13 -14 0 -15 -2 -3 -17 13 -16 12 -17 -3
-5 -9 8 -22 11 -27 8 -5 -4 -15 2 -21 11 -10 17 -10 17 -8 -1 2 -10 -3 -21
-11 -24 -9 -3 -11 0 -6 8 5 9 4 11 -4 6 -15 -10 -3 -29 15 -22 8 3 14 1 14 -5
0 -13 -52 -8 -63 6 -5 5 -5 -1 -2 -15 6 -20 5 -22 -5 -13 -7 6 -19 9 -27 6
-13 -5 -12 -8 5 -17 18 -10 19 -12 4 -26 -14 -13 -15 -12 -9 3 3 9 2 17 -3 17
-6 0 -10 -6 -10 -13 0 -7 -9 -13 -20 -14 -13 -1 -18 2 -14 9 4 7 2 8 -4 4 -6
-4 -9 -13 -5 -22 4 -11 9 -12 19 -3 8 6 14 7 14 3 0 -17 -38 -35 -46 -22 -5 7
-3 8 6 3 9 -5 11 -4 6 4 -6 9 -11 9 -21 1 -9 -8 -15 -8 -18 0 -3 6 -4 5 -3 -2
2 -7 -4 -19 -13 -26 -9 -8 -11 -11 -5 -8 7 3 18 -2 25 -12 13 -16 13 -16 -5
-2 -18 13 -19 13 -14 -1 4 -9 1 -16 -8 -16 -7 0 -11 4 -9 8 3 3 -3 6 -13 5 -9
0 -16 5 -14 12 1 8 -2 11 -8 7 -8 -5 -8 -11 -1 -19 6 -7 7 -17 3 -21 -4 -5 -1
-5 6 0 11 6 12 3 3 -14 -7 -11 -14 -21 -17 -21 -3 0 -2 5 1 10 3 6 2 10 -4 10
-6 0 -8 7 -5 15 4 8 1 15 -5 15 -6 0 -10 -6 -9 -12 2 -7 -3 -12 -10 -10 -8 1
-11 -2 -8 -7 4 -5 -1 -14 -10 -19 -15 -8 -15 -10 0 -15 12 -5 15 -3 10 6 -4 6
-3 8 1 4 12 -10 15 -38 4 -31 -5 3 -9 0 -9 -5 0 -6 -5 -11 -11 -11 -8 0 -8 5
1 15 7 9 8 15 2 15 -5 0 -12 -7 -16 -15 -3 -8 -9 -15 -13 -14 -33 5 -42 -2
-39 -32 3 -22 0 -29 -10 -25 -8 3 -14 -1 -14 -10 0 -8 4 -13 8 -10 5 3 9 -1 9
-9 0 -8 -5 -13 -11 -12 -6 1 -10 -4 -8 -12 2 -11 0 -12 -10 -4 -17 14 -49 13
-40 -1 10 -16 10 -56 0 -50 -4 3 -8 0 -8 -7 0 -6 -9 -1 -21 12 -11 13 -18 19
-15 12 4 -6 -1 -19 -10 -27 -9 -9 -11 -16 -4 -16 6 0 9 -4 5 -9 -3 -6 1 -14
10 -18 12 -7 11 -11 -8 -22 -20 -13 -21 -13 -9 1 10 13 10 17 -3 22 -9 3 -14
2 -10 -3 3 -5 -1 -12 -7 -14 -9 -4 -5 -12 12 -27 l25 -21 -28 12 c-15 7 -27
17 -27 23 0 6 -7 -2 -15 -18 -17 -31 -20 -51 -4 -24 10 17 39 14 39 -4 0 -6
-6 -5 -15 2 -13 10 -15 9 -15 -10 0 -15 -5 -20 -14 -17 -25 10 -39 -18 -20
-37 9 -10 14 -20 10 -23 -3 -3 -15 5 -27 18 -11 13 -17 18 -13 10 3 -7 0 -18
-7 -23 -11 -8 -10 -9 3 -5 9 3 19 0 21 -7 3 -8 -3 -12 -16 -11 -27 3 -39 -4
-31 -16 4 -7 10 -7 18 0 8 7 17 6 26 -1 12 -8 12 -9 -3 -4 -15 5 -17 1 -13
-24 3 -23 -1 -33 -15 -41 -12 -6 -17 -15 -12 -22 12 -20 12 -38 0 -30 -22 14
-45 13 -57 -2 -7 -8 -17 -12 -24 -8 -6 3 -8 2 -3 -2 13 -15 46 -13 40 2 -6 15
6 17 25 4 11 -6 10 -10 -5 -16 -10 -5 -21 -7 -25 -7 -5 1 -8 -5 -8 -14 0 -8 4
-13 9 -10 5 4 7 -3 4 -14 -3 -11 -10 -20 -15 -20 -5 0 -6 5 -3 10 3 6 1 10 -5
10 -6 0 -8 5 -4 12 4 6 3 8 -3 5 -11 -7 -10 -43 2 -54 4 -5 5 -2 0 6 -5 9 -4
12 3 7 6 -4 8 -14 5 -23 -4 -11 -3 -14 6 -9 10 6 10 4 0 -12 -11 -17 -10 -24
2 -39 13 -17 13 -17 -5 -3 -18 14 -19 13 -13 -4 6 -16 5 -17 -8 -6 -9 7 -18
10 -22 6 -3 -3 -2 -6 4 -6 9 0 24 -34 22 -49 0 -2 5 -8 13 -13 10 -8 9 -9 -4
-5 -11 4 -17 0 -17 -11 -1 -37 -5 -52 -10 -46 -12 11 -6 59 8 70 12 9 10 12
-8 17 -11 3 -24 1 -27 -4 -3 -5 -10 -6 -16 -3 -7 4 -8 2 -4 -5 6 -9 11 -9 22
0 17 14 19 -2 2 -20 -10 -10 -10 -15 -1 -18 13 -5 6 -33 -9 -33 -5 0 -7 4 -4
9 3 5 -1 14 -8 20 -10 9 -16 9 -21 1 -4 -6 -1 -9 7 -8 9 2 13 -7 11 -30 -1
-32 0 -33 14 -13 12 18 16 19 29 7 8 -8 14 -18 14 -22 0 -5 -5 -3 -12 4 -7 7
-15 12 -19 12 -11 0 -19 -43 -10 -54 5 -6 8 -19 8 -28 0 -13 -6 -16 -26 -13
l-26 5 24 -10 24 -10 -24 -27 c-13 -14 -19 -23 -12 -19 7 4 17 -2 23 -14 6
-11 7 -20 3 -20 -4 0 -1 -5 7 -10 11 -7 11 -10 2 -10 -7 0 -11 -4 -7 -9 3 -5
-4 -16 -16 -24 -14 -11 -17 -16 -7 -19 11 -4 11 -8 -1 -21 -7 -10 -9 -17 -3
-17 12 0 24 28 17 40 -6 9 25 23 33 15 3 -3 0 -5 -7 -5 -9 0 -12 -9 -9 -25 3
-13 1 -22 -3 -19 -5 3 -9 1 -9 -5 0 -5 3 -11 8 -14 4 -2 2 -3 -3 -2 -6 2 -16
-4 -24 -12 -12 -13 -11 -14 10 -8 22 7 23 7 9 -10 -14 -17 -13 -18 5 -11 11 4
16 4 12 0 -4 -4 -2 -13 4 -21 6 -7 8 -13 3 -13 -5 0 -2 -5 6 -11 12 -9 12 -10
-4 -5 -13 5 -17 2 -12 -9 6 -16 -14 -16 -26 0 -5 6 -8 6 -8 -2 0 -6 5 -15 10
-18 7 -4 7 -13 0 -26 -7 -13 -7 -19 0 -19 9 0 14 21 11 42 0 4 6 5 14 2 18 -7
19 -16 3 -32 -14 -14 3 -16 20 -2 9 7 9 7 2 -2 -13 -16 -13 -31 1 -22 8 4 8 0
0 -15 -10 -17 -9 -22 4 -27 19 -8 20 -21 0 -21 -8 0 -11 5 -8 10 3 6 1 7 -5 3
-9 -5 -9 -13 -2 -27 6 -10 13 -19 16 -19 3 0 2 4 -1 10 -3 6 1 7 10 3 13 -5
14 -7 3 -14 -11 -7 -10 -9 1 -9 8 0 12 -3 9 -6 -4 -3 -17 0 -30 6 -18 10 -21
10 -11 0 6 -7 9 -19 6 -26 -3 -8 0 -14 7 -14 6 0 8 4 5 10 -4 6 1 7 11 3 14
-5 13 -8 -7 -19 -13 -7 -18 -13 -11 -14 7 0 10 -4 7 -10 -3 -5 0 -10 8 -10 8
0 17 -7 21 -15 5 -13 2 -14 -17 -4 l-22 12 20 -23 c11 -13 14 -20 8 -16 -7 4
-13 3 -13 -2 0 -5 10 -13 22 -19 19 -8 20 -10 4 -16 -9 -4 -15 -3 -12 1 3 5
-2 9 -10 9 -10 0 -11 -4 -4 -11 14 -14 13 -29 -3 -20 -8 5 -8 2 2 -9 14 -18
26 -23 16 -8 -3 5 -2 12 3 15 4 2 8 -6 8 -19 0 -13 -4 -21 -8 -19 -4 3 -8 2
-9 -3 0 -4 -2 -16 -4 -26 -2 -9 0 -15 4 -13 4 3 13 1 21 -5 12 -7 9 -9 -10 -9
-14 0 -20 -4 -15 -8 14 -10 19 -72 6 -72 -6 0 -11 -6 -11 -12 0 -7 13 2 29 21
18 22 28 28 28 18 0 -9 -4 -14 -9 -11 -4 3 -8 1 -8 -5 0 -5 8 -15 17 -20 10
-6 13 -11 6 -11 -6 0 -15 5 -19 11 -10 17 -24 -13 -19 -40 3 -16 0 -21 -9 -18
-7 3 -13 -1 -13 -9 0 -7 4 -11 8 -8 10 6 49 -17 49 -29 0 -4 -5 -5 -12 -1 -7
4 -8 3 -4 -4 4 -6 13 -9 21 -5 18 6 20 -8 3 -25 -9 -9 -9 -12 2 -12 8 0 4 -8
-10 -20 -13 -11 -18 -20 -12 -20 6 0 14 5 17 10 3 6 14 9 23 9 15 -1 15 -2 -1
-6 -9 -2 -15 -9 -12 -14 5 -8 -6 -13 -26 -11 -3 0 -5 -10 -5 -23 0 -13 5 -23
10 -22 6 1 10 -6 8 -15 -3 -20 13 -24 24 -6 5 7 2 8 -7 3 -8 -5 -11 -4 -6 0 4
5 0 17 -9 26 -16 17 -15 19 2 25 11 4 22 8 25 10 3 2 6 -3 6 -10 0 -8 -6 -12
-14 -9 -18 7 -16 0 7 -27 11 -13 20 -28 20 -34 0 -6 -5 -4 -10 4 -9 14 -15 6
-10 -15 9 -43 9 -55 0 -55 -6 0 -8 5 -5 10 3 6 1 10 -5 10 -7 0 -9 -7 -6 -16
3 -9 6 -18 6 -20 0 -3 5 -2 10 1 6 3 10 2 10 -4 0 -5 -5 -13 -11 -16 -6 -4 -8
-13 -5 -20 3 -8 0 -16 -7 -19 -9 -3 -8 -5 1 -5 8 -1 10 -6 6 -13 -4 -8 -3 -10
2 -5 5 5 9 18 9 30 0 11 7 22 15 24 9 3 11 1 5 -4 -17 -13 -12 -109 5 -105 11
3 11 0 1 -12 -8 -10 -9 -16 -1 -21 5 -3 10 -11 10 -18 0 -6 -6 -2 -14 8 -8 11
-13 22 -11 25 2 3 -5 6 -16 6 -17 0 -18 -2 -6 -11 27 -20 40 -55 26 -71 -11
-13 -9 -15 12 -11 13 2 18 2 12 0 -7 -3 -13 -9 -13 -14 0 -6 -5 -7 -12 -3 -7
5 -8 3 -3 -6 6 -10 4 -12 -8 -7 -10 3 -17 2 -17 -3 0 -6 6 -10 13 -10 7 0 23
-9 34 -19 12 -11 23 -18 25 -15 3 2 4 -5 3 -16 -1 -11 -4 -23 -8 -26 -15 -15
-6 -26 11 -13 15 13 16 12 3 -4 -10 -13 -17 -15 -27 -6 -9 7 -14 8 -14 1 0
-14 26 -23 48 -16 10 4 13 2 7 -3 -12 -10 -20 -47 -8 -40 5 3 8 -12 8 -33 0
-21 -3 -36 -8 -33 -4 2 -5 14 -2 26 2 12 2 16 -1 9 -3 -6 -9 -10 -14 -7 -5 3
-3 -8 3 -24 6 -17 14 -28 18 -25 4 2 10 -3 13 -12 9 -23 7 -31 -3 -15 -7 10
-12 11 -27 1 -16 -10 -16 -11 -2 -6 23 7 23 -10 1 -23 -22 -13 -8 -14 16 -2
13 7 17 5 17 -9 0 -10 -4 -16 -8 -14 -4 3 -16 0 -25 -6 -17 -11 -17 -11 -1 -6
20 6 25 -10 6 -16 -8 -3 -6 -7 5 -11 10 -4 16 -2 14 5 -1 6 5 13 13 15 9 3 11
1 5 -4 -6 -4 -10 -21 -10 -38 0 -16 -4 -36 -9 -42 -4 -7 -5 -13 -1 -13 4 0 1
-8 -6 -17 -10 -11 -10 -14 -2 -9 19 11 16 -5 -3 -18 -13 -10 -13 -12 5 -12 11
0 17 4 15 8 -3 4 0 8 6 8 7 0 9 -8 4 -22 -6 -21 -5 -22 12 -8 15 11 16 11 7 0
-7 -8 -13 -31 -13 -53 0 -28 -3 -36 -12 -31 -9 5 -9 2 1 -9 11 -14 11 -17 0
-17 -11 0 -11 -2 1 -10 21 -13 39 -12 20 1 -12 9 -12 10 3 5 10 -3 22 -6 25
-6 4 0 -4 -7 -16 -16 -26 -18 -29 -34 -4 -34 13 0 14 2 3 9 -11 7 -9 10 8 16
13 4 25 4 28 1 4 -3 -1 -6 -11 -6 -9 0 -15 -4 -12 -8 3 -5 -4 -19 -15 -30 -20
-23 -12 -31 9 -10 7 7 12 8 12 3 -1 -15 -26 -45 -33 -40 -4 3 -5 2 -2 -2 3 -3
-1 -13 -7 -22 -10 -12 -8 -12 8 2 26 22 31 22 45 -4 7 -15 8 -19 0 -15 -7 5
-9 -7 -7 -35 3 -24 1 -37 -4 -30 -4 8 -10 9 -14 3 -7 -12 21 -24 37 -16 7 3 1
-4 -13 -15 -14 -11 -20 -21 -15 -21 6 0 3 -5 -5 -10 -12 -8 -10 -10 9 -8 16 2
25 -3 26 -14 3 -15 0 -16 -16 -8 -23 13 -25 7 -4 -14 13 -13 13 -16 -1 -30 -8
-9 -11 -16 -5 -16 5 0 17 10 25 22 9 12 16 17 16 11 0 -7 -5 -15 -11 -19 -6
-3 -9 -14 -6 -24 4 -14 0 -17 -15 -15 -15 3 -17 1 -9 -9 6 -7 8 -25 5 -42 -5
-27 -4 -28 9 -9 8 10 13 25 10 32 -3 7 1 13 8 13 7 0 9 -3 6 -7 -4 -3 1 -16
10 -27 17 -20 17 -20 1 -7 -11 8 -18 9 -18 3 0 -6 -3 -19 -6 -29 -6 -15 -4
-16 7 -5 16 15 29 16 29 1 0 -5 -5 -7 -12 -3 -7 5 -9 0 -6 -14 6 -21 -12 -47
-26 -37 -3 3 -1 -1 5 -8 9 -9 12 -9 16 1 7 19 19 14 20 -8 1 -11 -2 -18 -6
-16 -4 3 -13 0 -21 -6 -13 -8 -12 -9 1 -5 9 3 22 0 29 -6 7 -7 10 -7 7 -2 -3
6 3 11 13 12 18 2 18 1 2 -16 -12 -12 -21 -15 -30 -8 -7 5 -15 7 -19 3 -3 -3
-1 -6 6 -6 7 0 9 -5 5 -12 -4 -7 -3 -8 4 -4 7 4 12 2 12 -3 0 -21 2 -26 12
-38 7 -9 7 -13 -1 -13 -6 0 -11 -4 -11 -9 0 -5 15 -8 32 -6 18 3 28 1 22 -3
-19 -12 -13 -61 9 -77 11 -8 24 -12 29 -9 4 3 8 0 8 -5 0 -15 -5 -14 -43 5
l-32 17 19 -22 c11 -11 15 -21 11 -21 -4 0 0 -9 9 -19 10 -11 19 -28 20 -38 2
-10 10 -17 19 -15 8 1 19 -3 23 -9 4 -8 3 -9 -4 -5 -7 4 -19 3 -28 -2 -14 -8
-14 -10 0 -22 13 -10 14 -16 4 -29 -7 -9 -8 -13 -4 -9 5 4 15 3 22 -3 8 -7 14
-6 20 2 5 8 3 9 -6 4 -9 -6 -11 -4 -5 5 5 9 4 11 -3 6 -8 -5 -10 -2 -6 8 3 9
1 16 -5 16 -6 0 -11 6 -11 13 1 6 9 2 19 -11 14 -15 21 -18 25 -10 2 7 3 -3 0
-23 -5 -36 -4 -36 28 -33 18 1 27 0 20 -3 -10 -4 -9 -9 5 -20 14 -12 12 -12
-9 1 -19 11 -29 13 -34 4 -5 -7 -3 -8 6 -3 9 6 10 1 5 -16 -5 -19 -4 -21 4 -9
9 13 11 13 11 -2 0 -10 5 -18 10 -18 6 0 10 -9 10 -21 0 -11 -4 -18 -8 -15 -5
3 -9 -1 -9 -9 0 -13 3 -13 17 0 16 15 18 14 18 -9 0 -15 -5 -23 -11 -19 -6 3
-7 1 -3 -5 4 -6 13 -9 22 -5 11 4 12 9 4 18 -7 9 -7 15 -1 19 13 8 19 -4 16
-31 -1 -12 2 -20 7 -17 5 4 9 0 7 -7 -3 -27 1 -40 12 -33 8 4 7 9 -2 15 -10 6
-10 9 -2 9 6 0 15 -5 19 -11 4 -8 9 -7 16 2 8 11 9 11 6 1 -2 -8 -6 -12 -9
-10 -5 3 -39 -27 -39 -35 0 -2 7 -4 15 -4 8 0 12 4 9 9 -3 4 -1 8 4 8 17 0 22
-13 9 -29 -10 -14 -10 -14 3 -5 19 14 50 14 47 0 -1 -6 4 -10 10 -8 18 3 16
-15 -3 -22 -10 -4 -13 -2 -8 6 5 7 3 8 -6 3 -8 -5 -11 -4 -6 3 11 17 -11 23
-25 6 -10 -12 -10 -15 2 -12 8 2 13 -3 11 -10 -1 -8 2 -11 7 -8 5 4 13 2 16
-4 5 -8 12 -7 23 2 13 12 14 10 4 -9 -7 -12 -12 -28 -11 -35 0 -7 4 -5 7 5 7
16 9 16 27 1 17 -13 17 -15 3 -10 -10 3 -18 1 -18 -4 0 -10 21 -14 48 -11 6 1
12 -3 12 -9 0 -6 5 -8 12 -4 6 4 8 3 5 -4 -4 -5 -16 -8 -26 -5 -10 3 -21 0
-25 -5 -3 -5 4 -10 17 -9 12 0 31 -3 42 -7 16 -6 17 -6 5 3 -10 7 -11 11 -2
11 19 0 26 -4 28 -18 1 -6 -1 -10 -5 -8 -4 3 -13 0 -21 -6 -13 -8 -12 -9 2 -5
9 3 22 -2 30 -10 11 -15 11 -16 -5 -10 -10 4 -16 3 -12 -3 3 -5 27 -7 52 -5
32 3 42 1 33 -5 -8 -6 -11 -10 -6 -10 5 0 1 -10 -10 -22 -18 -21 -17 -20 15 2
19 13 32 19 28 13 -4 -6 0 -16 8 -23 14 -12 19 -7 16 13 -1 5 3 5 9 2 6 -4 9
-10 6 -13 -3 -3 0 -12 7 -20 9 -13 9 -14 0 -8 -7 4 -13 3 -13 -1 0 -18 55 -42
73 -32 10 6 17 7 16 2 -3 -17 1 -33 9 -32 19 3 30 -2 36 -18 6 -16 6 -16 -12
0 -18 17 -20 17 -33 0 -11 -15 -11 -16 0 -6 11 9 17 8 30 -4 9 -9 17 -20 17
-25 1 -4 2 -10 3 -13 0 -4 8 -2 17 3 11 6 25 5 42 -4 13 -7 31 -10 40 -7 10 4
13 2 8 -6 -5 -7 -2 -10 6 -9 7 2 12 -3 10 -11 -3 -12 0 -12 12 -1 19 15 22 0
4 -18 -8 -8 -8 -12 -1 -12 13 0 25 28 17 41 -3 5 -9 7 -13 4 -5 -2 -13 8 -20
23 -10 24 -10 25 2 10 8 -10 19 -18 24 -18 9 0 35 -44 37 -62 1 -3 5 -10 10
-15 5 -4 6 -3 3 3 -4 7 2 14 13 17 23 6 26 -3 8 -23 -7 -8 3 -2 23 13 33 24
36 24 32 7 -3 -11 -13 -20 -22 -21 -12 0 -13 -2 -2 -6 8 -3 20 2 28 13 12 16
17 11 15 -16 0 -4 10 -6 23 -6 13 0 21 4 19 8 -3 4 0 8 6 8 6 0 8 5 4 12 -4 7
-3 8 4 4 6 -4 8 -14 5 -24 -3 -9 -3 -14 2 -10 4 4 17 3 28 -3 13 -7 17 -7 13
-1 -3 6 -2 13 4 17 5 3 10 1 10 -6 0 -8 5 -7 17 2 10 8 14 9 10 2 -4 -6 -3
-14 3 -18 5 -3 10 1 10 9 0 9 5 16 11 16 5 0 8 -4 4 -9 -3 -5 -1 -12 5 -16 5
-3 10 2 11 12 0 14 2 15 7 3 6 -13 43 -15 245 -15 130 0 237 3 237 6 0 3 23 3
50 -1 36 -5 50 -3 47 5 -3 6 7 11 23 10 16 0 26 -4 22 -10 -3 -5 -2 -7 3 -3 4
4 14 3 21 -3 8 -6 14 -6 18 0 4 5 17 8 31 5 13 -2 27 1 31 7 4 7 3 9 -3 6 -5
-3 -10 0 -10 7 0 11 4 12 19 3 14 -9 20 -9 27 1 7 11 9 10 14 -3 4 -9 3 -13
-3 -10 -6 3 -10 1 -10 -4 0 -17 18 -13 28 5 5 9 22 17 38 18 16 1 35 5 43 10
10 7 12 6 6 -4 -6 -10 -3 -12 13 -8 12 4 20 3 17 -1 -2 -4 1 -8 8 -8 7 0 21
-4 32 -8 16 -5 17 -5 5 4 -22 15 -5 24 22 10 20 -11 22 -11 10 3 -10 13 -10
18 -1 24 8 4 9 3 5 -4 -9 -16 7 -15 22 0 9 9 15 9 24 0 9 -9 9 -12 0 -12 -7 0
-12 -8 -11 -17 0 -11 3 -13 6 -5 2 6 10 9 15 6 7 -4 8 -2 4 4 -4 7 -1 12 9 12
9 0 14 -4 11 -8 -2 -4 6 -8 19 -8 13 0 23 2 22 6 -3 10 36 60 47 59 7 0 6 -2
-1 -6 -18 -7 -16 -20 2 -20 8 0 17 7 20 15 6 17 -14 34 -29 25 -5 -3 -6 -1 -2
5 5 9 13 9 29 0 33 -18 46 -18 57 0 6 11 9 12 10 4 0 -7 4 -11 8 -8 5 3 9 -1
9 -8 0 -8 -11 -12 -28 -11 -16 1 -26 -1 -23 -6 3 -5 -3 -6 -12 -2 -13 5 -16 3
-11 -10 3 -8 1 -18 -6 -20 -7 -3 -2 -4 10 -4 12 1 20 4 17 8 -2 4 3 12 10 18
11 10 18 7 31 -11 11 -14 15 -17 12 -6 -7 20 9 34 17 16 2 -7 4 -2 3 12 -2 21
2 25 22 22 21 -2 22 0 10 15 -13 16 -12 17 3 5 9 -8 23 -10 29 -6 8 4 9 3 5
-4 -5 -8 1 -12 16 -12 18 0 20 -2 8 -10 -8 -5 -10 -10 -4 -10 6 0 18 8 25 17
8 9 9 14 3 10 -7 -4 -17 0 -24 8 -9 10 -9 15 -1 15 6 0 11 -4 11 -9 0 -5 18
-8 40 -6 22 2 40 -1 40 -5 0 -5 -9 -7 -19 -5 -14 3 -18 -1 -14 -12 3 -8 9 -11
12 -6 3 4 20 10 36 11 17 2 35 5 40 5 6 1 9 -4 7 -10 -4 -25 16 -12 28 17 13
31 24 37 35 20 4 -7 13 -6 27 1 15 8 19 8 14 0 -4 -6 -2 -11 4 -11 6 0 8 -5 4
-12 -4 -6 -3 -8 4 -5 12 8 11 25 -2 46 -7 11 -6 12 5 5 19 -12 61 -12 77 -1 7
6 15 7 18 4 9 -8 -6 -28 -16 -22 -4 3 -10 -1 -13 -9 -4 -10 0 -12 14 -9 10 3
19 10 19 16 0 6 3 7 6 4 4 -3 15 -2 25 4 15 7 21 6 25 -6 3 -8 11 -15 16 -15
6 0 6 6 -2 14 -9 12 -8 15 9 13 12 -1 19 -7 17 -13 -3 -8 3 -10 17 -6 12 3 16
7 9 10 -7 2 -10 8 -7 12 3 5 0 12 -6 16 -7 4 -9 3 -6 -2 3 -6 -7 -10 -22 -9
-20 0 -27 5 -28 20 -1 11 1 14 4 8 7 -20 26 -15 19 5 -5 15 -5 15 6 1 7 -9 23
-14 36 -12 13 1 21 -1 17 -6 -3 -6 5 -15 17 -21 22 -11 22 -10 4 4 -12 10 -15
16 -7 16 9 0 10 4 5 13 -5 7 -2 5 8 -5 22 -24 31 -23 18 2 -10 19 -10 20 9 8
11 -6 19 -15 18 -19 -1 -4 2 -8 7 -8 6 -1 11 5 12 14 1 8 -2 13 -6 10 -5 -3
-11 -2 -14 3 -2 4 6 8 20 8 19 0 23 -4 18 -19 -6 -19 -5 -19 16 1 13 12 27 19
31 16 4 -2 10 0 14 6 3 5 12 10 18 10 9 0 9 -2 0 -8 -8 -5 -8 -12 3 -26 8 -11
14 -14 14 -7 0 7 4 10 9 6 6 -3 16 1 23 8 10 12 15 11 28 -5 15 -18 15 -18 27
0 9 15 8 19 -3 19 -7 0 -11 -4 -8 -9 3 -4 0 -8 -5 -8 -6 0 -11 7 -11 15 0 10
8 14 22 11 14 -2 22 -10 22 -20 -2 -24 5 -20 16 9 10 27 24 32 36 13 5 -7 2
-9 -8 -5 -12 4 -14 1 -10 -15 4 -18 6 -19 14 -3 9 15 11 15 31 -2 17 -14 19
-14 9 -1 -10 13 -10 17 0 21 7 2 19 -5 26 -17 12 -20 13 -20 6 4 -5 20 -4 23
7 12 16 -15 29 -16 29 -1 0 5 -4 8 -9 4 -5 -3 -12 -1 -16 5 -4 6 -11 8 -16 5
-5 -3 -6 1 -3 9 6 15 17 20 37 17 4 0 7 5 7 11 0 9 4 8 10 -2 5 -8 10 -19 10
-25 0 -5 -5 -3 -10 5 -6 9 -10 10 -10 3 0 -6 5 -15 11 -18 6 -4 8 -14 4 -22
-5 -14 -3 -14 11 -2 10 8 12 15 5 17 -8 3 -8 9 -1 23 7 12 7 19 1 19 -6 0 -8
7 -4 17 5 14 7 13 14 -5 6 -15 14 -20 24 -15 13 5 14 7 3 14 -7 5 -8 9 -2 9 5
0 15 -5 22 -12 9 -9 12 -8 12 4 0 9 4 19 9 22 5 4 7 -3 4 -14 -4 -15 -2 -19
10 -14 8 3 18 0 23 -7 5 -8 3 -10 -6 -4 -9 6 -11 4 -6 -4 5 -7 11 -10 14 -7 3
3 12 0 20 -7 12 -9 11 -5 -2 15 -15 23 -15 26 -2 24 9 -1 19 -6 23 -11 4 -4 2
-5 -6 0 -10 6 -12 4 -7 -4 5 -7 10 -10 14 -7 3 3 11 -2 19 -12 10 -12 10 -8
-2 15 -17 36 -20 58 -4 30 7 -12 14 -15 22 -8 19 15 21 15 43 3 16 -8 24 -8
34 1 10 9 11 9 6 0 -7 -13 5 -17 32 -14 8 1 21 -4 30 -11 14 -10 13 -8 -1 9
-12 14 -15 23 -7 28 5 3 7 11 4 17 -4 7 -2 8 5 4 8 -5 9 -12 2 -19 -6 -8 -1
-18 15 -30 23 -17 24 -17 39 13 13 25 19 28 35 20 11 -6 29 -15 40 -20 14 -7
20 -7 20 0 0 6 11 8 24 6 19 -3 24 -1 21 13 -4 20 21 56 29 42 7 -10 24 -10
44 2 6 5 12 5 12 1 0 -3 7 -1 15 6 9 8 15 8 15 2 0 -6 -6 -13 -12 -15 -12 -5
0 -8 47 -11 11 0 27 -5 35 -10 12 -8 13 -7 4 5 -13 17 -12 39 1 38 6 0 9 -6 7
-14 -1 -7 2 -16 8 -20 6 -4 10 -3 9 2 -4 22 2 25 15 8 13 -18 14 -17 9 10 -5
29 -5 29 10 10 8 -11 13 -24 9 -30 -3 -5 1 -5 9 1 8 6 22 10 32 9 15 -3 16 -1
6 11 -13 16 -23 19 -15 5 4 -5 -1 -8 -9 -7 -27 4 -16 20 14 21 16 0 28 -2 26
-6 -3 -3 7 -11 20 -17 20 -9 23 -9 18 3 -3 8 -9 12 -14 9 -5 -3 -9 -1 -9 5 0
18 55 7 67 -14 7 -11 12 -14 13 -7 0 6 6 12 14 12 8 0 18 4 21 10 4 6 -4 6
-22 -1 -15 -5 -24 -7 -20 -3 4 4 2 13 -4 21 -9 9 -8 13 0 13 6 0 11 -4 11 -10
0 -5 7 -10 16 -10 8 0 13 4 10 8 -3 5 1 9 9 9 8 0 12 -4 9 -9 -3 -4 0 -8 7 -8
8 0 7 -5 -2 -17 -12 -15 -12 -16 1 -8 8 6 22 10 30 10 8 0 21 4 28 9 7 4 16 5
19 2 3 -3 12 -1 20 6 11 9 11 14 -4 32 -17 20 -17 20 1 6 18 -13 19 -13 14 2
-7 17 0 18 40 4 12 -4 22 -12 22 -18 0 -5 6 -8 13 -5 6 2 20 0 31 -5 12 -7 16
-7 12 0 -3 6 -2 13 3 17 5 3 14 -3 20 -12 6 -11 11 -13 11 -5 0 7 4 11 9 7 5
-3 12 -1 16 4 3 6 20 20 38 32 18 12 26 16 20 9 -7 -8 -13 -23 -12 -34 0 -17
2 -18 7 -5 4 9 15 15 25 13 23 -3 79 25 72 37 -4 5 -2 9 3 9 6 0 12 -7 15 -15
4 -9 14 -12 29 -9 45 11 88 13 88 4 0 -4 -6 -10 -12 -13 -8 -2 -9 -8 -4 -13 5
-5 11 -3 14 5 7 21 42 52 52 46 4 -3 11 1 13 7 4 10 6 10 6 1 1 -7 6 -13 12
-13 5 0 7 4 4 10 -4 6 1 7 11 3 10 -4 15 -2 11 4 -3 5 -1 10 6 11 58 7 71 6
74 -8 4 -13 3 -13 -6 0 -6 8 -11 10 -11 4 0 -20 14 -24 36 -9 21 13 24 13 33
-3 8 -12 10 -13 11 -3 0 8 3 11 7 8 3 -4 13 -1 21 6 13 10 15 9 9 -5 -3 -10
-1 -20 5 -24 6 -4 8 -3 4 4 -3 6 0 17 8 25 13 13 12 14 -14 13 -15 0 -27 -3
-25 -7 2 -3 -2 -6 -10 -6 -8 0 -12 4 -10 8 6 9 -16 6 -32 -4 -8 -5 -13 -4 -13
2 0 12 4 13 49 15 16 0 33 4 36 8 12 12 47 -12 41 -28 -3 -9 -1 -12 5 -9 5 4
7 16 4 28 -2 12 -2 16 1 10 3 -7 11 -13 17 -13 6 0 20 -8 31 -17 20 -17 20
-17 6 1 -14 18 -13 19 3 13 11 -4 16 -3 12 4 -4 6 -14 8 -22 5 -8 -4 -11 -1
-8 5 4 6 14 8 22 5 9 -4 21 -2 28 4 8 7 17 4 30 -10 13 -14 14 -20 5 -20 -7 0
-10 -3 -7 -6 4 -4 13 -1 22 6 8 7 15 9 15 5 0 -4 6 -2 14 4 8 7 26 10 40 7 14
-3 28 -1 31 4 3 5 12 7 19 4 8 -3 16 -1 20 4 6 10 -24 9 -42 -2 -6 -4 -12 -2
-12 3 0 11 13 15 39 12 7 -2 11 2 7 7 -3 5 1 9 9 9 8 0 12 -4 9 -9 -3 -4 0 -8
7 -8 8 0 8 -5 -2 -17 -7 -10 -9 -15 -5 -11 5 4 15 3 23 -3 9 -9 13 -8 13 0 0
6 -5 11 -11 11 -5 0 -7 5 -4 10 4 6 13 7 24 1 13 -7 18 -6 18 3 0 7 -10 12
-23 10 -14 -1 -21 3 -20 12 4 24 13 25 46 6 20 -13 27 -22 18 -25 -10 -3 -10
-7 -1 -16 7 -6 11 -8 8 -4 -6 8 24 43 38 43 6 0 6 -5 0 -13 -12 -14 -13 -48
-2 -41 5 2 6 11 3 18 -6 15 11 31 45 41 18 5 22 4 16 -6 -6 -11 -5 -11 5 -2 7
6 19 9 26 6 8 -3 14 -1 14 5 0 5 -10 9 -22 8 -11 0 -23 6 -25 14 -3 9 -1 11 4
5 9 -12 22 -13 38 -4 6 3 31 5 57 4 32 -2 46 1 42 9 -3 6 0 4 8 -5 14 -17 51
-22 41 -6 -4 6 0 8 9 4 22 -8 30 3 16 22 -8 10 -4 9 10 -3 24 -21 29 -31 10
-20 -7 4 -10 3 -5 -1 4 -5 28 -9 53 -10 26 -2 41 1 33 5 -7 5 -20 7 -30 5 -10
-2 -23 2 -29 10 -8 10 -8 13 2 11 7 -1 18 -5 25 -9 6 -4 14 -3 18 3 3 5 1 10
-4 10 -6 0 -11 5 -11 11 0 8 5 8 15 -1 8 -7 12 -17 8 -24 -3 -6 -3 -8 2 -4 4
4 20 1 35 -7 24 -12 30 -12 39 -1 15 18 47 13 43 -5 -2 -8 0 -11 4 -6 12 12
15 45 4 52 -6 3 -10 2 -10 -4 0 -5 -9 -8 -20 -6 -13 3 -18 0 -14 -7 4 -7 2 -8
-5 -4 -6 4 -9 12 -5 17 3 5 10 7 15 4 5 -4 9 2 9 12 0 14 2 15 9 4 7 -11 9
-11 14 0 4 10 6 10 6 2 1 -7 5 -13 10 -13 6 0 8 9 6 20 -4 19 -3 19 19 3 13
-10 21 -25 19 -33 -4 -12 -2 -12 9 1 7 9 21 15 31 13 9 -1 15 2 11 7 -5 8 38
14 76 10 13 -2 13 -1 0 8 -8 5 -11 13 -7 17 4 4 13 2 19 -4 7 -7 16 -12 21
-12 5 0 -1 9 -14 20 -21 17 -21 19 -4 13 11 -3 26 -11 33 -16 7 -6 12 -6 11
-1 -3 20 1 35 10 30 5 -3 14 1 21 9 7 8 9 15 4 15 -5 0 -1 5 9 11 9 6 14 16
11 22 -4 7 -3 8 2 4 12 -12 12 -30 -1 -40 -6 -5 -4 -7 5 -4 8 2 15 15 15 29
-1 13 5 25 12 25 6 0 10 -3 8 -7 -2 -4 2 -7 10 -7 19 0 19 2 -1 21 -13 14 -13
16 -1 16 9 0 18 -6 20 -12 4 -8 6 -7 6 4 1 9 -2 18 -6 21 -5 2 -2 2 5 0 9 -2
12 4 8 20 -3 12 -3 16 0 9 3 -6 10 -9 16 -6 7 4 7 0 0 -13 -7 -12 -7 -25 -1
-34 6 -10 9 -10 10 -1 1 6 3 17 4 22 1 6 3 17 4 26 0 8 6 12 12 8 8 -4 8 -1 1
12 -7 14 -6 24 3 37 13 17 14 17 20 -4 6 -16 9 -18 16 -8 5 8 3 16 -4 21 -9 6
-8 8 3 8 13 0 13 1 0 11 -13 9 -13 10 0 6 8 -2 14 -10 13 -16 -2 -6 1 -11 6
-11 5 0 8 18 6 40 -1 23 1 37 7 34 5 -3 12 4 15 16 4 15 8 18 14 9 6 -10 12
-10 31 -1 13 7 16 11 8 8 -9 -2 -24 3 -35 10 -18 13 -16 14 15 9 27 -4 30 -3
15 4 -11 5 -16 10 -11 10 5 1 2 9 -5 18 -10 12 -4 10 18 -5 20 -14 34 -19 38
-12 4 6 1 9 -7 8 -7 -2 -13 4 -13 12 0 8 -4 21 -8 28 -6 8 -1 12 15 12 17 0
20 2 9 9 -8 5 -21 6 -30 3 -14 -5 -14 -4 1 11 19 20 32 22 22 5 -5 -10 -4 -10
6 -1 7 6 20 9 29 6 13 -4 13 -2 -1 7 -10 6 -18 16 -18 22 0 7 5 6 14 -1 12
-10 17 -8 26 11 10 21 10 21 -3 5 -9 -10 -18 -14 -21 -9 -3 5 3 18 14 30 16
17 17 21 4 26 -21 8 -24 8 -24 -5 0 -5 5 -7 11 -3 8 4 7 0 -1 -15 -6 -12 -15
-19 -19 -16 -14 8 -20 -21 -8 -36 10 -11 9 -11 -4 -1 -9 6 -19 8 -24 4 -4 -4
0 5 9 19 9 14 13 30 9 34 -5 5 1 3 11 -5 18 -14 19 -13 13 4 -5 12 -1 26 9 37
16 17 16 19 0 25 -12 4 -14 10 -6 19 5 6 8 15 5 18 -3 4 -2 5 1 3 3 -3 12 0
19 7 9 9 8 15 -8 28 -19 15 -16 46 3 34 5 -3 11 -1 15 5 3 5 1 10 -4 10 -6 0
-11 11 -11 25 0 14 5 24 11 22 6 -1 14 5 16 13 4 12 3 12 -5 1 -7 -9 -12 -10
-16 -2 -4 6 -12 9 -17 6 -5 -4 -9 -1 -9 4 0 6 5 11 11 11 6 0 9 6 6 13 -2 6
-10 11 -17 9 -11 -3 -11 0 -1 12 17 21 30 12 27 -19 -2 -13 1 -22 5 -19 12 7
1 67 -15 79 -14 11 -18 47 -4 39 5 -3 6 -10 3 -15 -3 -5 2 -6 11 -2 13 5 15 3
9 -7 -5 -8 -4 -11 3 -6 12 7 8 42 -7 60 -6 8 -6 17 1 26 8 13 9 12 5 -2 -8
-22 3 -30 21 -15 13 9 14 9 8 0 -4 -8 -1 -13 8 -13 9 0 16 -4 16 -10 0 -5 3
-9 8 -9 19 3 25 -2 12 -11 -9 -6 -10 -10 -3 -10 24 0 23 20 -4 45 l-28 27 27
-17 c15 -9 30 -25 33 -36 4 -11 11 -17 16 -13 6 3 5 12 -3 22 -12 15 -11 16 4
4 10 -8 16 -17 15 -20 -3 -9 7 -12 36 -12 18 0 19 2 7 10 -13 8 -12 10 3 10 9
0 17 -5 17 -11 0 -8 6 -7 18 2 16 13 16 13 2 -5 -14 -18 -13 -18 10 -12 17 5
21 4 11 -2 -11 -8 -11 -11 0 -16 8 -3 4 -3 -8 0 -17 4 -22 1 -20 -16 1 -19 17
-30 17 -11 0 5 9 11 20 14 22 6 26 -3 9 -20 -8 -8 -7 -13 2 -18 7 -5 10 -4 6
2 -4 6 1 17 10 24 15 12 16 12 10 -3 -3 -10 -2 -20 4 -23 5 -4 9 -3 8 2 -3 19
2 33 12 33 6 0 8 -9 4 -20 -4 -12 -2 -20 5 -20 6 0 8 5 5 10 -3 5 1 10 10 10
10 0 13 -5 9 -12 -4 -7 -4 -10 1 -6 4 4 15 2 23 -5 13 -10 14 -9 4 9 -9 18 -8
24 6 35 15 13 16 12 3 -3 -11 -15 -11 -19 3 -24 9 -3 13 -11 9 -17 -3 -6 -1
-7 5 -3 12 7 16 -4 13 -34 -2 -12 0 -13 7 -1 8 11 11 10 19 -4 9 -16 11 -16
16 -1 5 11 3 15 -5 10 -7 -5 -8 -3 -3 6 5 8 4 11 -3 6 -6 -3 -14 -1 -18 5 -4
8 -3 9 4 5 8 -4 12 0 13 11 0 14 2 13 10 -5 5 -13 14 -20 20 -16 6 3 15 1 19
-5 4 -7 16 -13 27 -14 12 0 19 -6 16 -13 -3 -8 2 -11 16 -7 12 3 21 10 21 16
0 6 3 7 7 4 3 -4 11 -3 18 1 6 4 2 -1 -8 -11 -24 -21 -15 -36 10 -16 11 9 14
10 9 2 -5 -9 -1 -13 11 -13 16 -1 15 -3 -6 -20 -13 -11 -18 -20 -13 -20 6 0
14 5 18 11 4 8 12 3 21 -12 11 -18 13 -19 8 -4 -4 11 -8 25 -9 30 -1 6 -5 16
-10 23 -4 7 -5 16 -2 19 3 4 6 1 6 -6 0 -7 4 -10 8 -7 4 2 9 -5 9 -16 2 -21
43 -67 43 -48 0 5 5 10 11 10 5 0 7 -5 3 -12 -5 -7 -3 -8 6 -3 18 11 80 15 80
4 0 -4 -13 -6 -30 -4 -16 2 -32 0 -35 -5 -3 -5 6 -7 21 -4 16 3 23 1 19 -6 -3
-5 0 -7 8 -4 8 3 18 0 22 -5 3 -6 11 -9 16 -5 5 3 7 10 3 15 -3 5 -10 7 -15 4
-5 -4 -6 2 -2 11 4 12 8 14 11 6 3 -10 7 -10 20 0 15 12 16 11 3 -5 -13 -16
-12 -19 7 -24 12 -3 19 -9 16 -14 -3 -5 0 -9 6 -9 6 0 8 -5 4 -12 -4 -7 -3 -8
5 -4 6 4 8 13 5 19 -4 7 -4 9 1 5 4 -4 15 -2 24 5 14 10 14 10 4 -4 -7 -9 -10
-19 -6 -22 3 -4 1 -7 -5 -7 -7 0 -12 -6 -12 -12 1 -7 9 -3 18 8 16 18 21 20
36 8 20 -14 49 -8 39 10 -3 6 3 3 14 -7 16 -14 22 -15 26 -5 4 10 6 10 6 -1 1
-11 4 -11 19 0 16 13 16 13 2 -5 -13 -18 -13 -19 1 -14 9 4 16 1 16 -7 0 -11
-5 -12 -21 -2 -25 13 -60 17 -77 7 -8 -6 -8 -9 0 -14 6 -4 11 -3 11 2 0 5 12
8 28 7 21 -1 26 -6 24 -21 -2 -16 -1 -17 8 -4 9 13 13 11 30 -10 16 -20 19
-21 13 -5 -6 18 -5 18 10 6 12 -9 14 -17 7 -26 -7 -8 -5 -12 5 -12 8 0 12 4 9
9 -3 4 -1 8 5 8 5 0 13 -5 16 -11 4 -6 13 -8 20 -5 8 3 16 2 18 -2 2 -4 2 -1
1 6 -5 20 10 14 25 -11 l14 -22 14 30 c10 21 13 23 9 8 -2 -13 1 -26 6 -30 6
-3 9 -2 6 3 -3 5 0 14 7 21 10 10 14 9 19 -4 5 -13 9 -13 22 -2 12 10 15 10
12 -2 -2 -9 4 -13 17 -12 11 1 14 0 8 -3 -7 -3 -13 -11 -13 -17 0 -6 -8 -20
-17 -31 -18 -21 -18 -21 3 -4 19 17 21 17 39 0 16 -14 17 -14 7 0 -7 9 -9 18
-5 20 4 3 1 3 -7 1 -12 -3 -13 -2 -2 8 10 11 16 10 30 -5 12 -13 12 -16 2 -10
-13 7 -13 6 -1 -9 15 -18 26 -23 16 -7 -5 9 23 15 48 11 4 0 7 4 7 11 0 6 2 9
5 6 3 -3 2 -13 -1 -22 -5 -14 -9 -15 -16 -4 -8 10 -9 10 -5 -2 2 -8 12 -14 22
-12 10 2 14 -1 10 -7 -4 -7 0 -8 10 -4 13 4 14 7 3 14 -11 7 -10 10 1 21 9 8
11 9 7 1 -3 -6 -1 -15 5 -18 5 -4 8 -13 5 -20 -3 -8 2 -11 15 -8 20 5 27 -11
9 -20 -6 -3 -5 -4 2 -3 7 2 12 13 11 25 -4 32 4 26 27 -21 12 -24 19 -33 17
-20 -3 12 -1 22 4 22 9 0 13 -16 9 -35 -1 -5 4 -4 11 3 15 14 33 16 24 2 -10
-16 1 -11 16 7 8 10 9 14 2 10 -6 -4 -14 -3 -17 2 -4 5 2 8 11 6 10 -1 17 -7
16 -13 -1 -5 7 -18 17 -27 12 -11 20 -13 20 -7 0 7 -5 12 -11 12 -5 0 -7 5 -3
12 4 7 3 8 -4 4 -8 -5 -10 -1 -5 10 5 14 7 14 18 -5 6 -12 14 -18 19 -14 4 4
5 -1 1 -12 -3 -11 1 -7 8 9 l14 28 7 -23 c5 -19 8 -21 15 -9 5 8 7 18 4 24 -3
5 -1 6 5 2 9 -5 9 -13 2 -26 -5 -10 -10 -20 -10 -23 0 -7 35 -1 49 8 9 5 12 4
7 -3 -8 -14 30 -36 46 -26 6 4 9 3 6 -2 -3 -5 6 -18 21 -29 l26 -20 -17 26
c-13 21 -14 26 -2 26 8 0 12 -2 9 -5 -2 -2 3 -11 11 -19 8 -8 11 -20 7 -26 -4
-8 -1 -7 9 1 11 9 18 10 23 2 3 -5 1 -10 -4 -10 -6 0 -11 -5 -11 -12 0 -9 3
-9 12 0 17 17 33 15 18 -3 -7 -8 -9 -15 -4 -16 5 0 23 -2 39 -4 18 -3 23 -1
13 3 -15 6 -15 9 -1 27 11 15 14 15 10 3 -3 -9 0 -19 8 -22 8 -3 12 -12 9 -21
-3 -8 -1 -15 6 -15 6 0 8 5 5 10 -9 14 9 12 24 -3 7 -6 12 -7 11 -2 -5 22 1
26 16 11 12 -12 20 -13 35 -6 10 6 19 15 19 20 0 6 4 10 9 10 5 0 8 -13 6 -28
-3 -23 0 -28 18 -28 12 0 28 7 35 15 11 14 11 12 2 -6 -12 -25 -2 -30 20 -10
8 6 4 -1 -10 -17 -14 -16 -19 -26 -11 -21 11 6 13 4 8 -9 -4 -11 -3 -15 4 -11
6 4 8 13 5 21 -3 8 1 14 10 14 9 0 12 -5 8 -12 -5 -9 -2 -8 9 1 10 8 21 11 24
7 4 -4 1 -12 -7 -17 -15 -10 10 -5 50 9 12 5 13 3 3 -9 -10 -13 -10 -16 2 -16
8 0 12 3 10 7 -6 10 32 39 40 32 4 -4 2 3 -6 15 -7 12 -15 20 -19 18 -3 -1
-11 3 -17 10 -10 11 -9 15 7 20 16 5 17 9 7 20 -9 9 -14 10 -19 1 -6 -8 -8 -8
-8 1 0 6 5 15 10 18 6 3 10 11 10 16 0 6 -6 7 -12 3 -10 -6 -10 -5 -1 8 7 8
10 18 6 22 -4 4 1 4 12 1 14 -4 12 -1 -5 9 l-25 15 25 1 c19 0 22 2 10 9 -8 6
-17 8 -20 6 -3 -2 -5 13 -5 33 1 21 -4 43 -10 51 -8 12 -6 12 12 3 26 -14 45
-16 24 -3 -13 8 -13 12 -1 28 12 15 12 16 0 6 -20 -18 -35 -16 -20 2 7 9 10
18 7 22 -4 3 -2 12 5 20 8 10 8 17 0 25 -6 6 -8 17 -5 24 3 8 0 14 -7 14 -6 0
-8 -4 -5 -10 9 -15 -1 -12 -14 4 -9 11 -9 16 0 22 8 5 9 3 4 -6 -5 -8 -4 -11
3 -6 6 4 9 13 5 21 -3 9 1 15 8 15 9 1 8 4 -4 11 -21 12 -46 1 -26 -12 7 -4
10 -11 6 -16 -5 -4 -12 -1 -17 7 -12 20 8 42 31 35 12 -4 19 -1 19 6 0 7 -3 9
-6 6 -4 -3 -15 -2 -25 3 -12 7 -19 6 -21 -2 -2 -6 -12 -12 -21 -14 -9 -1 -14
2 -11 8 3 5 8 7 12 4 3 -3 11 2 18 12 10 14 10 20 -4 36 -9 11 -11 16 -4 12 7
-4 12 -1 12 9 0 9 5 13 11 9 8 -5 8 -1 0 14 -16 30 -13 40 4 18 8 -11 15 -15
15 -9 0 6 -7 16 -15 23 -13 11 -13 15 -3 21 9 6 9 9 1 9 -6 0 -10 8 -8 18 1 9
0 22 -4 27 -10 18 -11 45 -1 45 6 0 10 5 10 10 0 6 -8 5 -19 -2 -16 -10 -18
-15 -8 -28 11 -13 10 -13 -5 -1 -23 17 -23 15 7 46 14 14 22 25 17 25 -4 0
-13 -5 -19 -11 -8 -8 -13 -7 -18 2 -6 8 -4 10 5 4 10 -6 12 -4 7 9 -4 10 -3
15 3 11 6 -3 10 -1 10 4 0 10 -13 15 -31 13 -3 -1 -6 5 -6 13 0 8 5 11 11 7
21 -13 32 -9 33 10 2 18 0 18 -10 5 -11 -14 -13 -14 -27 1 -13 14 -12 15 2 10
10 -4 19 -1 22 8 8 21 8 24 -5 24 -5 0 -7 -4 -4 -10 3 -6 1 -10 -5 -10 -7 0
-10 7 -6 15 3 8 -2 19 -12 24 -9 6 -12 11 -5 11 6 0 15 -4 18 -10 3 -5 12 -10
18 -9 9 0 9 2 0 6 -17 6 -17 55 0 72 10 11 10 13 0 7 -9 -5 -13 2 -13 26 0 19
6 40 13 47 10 10 9 12 -2 9 -8 -2 -17 5 -19 14 -3 14 1 16 15 11 10 -4 3 7
-16 26 -26 26 -31 35 -21 44 10 9 11 9 6 0 -4 -7 -2 -13 3 -13 15 0 7 40 -10
50 -9 6 -21 3 -34 -8 -16 -13 -16 -12 3 9 12 14 22 31 22 37 0 7 3 11 8 9 4
-1 7 3 7 8 0 6 -4 9 -8 7 -5 -1 -7 3 -4 10 2 7 10 12 16 10 7 -1 10 2 7 7 -4
5 -3 11 1 14 5 2 2 2 -4 1 -15 -4 -17 12 -3 19 6 3 5 4 -2 3 -7 -2 -13 -11
-13 -21 0 -10 -6 -20 -13 -23 -10 -3 -10 -7 -1 -18 17 -21 1 -17 -22 5 -18 17
-18 19 -3 18 9 -1 19 4 21 11 3 8 -2 10 -14 6 -15 -5 -16 -4 -3 5 13 10 13 12
0 21 -13 9 -13 10 0 11 10 0 9 3 -5 10 l-20 9 20 -3 c11 -2 19 -9 18 -15 -2
-7 2 -12 7 -12 6 0 10 5 10 11 0 5 4 8 9 5 5 -3 8 2 7 12 0 9 5 16 12 14 8 -1
11 2 6 9 -5 9 -12 6 -25 -10 -10 -12 -20 -17 -23 -12 -4 5 -2 13 4 16 8 5 8
11 0 20 -8 10 -8 14 2 17 8 3 7 6 -4 11 -13 4 -16 1 -13 -14 2 -10 0 -19 -4
-19 -5 0 -8 11 -8 25 0 20 3 24 18 20 11 -4 19 -2 19 4 0 6 -6 10 -12 8 -15
-2 -11 36 4 42 5 1 2 12 -8 22 -13 15 -14 19 -3 19 10 1 9 4 -3 11 -10 5 -18
15 -18 21 0 6 8 20 18 31 16 19 16 20 -5 8 -13 -6 -23 -17 -23 -23 0 -6 -3 -8
-6 -5 -4 4 -1 14 6 22 9 11 10 22 3 38 -5 12 -9 31 -9 42 1 11 -6 23 -14 27
-11 6 -10 7 5 5 13 -2 19 -9 17 -20 -2 -11 4 -17 15 -17 15 0 16 2 3 10 -14 9
-7 14 13 11 5 -1 6 3 2 9 -3 6 -11 8 -16 5 -5 -4 -9 1 -9 10 0 10 5 14 13 10
6 -4 1 3 -12 14 -12 12 -28 18 -35 14 -6 -3 -3 3 7 14 9 11 17 23 17 28 0 5 8
17 18 29 17 19 17 19 -8 3 -34 -23 -47 -21 -19 3 21 17 22 19 6 20 -10 0 -15
-4 -12 -10 3 -5 1 -10 -4 -10 -15 0 -14 19 3 36 18 17 30 18 20 2 -5 -9 -2 -9
9 1 18 14 22 22 10 20 -5 -1 -15 -1 -23 0 -13 1 -13 2 0 12 13 9 13 10 0 6 -8
-2 -16 -9 -16 -15 -1 -7 -2 -15 -3 -19 -2 -10 -41 29 -41 41 0 6 5 3 11 -7 10
-17 29 -15 29 4 0 6 -5 7 -12 3 -7 -4 -8 -3 -4 4 4 7 2 12 -4 12 -7 0 -10 7
-6 15 3 8 0 15 -7 15 -8 0 -8 3 2 9 11 7 10 11 -5 21 -16 10 -16 11 -1 6 9 -3
17 -1 17 4 0 5 -8 14 -17 19 -17 10 -17 10 0 11 17 0 19 -5 21 -45 1 -11 5
-26 10 -34 6 -10 5 -12 -2 -7 -7 4 -12 5 -12 2 0 -3 9 -10 21 -16 19 -11 20
-10 9 9 -6 12 -7 21 -3 21 4 0 2 5 -5 12 -8 8 -8 17 -1 31 9 15 8 18 -2 12 -9
-6 -11 -3 -6 9 4 10 3 15 -3 11 -6 -3 -10 -2 -10 4 0 5 8 15 18 20 9 6 11 11
5 11 -7 0 -13 7 -13 15 0 8 -5 15 -10 15 -7 0 -7 -6 -1 -19 13 -23 -11 -51
-25 -30 -4 8 -3 9 4 5 8 -5 12 1 12 16 0 18 -2 20 -10 8 -6 -9 -10 -10 -10 -3
0 6 5 15 10 18 8 5 7 11 0 20 -13 15 -6 35 12 35 6 0 5 -7 -3 -17 -8 -9 -9
-14 -2 -10 6 4 14 1 17 -5 2 -7 4 -3 2 9 -1 12 -5 26 -9 29 -11 11 -8 26 4 19
6 -4 5 2 -2 13 -7 12 -15 20 -18 19 -4 -1 -6 3 -6 8 0 5 3 9 8 8 4 -2 7 0 8 5
0 4 2 14 4 23 1 9 -3 16 -11 16 -10 0 -11 -4 -3 -14 8 -9 8 -13 0 -13 -6 0
-12 6 -12 13 -4 48 -6 63 -8 67 -8 18 -9 50 -2 50 6 0 8 -8 6 -18 -2 -11 6
-24 18 -32 21 -13 21 -12 4 13 -10 16 -13 28 -7 32 14 9 1 27 -13 18 -7 -3 -3
4 8 17 11 13 14 20 7 16 -10 -6 -13 0 -10 25 2 24 7 33 18 31 11 -3 10 2 -5
17 -14 16 -20 18 -27 9 -4 -7 -5 -21 -2 -31 6 -18 5 -18 -15 0 -24 20 -26 24
-8 21 7 -2 12 10 13 32 2 45 7 63 19 72 13 10 0 21 -28 23 -12 1 -20 6 -17 11
3 5 10 8 15 6 6 -1 1 4 -9 13 -15 11 -16 18 -8 28 9 10 9 16 0 25 -9 9 -9 15
0 24 17 17 15 33 -2 19 -12 -10 -14 -9 -11 6 2 10 4 28 4 40 1 16 6 21 21 18
11 -2 18 0 15 5 -3 5 -14 7 -25 5 -24 -5 -32 6 -18 25 8 12 9 12 4 -2 -8 -25
1 -22 15 3 8 15 8 19 0 15 -6 -4 -11 -2 -11 4 0 6 -4 9 -8 6 -4 -2 -8 4 -9 14
-1 11 2 22 8 25 5 4 6 -2 2 -12 -3 -10 -3 -15 1 -12 15 14 14 49 -2 58 -9 5
-13 13 -9 17 4 4 -1 16 -10 27 -10 11 -12 17 -5 13 14 -8 12 19 -2 44 -7 12
-7 13 5 2 8 -7 15 -17 15 -22 1 -6 2 -14 3 -20 0 -5 6 -10 12 -10 8 0 8 4 2
13 -5 6 -9 19 -8 27 0 8 -9 23 -20 33 -11 10 -14 16 -7 12 6 -3 12 -1 12 5 0
6 4 9 8 6 5 -3 8 9 7 27 -1 18 3 39 9 47 5 8 6 12 1 7 -4 -4 -17 0 -27 10 -12
10 -18 12 -18 4 0 -7 -5 -9 -11 -5 -19 12 13 24 35 13 18 -9 18 -7 -3 10 -12
12 -28 18 -35 14 -7 -4 -7 -2 1 8 10 12 10 18 1 27 -7 7 -9 12 -5 12 4 0 3 9
-3 20 -9 16 -8 18 5 14 8 -3 13 -10 10 -14 -3 -5 -1 -11 4 -15 5 -3 8 -14 6
-24 -2 -10 3 -18 11 -18 10 0 11 4 5 10 -7 7 -5 15 7 24 16 12 15 13 -3 6 -11
-3 -17 -3 -13 2 4 4 2 15 -5 23 -10 13 -8 14 11 8 14 -5 22 -3 22 4 0 6 -4 9
-8 6 -15 -9 -35 11 -26 25 5 8 10 22 11 31 3 17 2 17 -17 1 -25 -21 -25 -24
-2 -16 15 6 15 5 4 -10 -8 -9 -10 -22 -6 -29 5 -10 4 -10 -5 -2 -7 7 -14 34
-15 61 -1 27 -6 56 -11 64 -6 11 -5 11 5 2 14 -13 40 -7 40 10 0 8 -3 8 -11 0
-9 -9 -15 -8 -25 2 -19 18 -18 29 2 21 11 -4 9 3 -7 26 -13 17 -18 28 -12 25
7 -4 14 -3 17 2 3 5 0 11 -7 14 -14 5 -16 54 -3 76 6 9 5 12 -2 7 -6 -3 -13
-2 -17 4 -3 5 1 10 9 10 8 0 18 5 22 12 4 6 3 8 -2 5 -6 -3 -16 3 -23 15 -7
11 -8 17 -2 13 6 -3 11 -1 11 4 0 6 -4 11 -10 11 -5 0 -10 5 -10 11 0 5 6 7
13 3 8 -5 8 -2 -2 9 -11 14 -11 20 -1 32 11 13 11 18 0 28 -9 9 -11 9 -6 0 3
-6 2 -14 -2 -17 -5 -3 -8 7 -7 22 1 15 -3 31 -9 35 -7 5 -5 7 4 4 8 -2 14 -9
13 -15 -2 -6 4 -9 12 -5 14 5 13 7 -1 18 -12 8 -14 14 -5 19 6 4 9 12 6 17 -4
5 0 9 7 9 9 0 9 3 -2 10 -10 6 -22 5 -36 -5 -14 -9 -25 -10 -35 -3 -11 8 -11
9 3 5 9 -3 24 3 34 14 17 19 7 28 -12 9 -7 -7 -11 -6 -11 4 0 8 4 13 9 10 10
-6 11 10 1 20 -12 11 -13 46 -2 46 5 0 8 -4 5 -9 -3 -5 1 -12 10 -15 23 -9 31
-7 14 4 -12 7 -11 12 5 31 11 12 15 19 8 16 -6 -4 -14 -3 -18 2 -3 5 3 14 12
20 10 6 13 11 8 11 -6 0 -16 -5 -22 -11 -9 -9 -12 -7 -10 10 1 11 5 21 9 21 4
0 8 5 8 12 0 6 -3 8 -7 5 -9 -9 -33 12 -33 30 0 8 4 12 9 8 5 -3 12 -1 16 4 3
6 -6 8 -21 5 -16 -3 -23 -1 -19 6 3 5 -1 10 -11 10 -13 0 -11 4 7 20 24 20 24
20 5 35 -11 8 -15 15 -9 15 7 0 11 8 11 18 0 9 3 25 7 35 4 10 3 17 -5 17 -6
0 -9 -4 -6 -8 2 -4 1 -14 -4 -22 -8 -12 -11 -13 -22 -2 -11 11 -10 13 2 10 10
-2 15 4 14 19 -1 13 2 20 7 17 5 -3 6 2 3 10 -3 9 -14 16 -23 17 -12 0 -11 2
4 8 11 5 25 6 30 3 6 -3 4 2 -4 11 -9 11 -10 17 -2 17 6 0 11 4 11 8 0 5 -7 9
-15 9 -8 0 -12 -4 -9 -9 3 -4 1 -8 -4 -8 -5 0 -9 15 -9 34 1 19 5 33 9 30 4
-3 5 -12 2 -22 -5 -14 -4 -14 4 -3 15 21 3 43 -20 38 -15 -4 -17 -2 -9 7 6 7
7 17 3 22 -4 4 1 2 11 -5 15 -12 17 -12 10 5 -6 17 -5 18 12 4 18 -14 18 -14
3 10 -9 14 -14 37 -13 53 2 15 -1 27 -6 27 -6 0 -8 -4 -5 -8 2 -4 1 -14 -3
-21 -6 -9 -11 -10 -15 -2 -4 6 -3 11 3 11 5 0 8 8 6 18 -1 9 -10 16 -19 16 -8
-1 -13 3 -10 8 3 5 12 7 20 4 8 -3 14 -1 14 4 0 5 8 7 18 4 14 -5 14 -4 -2 6
-15 10 -16 14 -5 22 11 8 11 9 -1 5 -8 -2 -14 -10 -13 -16 4 -17 -14 -13 -21
5 -3 8 -2 13 3 10 14 -9 23 26 11 38 -8 8 -9 6 -4 -8 7 -18 6 -18 -14 0 -26
22 -27 25 -5 17 11 -4 14 -3 9 6 -9 14 15 11 27 -4 5 -6 7 -3 4 7 -3 9 -1 19
6 22 7 3 -3 3 -22 0 -27 -4 -32 -2 -28 10 4 9 2 18 -3 21 -4 3 -7 13 -5 23 1
9 -2 23 -8 30 -7 9 -6 16 3 25 10 10 11 9 5 -2 -5 -9 -4 -12 2 -8 6 4 9 -4 7
-18 -1 -14 2 -23 7 -19 5 3 7 16 5 30 -3 14 0 24 7 24 8 0 7 4 -2 9 -18 12
-25 51 -9 51 17 0 3 10 -21 15 -21 4 -30 -10 -11 -17 17 -5 20 -46 4 -52 -12
-4 -13 -2 -5 12 7 12 5 22 -6 34 -16 18 -9 43 9 32 6 -4 8 -1 6 7 -3 8 -11 13
-18 11 -11 -2 -11 0 -2 11 14 17 11 49 -7 70 -10 13 -9 15 5 13 12 -2 19 -12
19 -30 3 -39 12 -41 12 -2 0 25 -6 37 -21 45 -19 9 -19 10 -2 8 11 -1 20 5 21
15 2 10 0 17 -3 17 -21 -3 -24 3 -8 14 17 13 18 14 2 20 -10 4 -15 3 -11 -3 3
-6 2 -10 -3 -10 -5 0 -9 12 -9 26 0 20 2 23 9 13 8 -11 9 -10 5 2 -3 9 -1 21
5 27 7 7 6 16 -1 30 -14 26 -14 35 -1 27 6 -3 7 1 4 9 -3 9 -10 16 -16 16 -5
0 -6 -5 -2 -11 3 -6 -5 -3 -20 6 -28 18 -33 27 -15 23 6 -2 13 9 16 24 3 23 0
26 -17 23 -11 -2 -23 1 -26 7 -5 7 -2 8 6 3 10 -6 12 -3 7 11 -7 18 -6 18 7 1
14 -19 33 -7 21 13 -5 9 6 14 26 12 3 0 5 10 5 24 0 13 -4 24 -8 24 -4 0 -8
-4 -8 -8 0 -4 -12 -8 -27 -9 -25 -2 -26 -1 -7 7 29 12 38 28 24 45 -8 9 -8 15
0 20 6 3 8 11 4 16 -3 5 -10 6 -16 3 -6 -4 -8 1 -4 14 4 13 1 22 -9 26 -16 6
-22 28 -6 24 5 -2 9 2 9 7 0 6 -4 9 -8 8 -4 -1 -11 10 -15 24 -5 22 -8 24 -16
12 -9 -12 -10 -12 -6 1 2 8 10 14 17 12 6 -1 10 3 7 10 -2 7 -9 12 -14 11 -5
-1 -10 5 -10 12 0 11 4 12 13 4 8 -7 14 -6 20 2 4 8 3 9 -4 5 -7 -4 -12 -2
-12 3 0 6 -6 11 -14 11 -18 0 -29 27 -14 36 7 4 8 3 4 -4 -5 -8 -1 -10 11 -6
15 5 16 4 3 -6 -12 -9 -12 -11 -1 -8 20 6 26 28 8 28 -9 0 -17 5 -19 10 -2 6
-13 12 -26 15 -13 2 -20 0 -17 -6z m21 -21 c-9 -5 -14 -13 -12 -17 3 -4 -1 -8
-9 -8 -10 0 -10 5 3 23 9 12 21 20 26 17 5 -3 1 -10 -8 -15z m-126 -128 c0 -5
-5 -10 -11 -10 -5 0 -7 5 -4 10 3 6 8 10 11 10 2 0 4 -4 4 -10z m168 -65 c-3
-3 -9 2 -12 12 -6 14 -5 15 5 6 7 -7 10 -15 7 -18z m27 -15 c-3 -5 -11 -10
-16 -10 -6 0 -7 5 -4 10 3 6 11 10 16 10 6 0 7 -4 4 -10z m-268 -6 c-3 -3 -12
-4 -19 -1 -8 3 -5 6 6 6 11 1 17 -2 13 -5z m284 -27 c-7 -7 -7 -16 0 -29 5
-10 8 -18 7 -19 -30 -8 -37 -6 -29 8 4 9 6 23 4 33 -3 10 1 17 12 17 10 0 12
-4 6 -10z m-364 -54 c-2 -2 -14 -6 -27 -8 -18 -3 -20 -2 -10 10 6 8 18 11 26
8 8 -3 13 -7 11 -10z m320 -8 c0 -8 -4 -12 -9 -9 -5 3 -6 10 -3 15 9 13 12 11
12 -6z m66 -26 c-4 -4 -19 -10 -33 -14 -23 -7 -24 -6 -6 7 19 15 54 21 39 7z
m-413 -13 c0 -2 -7 -6 -15 -10 -8 -3 -15 -1 -15 4 0 6 7 10 15 10 8 0 15 -2
15 -4z m-176 -152 c3 -8 2 -12 -4 -9 -6 3 -10 10 -10 16 0 14 7 11 14 -7z
m606 -35 c0 -4 -4 -11 -10 -14 -5 -3 -10 -1 -10 5 0 6 -5 8 -12 4 -9 -5 -9 -2
1 9 8 11 10 22 5 30 -5 7 -1 4 9 -6 9 -11 17 -23 17 -28z m-663 -54 c0 -8 -4
-12 -9 -9 -5 3 -6 10 -3 15 9 13 12 11 12 -6z m-2551 -17 c4 -7 3 -8 -4 -4 -7
4 -12 2 -12 -5 0 -7 -3 -10 -6 -6 -6 5 3 27 11 27 2 0 7 -5 11 -12z m221 -10
c-3 -8 -6 -5 -6 6 -1 11 2 17 5 13 3 -3 4 -12 1 -19z m69 -6 c13 -20 13 -21
-1 -16 -8 3 -15 14 -15 23 0 14 -2 14 -10 1 -9 -13 -10 -13 -10 0 0 13 -1 13
-10 0 -8 -13 -10 -12 -10 2 0 25 36 18 56 -10z m-242 2 c3 -8 2 -12 -4 -9 -6
3 -10 10 -10 16 0 14 7 11 14 -7z m297 -9 c5 4 9 2 9 -3 0 -20 -30 -21 -40 -2
-15 27 -12 34 6 16 8 -9 20 -14 25 -11z m67 -37 c4 2 8 -2 10 -10 3 -11 2 -11
-6 0 -5 8 -12 13 -16 13 -18 -3 -24 1 -30 16 -6 14 -3 14 15 -3 11 -10 24 -18
27 -16z m-638 18 c0 -3 -4 -8 -10 -11 -5 -3 -10 -1 -10 4 0 6 5 11 10 11 6 0
10 -2 10 -4z m180 -2 c0 -8 -19 -13 -24 -6 -3 5 1 9 9 9 8 0 15 -2 15 -3z
m3264 -3 c4 -5 -3 -7 -14 -4 -23 6 -26 13 -6 13 8 0 17 -4 20 -9z m-770 -9
c-6 -4 -16 -16 -21 -27 -10 -18 -11 -17 -10 6 2 17 8 26 22 27 11 0 15 -2 9
-6z m-2931 -16 c4 -11 1 -13 -10 -9 -12 5 -14 3 -8 -8 8 -12 6 -12 -8 0 -18
14 -23 26 -8 16 5 -3 12 -1 16 5 8 13 12 13 18 -4z m271 6 c3 -5 -1 -9 -9 -9
-8 0 -12 4 -9 9 3 4 7 8 9 8 2 0 6 -4 9 -8z m131 -2 c3 -6 -1 -7 -9 -4 -18 7
-21 14 -7 14 6 0 13 -4 16 -10z m476 -17 c13 -16 12 -17 -3 -4 -10 7 -18 15
-18 17 0 8 8 3 21 -13z m-1101 -43 c0 -5 -2 -10 -4 -10 -3 0 -8 5 -11 10 -3 6
-1 10 4 10 6 0 11 -4 11 -10z m3047 -15 c0 -8 -4 -12 -9 -9 -5 3 -6 10 -3 15
9 13 12 11 12 -6z m-3152 -5 c3 -6 -1 -7 -9 -4 -18 7 -21 14 -7 14 6 0 13 -4
16 -10z m60 0 c3 -6 -1 -7 -9 -4 -18 7 -21 14 -7 14 6 0 13 -4 16 -10z m-465
-14 c0 -1 -9 -9 -19 -18 -17 -14 -20 -14 -25 -2 -3 9 -1 12 4 9 6 -3 10 -2 10
3 0 5 7 9 15 9 8 0 15 -1 15 -1z m1860 -21 c7 -9 8 -15 2 -15 -5 0 -12 7 -16
15 -3 8 -4 15 -2 15 2 0 9 -7 16 -15z m1660 -27 c0 -5 -5 -6 -10 -3 -6 3 -13
-1 -16 -10 -5 -13 -9 -14 -15 -4 -4 7 -3 19 2 26 11 13 39 7 39 -9z m-3525 2
c-3 -5 -12 -10 -18 -10 -7 0 -6 4 3 10 19 12 23 12 15 0z m-477 -45 c-3 -3 -9
2 -12 12 -6 14 -5 15 5 6 7 -7 10 -15 7 -18z m2405 -2 c-4 -10 -2 -14 5 -9 6
3 13 2 16 -3 4 -5 2 -12 -3 -15 -12 -8 -34 21 -26 34 10 16 15 12 8 -7z
m-2493 -28 c14 -19 14 -19 -2 -6 -10 7 -18 18 -18 24 0 6 1 8 3 6 1 -2 9 -13
17 -24z m-487 -35 c3 -11 1 -18 -4 -14 -5 3 -9 12 -9 20 0 20 7 17 13 -6z
m117 10 c-18 -12 -30 -13 -30 -2 0 4 10 9 22 9 18 2 20 0 8 -7z m194 2 c3 -5
-1 -9 -9 -9 -8 0 -12 4 -9 9 3 4 7 8 9 8 2 0 6 -4 9 -8z m2690 0 c3 -5 -1 -9
-9 -9 -8 0 -12 4 -9 9 3 4 7 8 9 8 2 0 6 -4 9 -8z m-3039 -21 c3 -5 2 -12 -3
-15 -5 -3 -9 1 -9 9 0 17 3 19 12 6z m3091 -15 c1 -7 -4 -13 -11 -13 -7 0 -11
7 -10 16 2 9 4 18 4 20 2 8 15 -10 17 -23z m1388 8 c3 -8 2 -12 -4 -9 -6 3
-10 10 -10 16 0 14 7 11 14 -7z m1046 -14 c0 -5 -5 -10 -11 -10 -5 0 -7 5 -4
10 3 6 8 10 11 10 2 0 4 -4 4 -10z m-5776 -38 c3 -5 -1 -9 -9 -9 -8 0 -12 4
-9 9 3 4 7 8 9 8 2 0 6 -4 9 -8z m60 -1 c4 -5 -3 -7 -14 -4 -23 6 -26 13 -6
13 8 0 17 -4 20 -9z m-415 -15 c9 -11 7 -13 -11 -12 -14 0 -22 -4 -20 -11 1
-7 -2 -13 -7 -13 -6 0 -9 9 -8 19 0 11 4 18 8 15 4 -2 10 0 14 6 8 13 10 13
24 -4z m-109 -8 c0 -10 2 -10 9 0 7 11 9 11 14 -2 7 -17 -8 -32 -17 -17 -5 8
-27 8 -46 1 -3 -1 -8 -2 -12 -1 -11 1 -10 -6 3 -32 10 -22 10 -22 -6 -2 -9 11
-23 19 -31 17 -12 -2 -11 1 3 17 11 14 21 17 29 11 8 -7 15 -5 24 5 15 18 30
20 30 3z m-114 -37 c0 -16 -3 -17 -14 -9 -12 10 -7 19 13 28 1 0 1 -9 1 -19z
m114 -1 c0 -5 -7 -7 -15 -4 -8 4 -15 8 -15 10 0 2 7 4 15 4 8 0 15 -4 15 -10z
m-356 -22 c-3 -4 -9 -8 -15 -8 -5 0 -9 4 -9 8 0 5 7 9 15 9 8 0 12 -4 9 -9z
m36 8 c0 -3 -4 -8 -10 -11 -5 -3 -10 -1 -10 4 0 6 5 11 10 11 6 0 10 -2 10 -4z
m-220 -45 c3 -2 -3 -1 -12 2 -9 3 -19 1 -21 -6 -3 -7 -4 -2 -4 10 1 21 7 20
37 -6z m-240 -24 c0 -5 7 -4 15 3 10 9 15 9 15 1 0 -6 -5 -11 -11 -11 -5 0 -7
-5 -3 -11 3 -6 -5 -3 -20 6 -30 20 -31 22 -11 22 8 0 15 -5 15 -10z m140 3 c0
-5 -4 -10 -10 -10 -5 0 -10 5 -10 10 0 6 5 10 10 10 6 0 10 -4 10 -10z m5659
7 c-2 -1 -13 -9 -24 -17 -19 -14 -19 -14 -6 3 7 9 18 17 24 17 6 0 8 -1 6 -3z
m1225 -5 c3 -5 -1 -9 -9 -9 -8 0 -12 4 -9 9 3 4 7 8 9 8 2 0 6 -4 9 -8z
m-7395 -31 c9 -6 10 -11 2 -15 -6 -4 -8 -12 -5 -18 5 -7 2 -8 -6 -3 -23 14
-62 15 -57 1 7 -17 -30 -14 -46 4 -8 9 -8 11 0 6 6 -3 14 -2 18 3 3 5 14 8 25
6 10 -2 24 3 31 11 13 16 19 17 38 5z m39 -26 c-3 -3 -9 2 -12 12 -6 14 -5 15
5 6 7 -7 10 -15 7 -18z m7420 -20 c0 -11 -2 -15 -6 -9 -4 6 -16 16 -27 21 -18
10 -17 11 6 10 17 -2 26 -8 27 -22z m-7635 -11 c-7 -19 -10 -18 -16 5 -3 13
-1 18 9 14 7 -2 10 -11 7 -19z m158 -1 c12 -16 12 -17 -2 -6 -9 7 -19 10 -22
6 -4 -3 -7 -1 -7 5 0 17 16 15 31 -5z m99 11 c0 -8 -19 -13 -24 -6 -3 5 1 9 9
9 8 0 15 -2 15 -3z m-532 -16 c8 -10 4 -13 -14 -14 -20 -2 -23 1 -13 12 14 17
14 17 27 2z m5516 1 c-2 -4 0 -11 6 -14 8 -5 8 -11 0 -20 -12 -14 11 -40 26
-27 4 4 2 -1 -5 -10 -7 -9 -9 -23 -5 -30 4 -7 4 -10 -1 -6 -4 4 -14 0 -22 -10
-10 -13 -13 -14 -11 -2 2 8 8 18 13 23 6 4 4 11 -5 17 -13 9 -13 10 0 10 13 0
13 2 1 9 -12 8 -12 12 -2 25 8 9 9 16 3 16 -5 0 -12 6 -15 13 -3 8 1 14 9 14
7 0 11 -4 8 -8z m-5594 -15 c0 -1 -7 -10 -16 -18 -18 -19 -41 -11 -25 8 9 11
41 18 41 10z m6551 -11 c13 -16 12 -17 -3 -5 -10 8 -19 9 -22 3 -3 -5 -3 -11
1 -14 5 -2 2 -2 -4 -1 -18 5 -16 -7 3 -20 13 -10 13 -12 -5 -12 -11 0 -17 4
-15 8 3 4 0 8 -7 8 -7 0 -2 11 11 25 28 30 24 29 41 8z m-6431 -3 c0 -5 -4
-10 -10 -10 -5 0 -10 5 -10 10 0 6 5 10 10 10 6 0 10 -4 10 -10z m-200 -44 c0
-2 -7 -3 -15 -3 -8 0 -15 4 -15 9 0 5 -5 6 -10 3 -6 -4 -8 -11 -5 -16 4 -5 1
-9 -4 -9 -9 0 -9 20 -2 48 1 3 51 -29 51 -32z m-78 7 c-6 -3 -10 -9 -6 -14 3
-5 0 -9 -5 -9 -6 0 -11 4 -11 8 0 12 23 32 29 25 3 -3 0 -8 -7 -10z m118 -3
c0 -5 -2 -10 -4 -10 -3 0 -8 5 -11 10 -3 6 -1 10 4 10 6 0 11 -4 11 -10z
m6497 -85 c0 -8 -4 -12 -9 -9 -5 3 -6 10 -3 15 9 13 12 11 12 -6z m-37 -9 c0
-3 -4 -8 -10 -11 -5 -3 -10 -1 -10 4 0 6 5 11 10 11 6 0 10 -2 10 -4z m-6899
-44 c-7 -2 -18 1 -23 6 -8 8 -4 9 13 5 13 -4 18 -8 10 -11z m-74 -34 c-3 -8
-6 -5 -6 6 -1 11 2 17 5 13 3 -3 4 -12 1 -19z m6882 0 c13 -21 13 -22 -2 -10
-9 8 -21 11 -26 7 -7 -3 -8 0 -5 9 8 22 17 20 33 -6z m-736 -23 c-3 -9 -8 -14
-10 -11 -3 3 -2 9 2 15 9 16 15 13 8 -4z m-6153 -5 c0 -5 -5 -10 -11 -10 -5 0
-7 5 -4 10 3 6 8 10 11 10 2 0 4 -4 4 -10z m6870 5 c0 -2 -6 -8 -13 -14 -10
-8 -14 -7 -14 2 0 8 6 14 14 14 7 0 13 -1 13 -2z m1695 -35 c-3 -5 -12 -10
-18 -10 -7 0 -6 4 3 10 19 12 23 12 15 0z m-1721 -8 c3 -5 -1 -9 -9 -9 -8 0
-12 4 -9 9 3 4 7 8 9 8 2 0 6 -4 9 -8z m-6961 -16 c4 -10 1 -13 -8 -9 -8 3
-12 9 -9 14 7 12 11 11 17 -5z m8714 -101 c0 -8 -5 -15 -10 -15 -6 0 0 -11 12
-24 12 -13 19 -26 14 -29 -14 -9 -36 9 -29 22 4 6 0 14 -9 17 -13 6 -14 8 -3
15 11 7 11 11 0 17 -7 5 -12 15 -10 23 2 8 -3 13 -10 11 -8 -1 -11 2 -7 9 9
13 52 -25 52 -46z m-8827 25 c0 -5 -5 -10 -11 -10 -5 0 -7 5 -4 10 3 6 8 10
11 10 2 0 4 -4 4 -10z m20 -24 c0 -3 -4 -8 -10 -11 -5 -3 -10 -1 -10 4 0 6 5
11 10 11 6 0 10 -2 10 -4z m6900 -29 c0 -4 -6 -2 -14 5 -8 7 -12 17 -9 22 5 8
23 -12 23 -27z m-6973 -23 c0 -7 -4 -11 -8 -8 -4 2 -10 0 -14 -6 -9 -15 -22
-12 -22 4 0 8 6 12 15 8 9 -3 13 -1 9 5 -3 5 0 10 7 10 7 0 13 -6 13 -13z
m8849 -2 c0 -10 -6 -19 -13 -19 -8 0 -9 6 -2 19 5 10 11 18 12 18 2 0 3 -8 3
-18z m-8861 -32 c-3 -5 -12 -10 -18 -10 -7 0 -6 4 3 10 19 12 23 12 15 0z
m-85 -81 c0 -5 -4 -9 -8 -9 -5 0 -9 7 -9 15 0 8 4 12 9 9 4 -3 8 -9 8 -15z
m9006 -26 c-3 -17 -26 -32 -26 -16 0 8 20 33 26 33 1 0 1 -8 0 -17z m-9075
-26 c-10 -9 -11 -8 -5 6 3 10 9 15 12 12 3 -3 0 -11 -7 -18z m14 -17 c-3 -5
-12 -10 -18 -10 -7 0 -6 4 3 10 19 12 23 12 15 0z m6700 -50 c-6 -10 20 -32
28 -24 4 4 5 -3 2 -15 -2 -11 1 -21 7 -21 6 0 8 -3 5 -6 -4 -4 -13 -1 -22 6
-18 15 -20 0 -2 -20 10 -12 9 -12 -6 0 -10 7 -16 19 -13 26 3 7 1 16 -4 19 -5
3 -10 0 -13 -7 -2 -7 -3 -5 -2 5 2 9 -2 17 -8 18 -8 0 -8 2 1 6 6 2 12 9 12
15 0 6 -6 8 -13 5 -8 -3 -14 1 -14 8 0 10 6 11 23 3 13 -6 21 -14 19 -18z
m139 5 c3 -8 2 -14 -2 -14 -19 3 -33 -2 -27 -10 3 -5 1 -12 -5 -16 -6 -4 -7
-11 -4 -17 4 -7 2 -8 -5 -4 -6 4 -9 13 -5 19 3 7 -4 1 -15 -13 -11 -14 -21
-19 -21 -12 0 10 67 82 76 82 1 0 4 -7 8 -15z m-6935 -91 c4 3 8 -1 8 -8 0
-11 -4 -12 -18 -3 -10 6 -15 16 -12 21 4 6 8 5 11 -2 2 -7 7 -10 11 -8z m6825
-32 c3 -5 -1 -9 -9 -9 -8 0 -12 4 -9 9 3 4 7 8 9 8 2 0 6 -4 9 -8z m-6916
-206 c-7 -8 -15 -12 -17 -11 -5 6 10 25 20 25 5 0 4 -6 -3 -14z m9327 -307
c-1 -18 -7 -35 -13 -37 -15 -5 -15 3 -1 30 10 18 9 20 -5 15 -13 -5 -14 -3 -4
13 16 25 25 18 23 -21z m-9422 -12 c3 -8 -1 -14 -8 -14 -7 0 -11 6 -8 14 3 7
6 13 8 13 2 0 5 -6 8 -13z m30 -12 c-3 -9 -8 -14 -10 -11 -3 3 -2 9 2 15 9 16
15 13 8 -4z m-32 -102 c13 -17 13 -17 -5 -3 -18 14 -19 13 -13 -4 6 -16 5 -17
-8 -6 -13 11 -13 15 -3 21 7 5 14 9 14 9 1 0 8 -8 15 -17z m9439 -77 c0 -2 -7
-7 -16 -10 -8 -3 -12 -2 -9 4 6 10 25 14 25 6z m40 -324 c0 -4 -10 -9 -22 -9
-18 -2 -20 0 -8 7 18 12 30 13 30 2z m-7 -29 c-7 -2 -13 -12 -13 -20 0 -9 -3
-14 -6 -10 -10 10 4 37 18 36 10 0 10 -2 1 -6z m-9433 -83 c0 -5 -2 -10 -4
-10 -3 0 -8 5 -11 10 -3 6 -1 10 4 10 6 0 11 -4 11 -10z m9470 -4 c0 -3 -4 -8
-10 -11 -5 -3 -10 -1 -10 4 0 6 5 11 10 11 6 0 10 -2 10 -4z m-10 -82 c0 -2
-9 0 -20 6 -11 6 -20 13 -20 16 0 2 9 0 20 -6 11 -6 20 -13 20 -16z m-9436
-106 c-3 -4 -11 -5 -19 -1 -21 7 -19 12 4 10 11 0 18 -5 15 -9z m0 -59 c-3 -5
-10 -7 -15 -3 -5 3 -7 10 -3 15 3 5 10 7 15 3 5 -3 7 -10 3 -15z m9439 -64 c4
-8 3 -16 -1 -19 -4 -3 -9 4 -9 15 -2 23 3 25 10 4z m-9423 -28 c12 -4 11 -6
-3 -6 -10 -1 -15 -6 -12 -11 4 -6 10 -8 14 -6 4 3 8 -1 8 -8 0 -8 -7 -13 -15
-12 -10 2 -17 15 -18 36 -2 19 0 29 4 24 4 -6 14 -14 22 -17z m9500 -411 c0
-2 -9 -6 -20 -9 -11 -3 -18 -1 -14 4 5 9 34 13 34 5z m-9423 -196 c2 -20 -8
-26 -20 -13 -4 3 -2 12 4 20 15 17 14 17 16 -7z m9430 -7 c-4 -3 -2 -12 3 -18
13 -15 -8 -68 -23 -58 -5 3 -3 9 4 14 11 6 11 11 2 20 -12 12 -1 49 14 49 3 0
3 -3 0 -7z m18 -153 c-3 -5 -12 -10 -18 -10 -7 0 -6 4 3 10 19 12 23 12 15 0z
m-5 -150 c0 -5 -5 -10 -11 -10 -5 0 -7 5 -4 10 3 6 8 10 11 10 2 0 4 -4 4 -10z
m30 -50 c-20 -13 -33 -13 -25 0 3 6 14 10 23 10 15 0 15 -2 2 -10z m15 -80
c-3 -5 -13 -6 -21 -3 -12 4 -13 8 -3 14 15 9 32 2 24 -11z m-9423 -18 c-7 -2
-9 -9 -5 -15 3 -7 2 -8 -2 -4 -16 14 -14 36 3 29 10 -4 12 -7 4 -10z m9402 0
c3 -5 -1 -9 -9 -9 -8 0 -12 4 -9 9 3 4 7 8 9 8 2 0 6 -4 9 -8z m26 -43 c-12
-22 -16 -23 -26 -7 -4 7 -3 8 4 4 7 -4 12 -2 12 3 0 6 -6 11 -12 11 -9 0 -8 3
2 9 21 14 32 3 20 -20z m0 -39 c0 -5 -4 -10 -10 -10 -5 0 -10 5 -10 10 0 6 5
10 10 10 6 0 10 -4 10 -10z m-9390 -20 c0 -5 -2 -10 -4 -10 -3 0 -8 5 -11 10
-3 6 -1 10 4 10 6 0 11 -4 11 -10z m9394 -15 c-7 -18 -20 -19 -30 -3 -4 6 -3
8 4 4 6 -3 13 -2 17 4 9 15 15 12 9 -5z m-9404 -35 c-8 -5 -19 -10 -25 -10 -5
0 -3 5 5 10 8 5 20 10 25 10 6 0 3 -5 -5 -10z m7130 -130 c0 -5 -5 -10 -11
-10 -5 0 -7 5 -4 10 3 6 8 10 11 10 2 0 4 -4 4 -10z m-7103 -6 c-3 -3 -12 -4
-19 -1 -8 3 -5 6 6 6 11 1 17 -2 13 -5z m7134 -41 c13 -17 13 -17 -6 -3 -11 8
-22 16 -24 17 -2 2 0 3 6 3 6 0 17 -8 24 -17z m153 -13 c-6 -6 -10 -3 -10 10
0 13 4 16 10 10 7 -7 7 -13 0 -20z m2121 -110 c-1 -27 -4 -52 -7 -55 -3 -3 -5
5 -4 17 1 13 -2 29 -8 36 -7 9 -6 16 3 21 10 6 8 10 -5 15 -9 3 -14 9 -11 13
4 3 1 13 -6 21 -9 12 -7 12 14 -1 22 -15 25 -24 24 -67z m-1839 48 c5 -7 3 -8
-6 -3 -10 6 -12 4 -6 -11 5 -14 4 -16 -5 -7 -6 6 -8 16 -5 22 9 14 13 14 22
-1z m1811 -73 c0 -8 -4 -12 -9 -9 -5 3 -6 10 -3 15 9 13 12 11 12 -6z m-1567
-46 c-13 -23 -17 -24 -17 -4 0 8 4 15 9 15 5 0 6 5 2 12 -4 7 -3 8 4 4 9 -5 9
-13 2 -27z m1567 6 c0 -8 -4 -12 -9 -9 -5 3 -6 10 -3 15 9 13 12 11 12 -6z
m-1524 -18 c7 3 9 2 4 -2 -4 -5 -16 -9 -27 -10 -16 -1 -17 1 -8 13 8 9 14 10
16 3 2 -6 9 -8 15 -4z m-7813 -29 c0 -4 -4 -8 -9 -8 -6 0 -12 4 -15 8 -3 5 1
9 9 9 8 0 15 -4 15 -9z m7980 -20 c0 -10 -9 -9 -35 2 -17 8 -16 8 8 7 15 -1
27 -5 27 -9z m200 -80 c0 6 5 12 10 12 6 0 9 -3 8 -7 -2 -5 1 -9 5 -10 13 -4
37 -31 37 -43 0 -6 -6 -10 -12 -7 -7 2 -12 10 -10 17 2 7 -3 10 -12 7 -8 -3
-20 1 -26 8 -7 8 -16 12 -21 9 -5 -3 -6 2 -2 11 5 13 7 14 14 3 7 -10 9 -10 9
0z m-8167 -23 c-3 -9 -8 -14 -10 -11 -3 3 -2 9 2 15 9 16 15 13 8 -4z m7001
-13 c3 -5 -1 -9 -9 -9 -8 0 -12 4 -9 9 3 4 7 8 9 8 2 0 6 -4 9 -8z m1283 -12
c-1 -22 -17 -28 -17 -7 0 12 9 27 16 27 2 0 2 -9 1 -20z m1123 -11 c0 -13 -29
-18 -36 -7 -4 7 -3 8 4 4 7 -4 12 -2 12 3 0 6 -4 11 -10 11 -5 0 -10 5 -10 10
0 6 8 5 20 -2 11 -7 20 -16 20 -19z m-9384 -1 c4 -6 3 -8 -4 -4 -5 3 -13 0
-15 -6 -3 -8 -6 -6 -6 5 -1 19 14 23 25 5z m8388 4 c3 -5 -1 -9 -9 -9 -8 0
-12 4 -9 9 3 4 7 8 9 8 2 0 6 -4 9 -8z m-1427 -47 c0 -8 -4 -12 -9 -9 -5 3 -6
10 -3 15 9 13 12 11 12 -6z m1483 9 c0 -8 -19 -13 -24 -6 -3 5 1 9 9 9 8 0 15
-2 15 -3z m890 0 c0 -8 -19 -13 -24 -6 -3 5 1 9 9 9 8 0 15 -2 15 -3z m35 -4
c-3 -5 -12 -10 -18 -10 -7 0 -6 4 3 10 19 12 23 12 15 0z m-9381 -31 c-3 -6 0
-15 7 -20 12 -7 11 -9 -1 -9 -13 0 -13 -1 0 -10 12 -8 13 -11 2 -22 -8 -7 -13
-8 -12 -3 2 6 1 12 0 15 -10 27 -7 60 6 60 3 0 2 -5 -2 -11z m8563 -21 c-3 -8
-6 -5 -6 6 -1 11 2 17 5 13 3 -3 4 -12 1 -19z m54 -31 c-10 -9 -11 -8 -5 6 3
10 9 15 12 12 3 -3 0 -11 -7 -18z m-1626 -5 c-3 -3 -11 0 -18 7 -9 10 -8 11 6
5 10 -3 15 -9 12 -12z m2022 -114 c2 6 10 12 16 12 5 0 7 -3 4 -7 -4 -3 -2
-11 3 -18 6 -8 5 -18 -6 -31 -13 -16 -15 -16 -10 -2 3 11 -2 22 -14 28 -11 6
-20 16 -20 23 0 8 4 7 11 -3 8 -11 12 -12 16 -2z m-8945 -26 c-7 -2 -9 -9 -5
-15 4 -7 -1 -6 -10 2 -20 16 -13 33 10 24 11 -4 13 -8 5 -11z m9047 -35 c0 -9
-2 -8 -6 1 -2 6 -10 9 -15 6 -7 -4 -8 -2 -4 5 9 13 26 5 25 -12z m54 0 c4 3 7
4 7 0 0 -18 -21 -14 -30 5 -10 21 -10 21 3 6 8 -10 17 -15 20 -11z m-9082 6
c-10 -4 -10 -7 -1 -13 9 -5 8 -9 -3 -13 -13 -5 -16 5 -8 31 1 1 7 2 14 1 8 0
8 -2 -2 -6z m6744 -43 c3 -5 1 -10 -4 -10 -6 0 -11 5 -11 10 0 6 2 10 4 10 3
0 8 -4 11 -10z m2550 0 c3 -6 -1 -7 -9 -4 -18 7 -21 14 -7 14 6 0 13 -4 16
-10z m35 -14 c0 -2 -6 -9 -14 -15 -11 -9 -16 -9 -22 0 -4 8 -3 9 4 5 7 -4 12
-2 12 3 0 6 5 11 10 11 6 0 10 -2 10 -4z m-2640 -10 c0 -2 -6 -9 -14 -15 -11
-9 -16 -9 -22 0 -4 7 -3 9 4 5 6 -3 13 -2 17 4 6 10 15 14 15 6z m-70 -80 c0
-2 -7 -7 -16 -10 -8 -3 -12 -2 -9 4 6 10 25 14 25 6z m-18 -30 c7 4 8 2 4 -5
-4 -6 -11 -9 -16 -6 -5 3 -13 -3 -19 -12 -6 -10 -11 -12 -11 -5 0 6 -4 11 -9
10 -5 -2 -9 2 -9 7 0 6 4 9 9 7 5 -1 12 5 16 14 5 15 7 15 15 0 5 -9 14 -13
20 -10z m-118 -47 c-2 -4 2 -10 8 -12 8 -3 6 -6 -4 -6 -10 -1 -18 4 -18 11 0
6 -10 3 -22 -8 -28 -25 -50 -25 -54 -1 -1 11 2 14 9 10 20 -12 36 -12 46 1 11
13 43 18 35 5z m-194 -35 c0 -8 -19 -13 -24 -6 -3 5 1 9 9 9 8 0 15 -2 15 -3z
m-33 -29 c1 -5 9 -12 19 -15 11 -4 14 -9 7 -13 -6 -4 -18 -1 -26 7 -8 8 -17
13 -20 10 -2 -3 -7 1 -10 9 -3 8 1 13 11 12 10 0 18 -5 19 -10z m-180 -27 c-3
-8 -6 -5 -6 6 -1 11 2 17 5 13 3 -3 4 -12 1 -19z m-292 -8 c3 -5 1 -10 -4 -10
-6 0 -11 5 -11 10 0 6 2 10 4 10 3 0 8 -4 11 -10z m90 -20 c-11 -4 -25 -5 -31
-3 -7 2 -15 -1 -19 -6 -3 -6 -11 -9 -16 -6 -21 13 -6 21 39 22 31 0 40 -2 27
-7z m-5650 -18 c-3 -3 -11 0 -18 7 -9 10 -8 11 6 5 10 -3 15 -9 12 -12z m5370
-33 c-7 -10 -36 -5 -33 7 2 5 7 8 12 6 5 -2 6 5 2 15 -5 16 -5 16 9 -1 8 -10
12 -22 10 -27z m-418 -15 c-3 -3 -12 -4 -19 -1 -8 3 -5 6 6 6 11 1 17 -2 13
-5z m-110 -19 c0 -8 -4 -12 -9 -9 -5 3 -6 10 -3 15 9 13 12 11 12 -6z m53 1
c0 -2 -7 -7 -16 -10 -8 -3 -12 -2 -9 4 6 10 25 14 25 6z m-4830 -16 c0 -5 -5
-10 -11 -10 -5 0 -7 5 -4 10 3 6 8 10 11 10 2 0 4 -4 4 -10z m37 -26 c0 -7 -5
-15 -12 -17 -6 -3 -11 3 -11 12 0 10 5 18 11 18 7 0 12 -6 12 -13z m4357 0 c3
-8 2 -12 -4 -9 -6 3 -10 10 -10 16 0 14 7 11 14 -7z m127 -3 c-7 -5 -12 -12
-12 -16 2 -12 -28 -15 -35 -4 -3 5 -10 7 -15 4 -20 -13 -46 -13 -46 0 0 7 7
12 16 10 9 -1 24 2 34 7 9 5 17 5 16 1 -4 -21 3 -22 23 -3 12 11 24 17 27 14
3 -3 0 -9 -8 -13z m97 7 c-2 -6 -12 -12 -21 -14 -9 -1 -15 2 -11 7 3 5 10 7
15 4 5 -4 9 -1 9 4 0 6 3 11 6 11 3 0 4 -5 2 -12z m-347 -47 c12 7 12 9 0 9
-8 0 -12 3 -8 6 3 3 12 2 19 -2 7 -5 17 -9 22 -9 5 0 10 -6 12 -13 1 -7 0 -8
-3 -2 -3 7 -12 5 -26 -7 -11 -10 -17 -12 -13 -5 4 6 3 12 -3 12 -5 0 -11 -5
-13 -11 -2 -6 -9 2 -16 17 -10 24 -10 26 1 12 9 -11 18 -14 28 -7z m-446 -31
c-3 -5 -12 -10 -18 -10 -7 0 -6 4 3 10 19 12 23 12 15 0z m-3705 -22 c0 -9 4
-8 10 2 6 9 10 10 10 3 0 -19 -17 -24 -30 -8 -9 10 -9 15 -1 15 6 0 11 -6 11
-12z m3806 5 c-10 -11 -37 -12 -30 -2 3 5 12 9 21 9 9 0 13 -3 9 -7z m-253
-24 c-8 -8 -13 -7 -18 2 -5 8 -4 10 3 5 7 -4 12 -2 12 5 0 7 3 9 7 6 4 -4 2
-12 -4 -18z m76 -19 c-8 -8 -44 -8 -59 1 -11 6 -11 8 -2 9 7 0 10 5 6 12 -4 7
-3 8 5 4 6 -4 9 -12 6 -17 -4 -5 -2 -9 4 -9 5 0 13 10 17 22 6 20 7 21 17 2 6
-10 9 -21 6 -24z m-216 -15 c-3 -9 -8 -14 -10 -11 -3 3 -2 9 2 15 9 16 15 13
8 -4z m77 -19 c0 -5 -7 -3 -15 4 -8 7 -12 17 -9 22 7 10 24 -9 24 -26z m-494
5 c-4 -5 0 -11 6 -14 7 -3 3 -4 -9 -4 -17 1 -19 4 -11 14 12 15 22 18 14 4z
m-56 -11 c0 -5 -2 -10 -4 -10 -3 0 -8 5 -11 10 -3 6 -1 10 4 10 6 0 11 -4 11
-10z m90 -13 c0 -2 -8 -12 -19 -21 -16 -15 -19 -15 -24 -2 -4 10 -1 13 7 10 8
-3 17 -1 21 5 6 11 15 15 15 8z m-577 -52 c4 -8 3 -16 -1 -19 -4 -3 -9 4 -9
15 -2 23 3 25 10 4z m57 11 c0 -2 -8 -10 -17 -17 -16 -13 -17 -12 -4 4 13 16
21 21 21 13z m336 -3 c-10 -11 -37 -12 -30 -2 3 5 12 9 21 9 9 0 13 -3 9 -7z
m-2570 -25 c-1 -7 -6 -19 -10 -27 -7 -11 -5 -13 9 -7 10 4 21 2 25 -4 4 -6 16
-12 28 -13 11 0 19 -4 16 -8 -5 -9 -42 0 -50 12 -3 5 -13 5 -24 -1 -19 -10
-22 2 -7 28 5 7 3 12 -5 12 -9 0 -9 3 2 10 19 12 19 12 16 -2z m2234 -13 c-7
-9 -15 -13 -17 -11 -6 6 20 36 26 30 2 -2 -2 -10 -9 -19z m-230 -48 c0 -4 -6
-5 -12 0 -7 4 -20 6 -30 5 -9 -2 -19 1 -22 7 -4 5 3 7 16 3 15 -4 19 -2 14 7
-6 9 -3 9 13 -1 12 -7 21 -16 21 -21z m-445 -17 c-3 -5 -1 -11 5 -15 7 -4 7
-13 0 -26 -6 -11 -15 -17 -21 -14 -5 4 -6 13 0 23 4 9 7 25 6 35 -2 9 1 15 6
11 5 -3 7 -9 4 -14z m-1385 -15 c-8 -10 -7 -14 2 -18 9 -4 9 -6 1 -6 -16 -1
-29 22 -15 27 7 2 9 9 6 14 -4 7 -2 8 5 4 9 -6 9 -11 1 -21z m1353 -12 c-3 -7
-9 -10 -14 -7 -14 8 -11 21 5 21 8 0 12 -6 9 -14z m-130 -18 c-3 -9 -8 -14
-10 -11 -3 3 -2 9 2 15 9 16 15 13 8 -4z m-1101 -14 c7 11 9 11 6 1 -5 -17
-23 -17 -24 0 -1 9 1 8 4 -1 3 -12 5 -12 14 0z m704 -7 c1 -9 0 -13 -4 -10 -3
4 -7 14 -8 22 -1 9 0 13 4 10 3 -4 7 -14 8 -22z m157 8 c4 9 6 9 6 1 2 -23
-18 -23 -29 -1 -10 21 -10 22 3 5 11 -14 16 -15 20 -5z m-223 4 c0 -2 -8 -10
-17 -17 -16 -13 -17 -12 -4 4 13 16 21 21 21 13z m190 -31 c0 -5 -5 -3 -10 5
-5 8 -10 20 -10 25 0 6 5 3 10 -5 5 -8 10 -19 10 -25z"/>
<path d="M2355 7440 c-3 -5 -1 -10 4 -10 6 0 11 5 11 10 0 6 -2 10 -4 10 -3 0
-8 -4 -11 -10z"/>
<path d="M7555 6650 c10 -11 20 -20 23 -20 3 0 -3 9 -13 20 -10 11 -20 20 -23
20 -3 0 3 -9 13 -20z"/>
<path d="M10145 4420 c3 -5 8 -10 11 -10 2 0 4 5 4 10 0 6 -5 10 -11 10 -5 0
-7 -4 -4 -10z"/>
<path d="M9579 8585 c-1 -3 -2 -9 -3 -14 -2 -19 -17 -25 -27 -11 -8 11 -9 9
-4 -9 5 -15 3 -21 -3 -17 -6 4 -8 -2 -5 -14 3 -11 9 -17 14 -14 5 3 7 9 4 14
-6 10 20 31 35 28 7 -2 15 3 17 10 3 6 -3 12 -12 12 -9 0 -13 5 -10 10 3 6 4
10 1 10 -3 0 -7 -2 -7 -5z"/>
<path d="M9710 8525 c0 -8 4 -15 10 -15 5 0 7 7 4 15 -4 8 -8 15 -10 15 -2 0
-4 -7 -4 -15z"/>
<path d="M9706 8488 c3 -5 10 -6 15 -3 13 9 11 12 -6 12 -8 0 -12 -4 -9 -9z"/>
<path d="M9736 8467 c3 -10 9 -15 12 -12 3 3 0 11 -7 18 -10 9 -11 8 -5 -6z"/>
<path d="M9450 8429 c0 -5 5 -7 10 -4 6 3 10 8 10 11 0 2 -4 4 -10 4 -5 0 -10
-5 -10 -11z"/>
<path d="M9384 8396 c4 -11 -1 -27 -11 -38 -15 -16 -15 -18 -1 -13 22 9 30 33
17 53 -9 15 -10 15 -5 -2z"/>
<path d="M9746 8234 c-4 -10 -2 -13 6 -8 8 5 9 1 4 -12 -4 -10 -10 -30 -12
-44 -3 -18 -2 -21 5 -10 5 8 7 18 5 22 -3 4 -1 8 4 8 4 0 8 14 8 30 0 32 -10
40 -20 14z"/>
<path d="M9155 8169 c-4 -5 -11 -6 -17 -3 -7 4 -8 2 -4 -5 6 -9 11 -9 21 -1
10 8 14 8 17 -2 3 -8 6 -9 11 -1 4 6 0 13 -8 17 -8 3 -17 1 -20 -5z"/>
<path d="M6415 8020 c3 -6 14 -10 23 -10 14 0 15 -2 2 -9 -8 -6 -19 -7 -25 -3
-18 12 -45 12 -45 1 0 -8 -4 -8 -15 1 -12 10 -13 8 -10 -10 6 -31 12 -35 30
-20 8 7 15 9 15 5 0 -4 7 -2 15 5 8 7 15 10 15 6 0 -4 14 1 31 9 24 13 34 14
45 4 10 -8 14 -8 14 0 0 6 -5 11 -11 11 -5 0 -7 5 -3 11 5 8 1 8 -14 0 -14 -8
-29 -8 -47 -1 -17 7 -24 7 -20 0z m-11 -32 c-4 -5 -9 -7 -12 -4 -3 3 -11 1
-18 -5 -8 -7 -14 -6 -20 2 -4 7 -3 9 4 5 6 -3 13 -3 16 2 3 5 12 9 20 9 8 0
13 -4 10 -9z"/>
<path d="M6256 8002 c-3 -5 1 -9 9 -9 8 0 12 4 9 9 -3 4 -7 8 -9 8 -2 0 -6 -4
-9 -8z"/>
<path d="M6293 7995 c0 -8 4 -12 9 -9 4 3 8 9 8 15 0 5 -4 9 -8 9 -5 0 -9 -7
-9 -15z"/>
<path d="M8900 7966 c0 -2 8 -10 18 -17 15 -13 16 -12 3 4 -13 16 -21 21 -21
13z"/>
<path d="M7020 7956 c0 -2 7 -7 16 -10 8 -3 12 -2 9 4 -6 10 -25 14 -25 6z"/>
<path d="M5766 7938 c3 -5 10 -6 15 -3 13 9 11 12 -6 12 -8 0 -12 -4 -9 -9z"/>
<path d="M5789 7923 c-7 -10 -9 -15 -5 -11 5 4 15 3 21 -2 9 -7 16 -6 25 5 9
10 9 15 1 15 -6 0 -11 -5 -11 -11 0 -5 -5 -7 -10 -4 -6 4 -8 11 -5 16 10 16
-2 10 -16 -8z"/>
<path d="M5720 7909 c6 -9 17 -16 27 -15 20 3 28 21 14 31 -6 3 -9 0 -5 -8 3
-8 -2 -14 -11 -14 -9 0 -14 6 -11 12 2 6 -2 12 -9 12 -10 0 -11 -5 -5 -18z"/>
<path d="M5360 7880 c-9 -6 -10 -10 -3 -10 6 0 15 5 18 10 8 12 4 12 -15 0z"/>
<path d="M5199 7878 c-6 -21 -5 -39 2 -44 5 -3 6 -11 2 -17 -3 -7 3 -4 14 6
11 9 22 16 24 15 2 -2 1 1 -4 7 -5 6 -11 5 -16 -4 -10 -16 -20 -3 -16 22 3 13
-2 25 -6 15z"/>
<path d="M5242 7864 c10 -10 20 -16 22 -13 3 3 -5 11 -17 18 -21 13 -21 12 -5
-5z"/>
<path d="M9782 7836 c7 -8 15 -12 17 -11 5 6 -10 25 -20 25 -5 0 -4 -6 3 -14z"/>
<path d="M4990 7820 c0 -6 7 -10 15 -10 8 0 15 2 15 4 0 2 -7 6 -15 10 -8 3
-15 1 -15 -4z"/>
<path d="M5037 7813 c-4 -3 -7 -11 -7 -17 0 -6 5 -5 12 2 6 6 9 14 7 17 -3 3
-9 2 -12 -2z"/>
<path d="M4516 7793 c-6 -14 -5 -15 5 -6 7 7 10 15 7 18 -3 3 -9 -2 -12 -12z"/>
<path d="M4776 7773 c-6 -14 -5 -15 5 -6 7 7 10 15 7 18 -3 3 -9 -2 -12 -12z"/>
<path d="M4496 7762 c-3 -5 1 -9 9 -9 8 0 12 4 9 9 -3 4 -7 8 -9 8 -2 0 -6 -4
-9 -8z"/>
<path d="M9835 7740 c3 -5 8 -10 11 -10 2 0 4 5 4 10 0 6 -5 10 -11 10 -5 0
-7 -4 -4 -10z"/>
<path d="M7309 7723 c-13 -16 -12 -17 4 -4 9 7 17 15 17 17 0 8 -8 3 -21 -13z"/>
<path d="M3950 7706 c0 -2 7 -7 16 -10 8 -3 12 -2 9 4 -6 10 -25 14 -25 6z"/>
<path d="M7350 7699 c0 -5 5 -7 10 -4 6 3 10 8 10 11 0 2 -4 4 -10 4 -5 0 -10
-5 -10 -11z"/>
<path d="M9829 7691 c6 -10 9 -20 8 -22 -1 -2 0 -3 2 -1 11 7 8 31 -5 36 -11
4 -12 1 -5 -13z"/>
<path d="M4020 7692 c0 -7 -4 -10 -10 -7 -5 3 -18 1 -27 -5 -15 -9 -14 -10 7
-4 22 6 23 5 12 -9 -9 -10 -10 -17 -2 -22 10 -6 11 -5 14 14 2 14 16 26 16 13
0 -13 63 -9 67 5 2 6 -3 13 -12 17 -9 3 -13 2 -10 -3 3 -5 1 -12 -5 -16 -5 -3
-10 2 -11 12 0 16 -1 16 -8 -2 -8 -19 -8 -19 -19 0 -6 11 -12 14 -12 7z"/>
<path d="M3918 7663 c7 -3 16 -2 19 1 4 3 -2 6 -13 5 -11 0 -14 -3 -6 -6z"/>
<path d="M9800 7660 c-12 -7 -12 -10 -1 -10 7 0 11 -6 8 -14 -4 -10 -1 -13 9
-9 16 6 19 23 3 23 -5 0 -7 5 -4 10 8 12 4 12 -15 0z"/>
<path d="M3833 7645 c0 -8 4 -15 9 -15 4 0 8 4 8 9 0 6 -4 12 -8 15 -5 3 -9
-1 -9 -9z"/>
<path d="M3475 7640 c-3 -5 -1 -10 4 -10 6 0 11 5 11 10 0 6 -2 10 -4 10 -3 0
-8 -4 -11 -10z"/>
<path d="M3410 7620 c0 -5 5 -10 11 -10 5 0 7 5 4 10 -3 6 -8 10 -11 10 -2 0
-4 -4 -4 -10z"/>
<path d="M3345 7599 c-11 -16 -1 -19 13 -3 7 8 8 14 3 14 -5 0 -13 -5 -16 -11z"/>
<path d="M3375 7590 c-3 -6 1 -7 9 -4 18 7 21 14 7 14 -6 0 -13 -4 -16 -10z"/>
<path d="M7380 7575 c5 -7 7 -14 4 -17 -3 -3 14 -21 38 -39 24 -19 37 -27 31
-18 -7 9 -9 19 -5 23 4 4 3 7 -3 6 -29 -6 -37 1 -31 28 5 20 4 23 -4 12 -8
-13 -14 -8 -12 11 1 3 -6 6 -13 6 -10 0 -12 -4 -5 -12z"/>
<path d="M2944 7558 c-10 -13 -12 -18 -5 -11 7 6 19 10 25 9 6 -2 8 -1 3 1 -4
3 -5 9 -1 14 10 17 -3 9 -22 -13z"/>
<path d="M7439 7578 c-5 -18 -6 -38 -1 -34 7 8 12 36 6 36 -2 0 -4 -1 -5 -2z"/>
<path d="M8535 7551 c5 -18 4 -22 -5 -16 -9 6 -11 4 -5 -5 6 -10 4 -12 -9 -7
-10 4 -15 3 -11 -3 8 -13 18 -13 38 3 15 11 15 14 1 32 -16 20 -16 19 -9 -4z"/>
<path d="M3016 7542 c-3 -5 1 -9 9 -9 8 0 12 4 9 9 -3 4 -7 8 -9 8 -2 0 -6 -4
-9 -8z"/>
<path d="M8400 7423 c0 -1 8 -7 18 -12 14 -7 19 -6 19 4 0 7 -9 13 -19 12 -10
-1 -18 -2 -18 -4z"/>
<path d="M2090 7409 c0 -5 5 -7 10 -4 6 3 10 8 10 11 0 2 -4 4 -10 4 -5 0 -10
-5 -10 -11z"/>
<path d="M1976 7402 c-3 -5 1 -9 9 -9 8 0 12 4 9 9 -3 4 -7 8 -9 8 -2 0 -6 -4
-9 -8z"/>
<path d="M1570 7321 c0 -6 4 -13 10 -16 6 -3 7 1 4 9 -7 18 -14 21 -14 7z"/>
<path d="M8276 7315 c-9 -26 -7 -32 5 -12 6 10 9 21 6 23 -2 3 -7 -2 -11 -11z"/>
<path d="M1538 7301 c-10 -16 -15 -18 -27 -8 -12 10 -13 9 -2 -12 14 -25 16
-24 42 22 13 23 2 22 -13 -2z"/>
<path d="M8230 7260 c-13 -8 -12 -10 3 -10 9 0 17 5 17 10 0 12 -1 12 -20 0z"/>
<path d="M1360 7235 c-9 -10 -9 -15 -1 -15 6 0 11 5 11 11 0 5 5 7 12 3 7 -4
8 -3 4 4 -9 15 -11 15 -26 -3z"/>
<path d="M7495 7240 c3 -5 8 -10 11 -10 2 0 4 5 4 10 0 6 -5 10 -11 10 -5 0
-7 -4 -4 -10z"/>
<path d="M8091 7114 c0 -11 3 -14 6 -6 3 7 2 16 -1 19 -3 4 -6 -2 -5 -13z"/>
<path d="M9880 7120 c-8 -5 -10 -10 -5 -10 6 0 17 5 25 10 8 5 11 10 5 10 -5
0 -17 -5 -25 -10z"/>
<path d="M1110 7080 c-9 -6 -10 -10 -3 -10 6 0 15 5 18 10 8 12 4 12 -15 0z"/>
<path d="M8017 7056 c-6 -15 11 -36 28 -36 5 0 2 5 -7 11 -10 5 -15 16 -12 24
4 8 4 15 1 15 -3 0 -7 -6 -10 -14z"/>
<path d="M9860 7059 c0 -5 9 -9 20 -9 11 0 20 2 20 4 0 2 -9 6 -20 9 -11 3
-20 1 -20 -4z"/>
<path d="M7940 6995 c-7 -9 -11 -17 -9 -20 3 -2 10 5 17 15 14 24 10 26 -8 5z"/>
<path d="M7907 6933 c6 -15 13 -16 31 -4 10 6 7 10 -11 13 -18 4 -24 1 -20 -9z"/>
<path d="M7869 6923 c-13 -16 -12 -17 4 -4 9 7 17 15 17 17 0 8 -8 3 -21 -13z"/>
<path d="M7535 6920 c-3 -5 -1 -10 4 -10 6 0 11 5 11 10 0 6 -2 10 -4 10 -3 0
-8 -4 -11 -10z"/>
<path d="M7515 6890 c3 -5 8 -10 11 -10 2 0 4 5 4 10 0 6 -5 10 -11 10 -5 0
-7 -4 -4 -10z"/>
<path d="M860 6866 c0 -2 8 -10 18 -17 15 -13 16 -12 3 4 -13 16 -21 21 -21
13z"/>
<path d="M907 6856 c-3 -8 -2 -18 3 -21 13 -8 20 9 11 24 -6 10 -10 9 -14 -3z"/>
<path d="M9892 6845 c9 -10 21 -16 28 -13 7 2 -1 10 -16 17 -27 12 -28 11 -12
-4z"/>
<path d="M853 6789 c6 -10 16 -15 21 -12 6 4 5 8 -2 11 -7 2 -10 7 -8 11 3 4
-1 8 -8 8 -11 0 -12 -4 -3 -18z"/>
<path d="M7524 6797 c-8 -9 -5 -17 12 -30 21 -16 22 -16 19 1 -2 9 -4 19 -5
22 -1 3 -2 8 -1 13 2 11 -13 8 -25 -6z"/>
<path d="M7573 6771 c0 -11 5 -18 9 -15 4 3 5 11 1 19 -7 21 -12 19 -10 -4z"/>
<path d="M7714 6758 c-4 -7 -4 -10 1 -6 4 4 15 2 24 -5 14 -11 14 -10 2 6 -16
20 -18 21 -27 5z"/>
<path d="M9933 6505 c0 -8 4 -12 9 -9 5 3 6 10 3 15 -9 13 -12 11 -12 -6z"/>
<path d="M672 6491 c-8 -4 -10 -15 -6 -26 5 -11 3 -16 -2 -12 -6 3 -10 -3 -11
-13 -1 -10 5 -21 14 -24 13 -5 14 -4 4 8 -9 11 -8 17 6 28 27 19 22 56 -5 39z"/>
<path d="M615 6441 c-3 -5 -2 -12 3 -15 5 -3 9 1 9 9 0 17 -3 19 -12 6z"/>
<path d="M9975 6421 c-3 -5 -2 -12 3 -15 5 -3 9 1 9 9 0 17 -3 19 -12 6z"/>
<path d="M9966 6324 c-14 -14 -14 -34 0 -34 3 0 2 5 -1 10 -3 6 -2 10 3 10 6
0 12 7 16 15 7 19 1 19 -18 -1z"/>
<path d="M580 6281 c0 -5 7 -12 16 -15 14 -5 15 -4 4 9 -14 17 -20 19 -20 6z"/>
<path d="M515 6020 c3 -5 8 -10 11 -10 2 0 4 5 4 10 0 6 -5 10 -11 10 -5 0 -7
-4 -4 -10z"/>
<path d="M535 6000 c-3 -5 -1 -10 4 -10 6 0 11 5 11 10 0 6 -2 10 -4 10 -3 0
-8 -4 -11 -10z"/>
<path d="M10005 5886 c10 -14 19 -26 22 -26 7 0 -17 39 -28 46 -6 3 -3 -5 6
-20z"/>
<path d="M510 5860 c0 -5 7 -7 15 -4 8 4 15 8 15 10 0 2 -7 4 -15 4 -8 0 -15
-4 -15 -10z"/>
<path d="M10050 5700 c0 -5 5 -10 11 -10 5 0 7 5 4 10 -3 6 -8 10 -11 10 -2 0
-4 -4 -4 -10z"/>
<path d="M515 5689 c-4 -6 -4 -13 -1 -16 3 -4 6 -1 6 5 0 7 5 12 11 12 5 0 7
-4 4 -10 -3 -5 -2 -10 4 -10 17 0 21 18 5 24 -21 8 -22 8 -29 -5z"/>
<path d="M10015 5680 c-3 -6 1 -7 9 -4 18 7 21 14 7 14 -6 0 -13 -4 -16 -10z"/>
<path d="M10025 5630 c-3 -5 -1 -12 5 -15 7 -5 8 -11 1 -19 -7 -8 -2 -19 16
-36 l26 -25 -17 32 c-20 40 -21 44 -6 53 8 5 7 9 -4 13 -8 3 -18 2 -21 -3z"/>
<path d="M537 5574 c19 -8 4 -34 -15 -27 -9 4 -14 3 -11 -1 4 -4 19 -9 35 -11
16 -2 23 -2 17 1 -7 3 -13 10 -13 15 0 6 5 7 10 4 6 -3 10 -2 10 3 0 6 -7 13
-16 16 -18 7 -35 7 -17 0z"/>
<path d="M10315 5540 c-3 -5 -1 -10 4 -10 6 0 11 5 11 10 0 6 -2 10 -4 10 -3
0 -8 -4 -11 -10z"/>
<path d="M535 5509 c-4 -6 -5 -12 -2 -15 2 -3 7 2 10 11 7 17 1 20 -8 4z"/>
<path d="M10309 5503 c-8 -10 -9 -14 -2 -10 6 4 14 3 18 -3 3 -5 0 -10 -7 -10
-10 0 -10 -2 -1 -8 15 -9 11 -44 -6 -50 -8 -3 -6 -8 6 -18 16 -12 16 -13 1
-14 -9 0 -20 -5 -24 -11 -4 -7 0 -9 12 -5 15 4 19 0 20 -18 1 -19 -2 -23 -15
-18 -14 5 -13 3 2 -12 17 -17 17 -19 -1 -35 -17 -15 -17 -17 0 -33 17 -17 18
-17 27 0 4 9 5 26 1 37 -4 11 -4 32 1 47 4 15 4 30 -1 33 -9 6 -8 24 3 42 4 6
4 14 -1 17 -5 3 -8 21 -7 41 2 42 -7 52 -26 28z m25 -234 c-3 -5 -10 -7 -15
-3 -5 3 -7 10 -3 15 3 5 10 7 15 3 5 -3 7 -10 3 -15z"/>
<path d="M10060 5445 c0 -7 30 -13 34 -7 3 4 -4 9 -15 9 -10 1 -19 0 -19 -2z"/>
<path d="M550 5400 c0 -5 5 -10 11 -10 5 0 7 5 4 10 -3 6 -8 10 -11 10 -2 0
-4 -4 -4 -10z"/>
<path d="M10295 5220 c-5 -9 -1 -10 14 -5 16 5 20 3 15 -9 -3 -8 -13 -12 -22
-9 -14 4 -15 3 -2 -5 8 -6 17 -9 21 -7 3 3 6 -9 7 -26 0 -16 -4 -27 -9 -24 -5
4 -9 2 -9 -4 0 -5 6 -11 13 -14 9 -3 9 -7 0 -19 -10 -12 -10 -15 0 -15 8 0 14
12 15 26 7 116 7 116 -15 119 -12 2 -24 -2 -28 -8z"/>
<path d="M10077 5209 c7 -7 15 -10 18 -7 3 3 -2 9 -12 12 -14 6 -15 5 -6 -5z"/>
<path d="M10295 5160 c3 -5 8 -10 11 -10 2 0 4 5 4 10 0 6 -5 10 -11 10 -5 0
-7 -4 -4 -10z"/>
<path d="M600 4995 c-11 -13 -10 -14 4 -9 9 3 16 10 16 15 0 13 -6 11 -20 -6z"/>
<path d="M618 4973 c6 -3 10 -8 8 -12 -3 -4 -1 -13 3 -20 6 -9 11 -10 15 -2 4
6 2 11 -5 11 -8 0 -6 5 4 13 15 11 14 12 -10 13 -16 1 -22 -1 -15 -3z"/>
<path d="M10130 4960 c0 -5 5 -10 11 -10 5 0 7 5 4 10 -3 6 -8 10 -11 10 -2 0
-4 -4 -4 -10z"/>
<path d="M10130 4911 c0 -6 4 -13 10 -16 6 -3 7 1 4 9 -7 18 -14 21 -14 7z"/>
<path d="M653 4797 c0 -8 6 -14 14 -14 9 0 10 4 2 14 -6 7 -12 13 -14 13 -1 0
-2 -6 -2 -13z"/>
<path d="M10130 4686 c0 -2 9 -6 20 -9 11 -3 18 -1 14 4 -5 9 -34 13 -34 5z"/>
<path d="M679 4638 c-6 -20 -6 -39 0 -42 4 -3 7 6 7 20 0 20 -4 32 -7 22z"/>
<path d="M10150 4560 c6 -11 13 -20 16 -20 2 0 0 9 -6 20 -6 11 -13 20 -16 20
-2 0 0 -9 6 -20z"/>
<path d="M671 4526 c-10 -11 -9 -14 1 -12 14 2 23 15 15 22 -2 2 -10 -2 -16
-10z"/>
<path d="M685 4419 c-4 -6 -5 -12 -2 -15 2 -3 7 2 10 11 7 17 1 20 -8 4z"/>
<path d="M700 4401 c-6 -13 -7 -21 -2 -17 6 3 12 0 15 -6 3 -9 8 -10 16 -2 8
7 8 15 -3 29 -13 18 -14 18 -26 -4z m24 -7 c3 -8 2 -12 -4 -9 -6 3 -10 10 -10
16 0 14 7 11 14 -7z"/>
<path d="M670 4376 c0 -2 8 -10 18 -17 15 -13 16 -12 3 4 -13 16 -21 21 -21
13z"/>
<path d="M713 4307 c-3 -6 -1 -7 5 -3 18 11 14 -5 -3 -18 -13 -9 -11 -11 9
-12 19 -1 23 3 22 20 -1 23 -22 31 -33 13z"/>
<path d="M10195 4140 c-3 -5 -1 -10 4 -10 6 0 11 5 11 10 0 6 -2 10 -4 10 -3
0 -8 -4 -11 -10z"/>
<path d="M10230 4099 c0 -5 5 -7 10 -4 6 3 10 8 10 11 0 2 -4 4 -10 4 -5 0
-10 -5 -10 -11z"/>
<path d="M10235 4069 c-4 -6 -5 -12 -2 -15 2 -3 7 2 10 11 7 17 1 20 -8 4z"/>
<path d="M745 4060 c-3 -6 1 -7 9 -4 18 7 21 14 7 14 -6 0 -13 -4 -16 -10z"/>
<path d="M759 3932 c7 -5 11 -14 7 -20 -3 -6 -2 -13 2 -16 5 -3 9 4 8 16 0 12
-8 23 -16 25 -12 4 -13 3 -1 -5z"/>
<path d="M757 3879 c7 -7 15 -10 18 -7 3 3 -2 9 -12 12 -14 6 -15 5 -6 -5z"/>
<path d="M756 3798 c3 -4 9 -8 15 -8 5 0 9 4 9 8 0 5 -7 9 -15 9 -8 0 -12 -4
-9 -9z"/>
<path d="M815 3680 c-3 -5 -1 -10 4 -10 6 0 11 5 11 10 0 6 -2 10 -4 10 -3 0
-8 -4 -11 -10z"/>
<path d="M8017 3673 c-4 -3 -7 -11 -7 -17 0 -6 5 -5 12 2 6 6 9 14 7 17 -3 3
-9 2 -12 -2z"/>
<path d="M813 3639 c-2 -23 3 -25 10 -4 4 8 3 16 -1 19 -4 3 -9 -4 -9 -15z"/>
<path d="M8165 3640 c-3 -5 1 -10 10 -10 9 0 13 5 10 10 -3 6 -8 10 -10 10 -2
0 -7 -4 -10 -10z"/>
<path d="M8135 3629 c-4 -6 -5 -12 -2 -15 2 -3 7 2 10 11 7 17 1 20 -8 4z"/>
<path d="M10290 3621 c0 -6 4 -13 10 -16 6 -3 7 1 4 9 -7 18 -14 21 -14 7z"/>
<path d="M10296 3562 c-3 -5 1 -9 9 -9 8 0 12 4 9 9 -3 4 -7 8 -9 8 -2 0 -6
-4 -9 -8z"/>
<path d="M8344 3538 c10 -6 22 -6 26 -2 5 5 -3 10 -18 11 -22 1 -24 0 -8 -9z"/>
<path d="M8447 3526 c-4 -9 -3 -14 2 -11 5 3 12 1 16 -5 8 -14 25 -13 25 2 0
6 -3 8 -7 5 -3 -4 -11 1 -18 10 -11 14 -12 14 -18 -1z"/>
<path d="M7989 3493 c-13 -16 -12 -17 4 -4 9 7 17 15 17 17 0 8 -8 3 -21 -13z"/>
<path d="M10310 3480 c0 -5 5 -10 11 -10 5 0 7 5 4 10 -3 6 -8 10 -11 10 -2 0
-4 -4 -4 -10z"/>
<path d="M10265 3461 c-3 -5 0 -13 6 -17 7 -4 9 -3 5 4 -3 6 2 13 11 15 16 4
16 5 1 6 -9 0 -19 -3 -23 -8z"/>
<path d="M7960 3441 c0 -9 30 -24 36 -18 2 1 -6 8 -16 15 -11 7 -20 8 -20 3z"/>
<path d="M10283 3435 c-10 -11 -9 -13 6 -12 11 1 17 7 14 14 -6 16 -5 16 -20
-2z"/>
<path d="M8795 3390 c-3 -6 1 -7 9 -4 18 7 21 14 7 14 -6 0 -13 -4 -16 -10z"/>
<path d="M7970 3375 c-13 -16 -5 -35 13 -34 9 0 9 2 0 6 -7 2 -13 9 -13 14 0
6 4 8 8 5 4 -2 14 -1 21 3 10 7 9 9 -2 14 -9 3 -21 0 -27 -8z"/>
<path d="M8900 3360 c0 -5 5 -10 11 -10 5 0 7 5 4 10 -3 6 -8 10 -11 10 -2 0
-4 -4 -4 -10z"/>
<path d="M10310 3351 c0 -6 4 -13 10 -16 6 -3 7 1 4 9 -7 18 -14 21 -14 7z"/>
<path d="M7970 3320 c0 -5 5 -10 10 -10 6 0 10 5 10 10 0 6 -4 10 -10 10 -5 0
-10 -4 -10 -10z"/>
<path d="M836 3312 c-2 -4 4 -8 14 -8 10 0 16 4 14 8 -3 4 -9 8 -14 8 -5 0
-11 -4 -14 -8z"/>
<path d="M9233 3255 c0 -8 5 -13 11 -12 6 1 10 -4 9 -10 -2 -7 2 -13 7 -13 6
0 10 5 10 10 0 6 0 13 0 18 0 4 -3 7 -7 7 -5 0 -13 3 -19 7 -6 4 -11 1 -11 -7z"/>
<path d="M9360 3180 c-12 -7 -10 -9 7 -7 12 0 19 5 17 9 -6 10 -6 10 -24 -2z"/>
<path d="M10305 3146 c4 -28 14 -48 16 -30 0 5 2 17 4 27 2 9 0 15 -5 12 -5
-3 -11 1 -14 7 -3 7 -3 0 -1 -16z"/>
<path d="M9495 3131 c-3 -5 -2 -12 3 -15 5 -3 9 1 9 9 0 17 -3 19 -12 6z"/>
<path d="M902 3111 c-11 -6 -10 -10 4 -15 9 -3 19 -4 22 -1 3 3 0 5 -7 5 -7 0
-9 5 -6 10 7 12 4 12 -13 1z"/>
<path d="M9682 3105 c4 -4 3 -14 -3 -22 -7 -8 -8 -13 -1 -13 15 0 23 28 9 36
-7 4 -9 4 -5 -1z"/>
<path d="M9715 3069 c-17 -6 -17 -8 -2 -8 9 -1 19 0 21 2 2 1 14 -7 27 -18 12
-11 19 -14 15 -7 -4 6 -3 12 3 12 5 0 12 -6 14 -12 4 -10 6 -10 6 -1 1 12 -32
35 -54 39 -5 1 -19 -2 -30 -7z"/>
<path d="M7896 3053 c-6 -14 -5 -15 5 -6 7 7 10 15 7 18 -3 3 -9 -2 -12 -12z"/>
<path d="M7841 3046 c-9 -10 -8 -15 2 -19 8 -3 13 3 14 14 2 23 -1 24 -16 5z"/>
<path d="M10315 3040 c3 -5 8 -10 11 -10 2 0 4 5 4 10 0 6 -5 10 -11 10 -5 0
-7 -4 -4 -10z"/>
<path d="M915 3020 c3 -5 8 -10 11 -10 2 0 4 5 4 10 0 6 -5 10 -11 10 -5 0 -7
-4 -4 -10z"/>
<path d="M7836 3007 c3 -10 9 -15 12 -12 3 3 0 11 -7 18 -10 9 -11 8 -5 -6z"/>
<path d="M10315 3010 c3 -5 8 -10 11 -10 2 0 4 5 4 10 0 6 -5 10 -11 10 -5 0
-7 -4 -4 -10z"/>
<path d="M7766 2961 c-3 -5 1 -14 8 -20 12 -10 13 -8 9 8 -6 23 -9 25 -17 12z"/>
<path d="M10102 2957 c-8 -9 -8 -17 0 -27 8 -13 9 -12 5 2 -3 9 -1 19 6 21 7
2 9 7 6 11 -3 4 -11 1 -17 -7z"/>
<path d="M10318 2963 c7 -3 16 -2 19 1 4 3 -2 6 -13 5 -11 0 -14 -3 -6 -6z"/>
<path d="M10050 2940 c0 -5 5 -10 11 -10 5 0 7 5 4 10 -3 6 -8 10 -11 10 -2 0
-4 -4 -4 -10z"/>
<path d="M10144 2909 c0 -13 3 -15 13 -7 7 6 13 12 13 13 0 2 -6 5 -13 8 -7 3
-13 -3 -13 -14z"/>
<path d="M10115 2910 c-3 -5 -1 -10 4 -10 6 0 11 5 11 10 0 6 -2 10 -4 10 -3
0 -8 -4 -11 -10z"/>
<path d="M995 2841 c-3 -5 -2 -12 3 -15 5 -3 9 1 9 9 0 17 -3 19 -12 6z"/>
<path d="M1053 2765 c0 -8 4 -12 9 -9 5 3 6 10 3 15 -9 13 -12 11 -12 -6z"/>
<path d="M7595 2760 c3 -5 8 -10 11 -10 2 0 4 5 4 10 0 6 -5 10 -11 10 -5 0
-7 -4 -4 -10z"/>
<path d="M7366 2709 c3 -13 6 -29 6 -36 1 -7 5 -10 10 -7 4 3 3 15 -4 27 -6
12 -10 24 -9 25 2 2 0 6 -3 9 -3 3 -3 -5 0 -18z"/>
<path d="M6950 2655 c0 -2 6 -8 13 -14 10 -8 14 -7 14 2 0 8 -6 14 -14 14 -7
0 -13 -1 -13 -2z"/>
<path d="M7000 2650 c-8 -5 -12 -12 -9 -15 4 -3 12 1 19 10 14 17 11 19 -10 5z"/>
<path d="M7110 2646 c0 -2 7 -7 16 -10 8 -3 12 -2 9 4 -6 10 -25 14 -25 6z"/>
<path d="M6745 2630 c3 -5 11 -10 16 -10 6 0 7 5 4 10 -3 6 -11 10 -16 10 -6
0 -7 -4 -4 -10z"/>
<path d="M6870 2610 c-9 -6 -10 -10 -3 -10 6 0 15 5 18 10 8 12 4 12 -15 0z"/>
<path d="M6516 2591 c-4 -7 -5 -15 -2 -18 9 -9 19 4 14 18 -4 11 -6 11 -12 0z"/>
<path d="M6230 2556 c0 -9 5 -16 10 -16 6 0 10 4 10 9 0 6 -4 13 -10 16 -5 3
-10 -1 -10 -9z"/>
<path d="M6193 2540 c-12 -9 -20 -20 -17 -23 3 -3 15 4 26 15 26 26 20 32 -9
8z"/>
<path d="M6123 2531 c-4 -3 -9 -13 -11 -21 -2 -12 1 -11 11 2 8 10 16 15 19
12 4 -3 8 -1 12 4 6 10 -19 12 -31 3z"/>
<path d="M6205 2520 c-3 -6 1 -7 9 -4 18 7 21 14 7 14 -6 0 -13 -4 -16 -10z"/>
<path d="M5955 2509 c-10 -15 3 -25 16 -12 7 7 7 13 1 17 -6 3 -14 1 -17 -5z"/>
<path d="M6033 2503 c0 -7 4 -13 8 -13 4 0 9 6 12 13 3 8 0 14 -7 14 -7 0 -13
-6 -13 -14z"/>
<path d="M6148 2503 c7 -3 16 -2 19 1 4 3 -2 6 -13 5 -11 0 -14 -3 -6 -6z"/>
<path d="M5636 2485 c-3 -8 -1 -15 4 -15 6 0 5 -9 -2 -20 -10 -15 -10 -22 -1
-31 9 -9 11 -7 7 8 -4 14 1 26 16 36 22 15 22 15 2 26 -16 8 -21 7 -26 -4z"/>
<path d="M5670 2450 c-8 -5 -10 -10 -5 -10 6 0 17 5 25 10 8 5 11 10 5 10 -5
0 -17 -5 -25 -10z"/>
<path d="M5420 2436 c0 -2 8 -10 18 -17 15 -13 16 -12 3 4 -13 16 -21 21 -21
13z"/>
<path d="M5588 2423 c7 -3 16 -2 19 1 4 3 -2 6 -13 5 -11 0 -14 -3 -6 -6z"/>
<path d="M5125 2411 c-3 -6 -11 -8 -17 -5 -6 4 -8 2 -5 -3 4 -6 0 -13 -8 -16
-9 -4 -12 -1 -8 9 3 7 0 14 -5 14 -15 0 -22 -14 -14 -26 8 -13 42 -14 42 -2 0
5 4 7 8 4 4 -2 14 -1 22 4 11 7 12 12 4 20 -9 9 -14 9 -19 1z"/>
<path d="M1425 2380 c-3 -5 1 -10 10 -10 9 0 13 5 10 10 -3 6 -8 10 -10 10 -2
0 -7 -4 -10 -10z"/>
<path d="M5187 2379 c7 -7 15 -10 18 -7 3 3 -2 9 -12 12 -14 6 -15 5 -6 -5z"/>
<path d="M4936 2365 c4 -8 11 -15 16 -15 6 0 5 6 -2 15 -7 8 -14 15 -16 15 -2
0 -1 -7 2 -15z"/>
<path d="M5153 2365 c0 -8 4 -12 9 -9 5 3 6 10 3 15 -9 13 -12 11 -12 -6z"/>
<path d="M1390 2366 c0 -2 7 -7 16 -10 8 -3 12 -2 9 4 -6 10 -25 14 -25 6z"/>
<path d="M1459 2343 c-10 -12 -10 -15 -1 -9 7 4 14 1 18 -7 2 -7 12 -14 21
-14 14 0 14 1 -1 12 -8 7 -13 14 -10 17 3 4 1 9 -4 12 -5 3 -16 -2 -23 -11z"/>
<path d="M4716 2353 c-14 -14 -4 -19 34 -19 28 0 35 3 25 9 -21 12 -52 17 -59
10z"/>
<path d="M4975 2340 c3 -5 8 -10 11 -10 2 0 4 5 4 10 0 6 -5 10 -11 10 -5 0
-7 -4 -4 -10z"/>
<path d="M4562 2333 c-6 -3 -10 -9 -6 -14 3 -5 1 -9 -5 -9 -5 0 -12 5 -14 10
-3 6 -4 5 -3 -2 1 -7 12 -13 23 -14 16 -1 20 3 15 15 -4 13 -2 13 16 -2 19
-18 20 -18 18 -1 -3 18 -21 25 -44 17z"/>
<path d="M4465 2320 c-3 -5 -1 -10 4 -10 6 0 11 5 11 10 0 6 -2 10 -4 10 -3 0
-8 -4 -11 -10z"/>
<path d="M1520 2280 c-9 -6 -10 -10 -3 -10 6 0 15 5 18 10 8 12 4 12 -15 0z"/>
<path d="M1583 2273 c-17 -6 -17 -20 0 -20 8 0 14 6 14 14 0 7 -1 13 -1 12 -1
0 -7 -3 -13 -6z"/>
<path d="M4159 2263 c-8 -9 -8 -13 0 -13 6 0 11 6 11 13 0 9 2 9 9 -1 7 -11 9
-11 14 0 7 19 -20 19 -34 1z"/>
<path d="M3806 2222 c-2 -4 0 -16 5 -27 4 -11 8 -14 8 -6 1 11 4 11 19 0 14
-11 15 -11 5 1 -8 8 -9 18 -3 25 6 7 3 11 -10 12 -11 1 -21 -1 -24 -5z"/>
<path d="M3715 2209 c-4 -5 -4 -13 -1 -16 3 -4 6 0 6 8 0 11 2 11 10 -1 6 -9
10 -10 10 -3 0 17 -17 25 -25 12z"/>
<path d="M3931 2204 c0 -11 3 -14 6 -6 3 7 2 16 -1 19 -3 4 -6 -2 -5 -13z"/>
<path d="M3750 2200 c0 -5 5 -10 11 -10 5 0 7 5 4 10 -3 6 -8 10 -11 10 -2 0
-4 -4 -4 -10z"/>
<path d="M1680 2186 c0 -2 7 -7 16 -10 8 -3 12 -2 9 4 -6 10 -25 14 -25 6z"/>
<path d="M3430 2180 c0 -5 5 -10 11 -10 5 0 7 -5 3 -12 -4 -7 -3 -8 4 -4 6 4
9 13 5 21 -6 17 -23 20 -23 5z"/>
<path d="M3470 2180 c0 -6 4 -9 9 -6 5 4 12 1 14 -4 3 -6 4 -5 3 2 -3 15 -26
23 -26 8z"/>
<path d="M3550 2180 c0 -5 5 -10 10 -10 6 0 10 5 10 10 0 6 -4 10 -10 10 -5 0
-10 -4 -10 -10z"/>
<path d="M3286 2138 c3 -4 0 -8 -6 -8 -6 0 -8 -5 -5 -10 4 -6 12 -5 21 4 18
18 18 23 -1 23 -8 0 -12 -4 -9 -9z"/>
<path d="M3370 2140 c0 -5 5 -10 11 -10 5 0 7 5 4 10 -3 6 -8 10 -11 10 -2 0
-4 -4 -4 -10z"/>
<path d="M1821 2124 c0 -11 3 -14 6 -6 3 7 2 16 -1 19 -3 4 -6 -2 -5 -13z"/>
<path d="M3155 2129 c-4 -6 -5 -12 -2 -15 2 -3 7 2 10 11 7 17 1 20 -8 4z"/>
<path d="M6496 2115 c5 -11 2 -13 -10 -9 -9 3 -16 2 -16 -4 0 -17 35 -6 38 11
2 10 -1 17 -7 17 -6 0 -8 -7 -5 -15z"/>
<path d="M2973 2106 c-3 -5 -1 -6 5 -2 7 4 12 2 12 -3 0 -15 17 -14 23 2 6 15
-31 18 -40 3z"/>
<path d="M6524 2098 c-12 -14 -13 -18 -3 -10 9 6 20 8 24 4 5 -4 4 -1 0 7 -6
11 -4 13 9 8 10 -4 15 -3 11 3 -9 15 -20 12 -41 -12z"/>
</g>
</svg>
